<svg xmlns="http://www.w3.org/2000/svg" width="20" height="21" viewBox="0 0 20 21" fill="none">
  <path fill-rule="evenodd" clip-rule="evenodd" d="M2 6.35714C2 4.2269 3.76288 2.5 5.9375 2.5H14.6875C16.8621 2.5 18.625 4.2269 18.625 6.35714V10.5204C18.625 12.6506 16.8621 14.3775 14.6875 14.3775H13.1888L11.4462 17.3039C10.9398 18.1543 9.68521 18.1543 9.17876 17.3039L7.43621 14.3775H5.9375C3.76288 14.3775 2 12.6506 2 10.5204V6.35714ZM5.9375 3.35714C4.24612 3.35714 2.875 4.70029 2.875 6.35714V10.5204C2.875 12.1772 4.24612 13.5204 5.9375 13.5204H7.6875C7.8431 13.5204 7.98699 13.6014 8.0654 13.733L9.93459 16.872C10.1034 17.1555 10.5216 17.1555 10.6904 16.872L12.5596 13.733C12.638 13.6014 12.7819 13.5204 12.9375 13.5204H14.6875C16.3789 13.5204 17.75 12.1772 17.75 10.5204V6.35714C17.75 4.70029 16.3789 3.35714 14.6875 3.35714H5.9375Z" fill="#131627"/>
  <path fill-rule="evenodd" clip-rule="evenodd" d="M10.3125 5.49972C11.0373 5.49972 11.625 6.07535 11.625 6.78544C11.625 7.49552 11.0373 8.07115 10.3125 8.07115C9.58765 8.07115 9 7.49552 9 6.78544C9 6.07535 9.58765 5.49972 10.3125 5.49972ZM12.5 6.78544C12.5 5.60197 11.5206 4.64258 10.3125 4.64258C9.10439 4.64258 8.125 5.60197 8.125 6.78544C8.125 7.9689 9.10439 8.92829 10.3125 8.92829C11.5206 8.92829 12.5 7.9689 12.5 6.78544Z" fill="#131627"/>
  <path fill-rule="evenodd" clip-rule="evenodd" d="M10.3127 8.92941C11.4713 8.92941 12.4804 9.55958 13.001 10.4912C13.1353 10.7316 13.0922 10.9516 12.9274 11.1406C12.7489 11.3454 12.4275 11.5008 12.0627 11.5008H8.56266C8.19771 11.5008 7.87632 11.3454 7.69777 11.1406C7.53307 10.9516 7.48992 10.7316 7.6242 10.4912C8.14482 9.55958 9.15389 8.92941 10.3127 8.92941ZM13.7686 10.0797C13.1006 8.88437 11.8037 8.07227 10.3127 8.07227C8.82148 8.07227 7.52464 8.88437 6.85668 10.0797C6.52686 10.6698 6.66155 11.2717 7.03233 11.6971C7.38927 12.1067 7.96102 12.358 8.56266 12.358H12.0627C12.6642 12.358 13.2359 12.1067 13.5929 11.6971C13.9637 11.2717 14.0983 10.6698 13.7686 10.0797Z" fill="#131627"/>
</svg>
