<svg xmlns="http://www.w3.org/2000/svg" width="16" height="16" viewBox="0 0 16 16" fill="none">
  <path d="M11.7925 0.512695H4.4317C3.09377 0.512695 2 1.60396 2 2.93839V13.0607C2 14.3952 3.09377 15.4864 4.4317 15.4864H11.7925C13.13 15.4864 14.2242 14.3946 14.2242 13.0607V2.93839C14.2242 1.60456 13.1298 0.512695 11.7925 0.512695ZM10.9294 2.75145H9.28733C8.5624 2.75145 7.96971 3.34247 7.96971 4.06581V5.7038C7.96971 6.42654 8.56299 7.01816 9.28733 7.01816H10.9294C11.6531 7.01816 12.2472 6.42575 12.2472 5.7038V4.06581C12.2472 3.34327 11.6539 2.75145 10.9294 2.75145ZM9.28733 3.25744H10.9294C11.3755 3.25744 11.7397 3.6208 11.7397 4.06581V5.7038C11.7397 6.1496 11.3763 6.51216 10.9294 6.51216H9.28733C8.84102 6.51216 8.47696 6.14881 8.47696 5.7038V4.06581C8.47696 3.6214 8.84181 3.25744 9.28733 3.25744ZM6.64253 3.12613H4.53426C3.61197 3.12613 3.61197 4.52433 4.53426 4.52433H6.64253C7.56482 4.52433 7.56482 3.12613 6.64253 3.12613ZM4.53426 3.63213H6.64253C6.89705 3.63213 6.89705 4.01833 6.64253 4.01833H4.53426C4.27954 4.01833 4.27954 3.63213 4.53426 3.63213ZM6.64253 5.30726H4.53426C3.61197 5.30726 3.61197 6.70546 4.53426 6.70546H6.64253C7.56482 6.70546 7.56482 5.30726 6.64253 5.30726ZM4.53426 5.81326H6.64253C6.89705 5.81326 6.89705 6.19947 6.64253 6.19947H4.53426C4.27954 6.19947 4.27954 5.81326 4.53426 5.81326ZM11.6901 7.48781H4.53406C3.61197 7.48781 3.61197 8.8862 4.53406 8.8862H11.6901C12.612 8.8862 12.612 7.48781 11.6901 7.48781ZM4.53406 7.994H11.6901C11.9447 7.994 11.9447 8.38021 11.6901 8.38021H4.53406C4.27954 8.38021 4.27954 7.994 4.53406 7.994ZM11.6901 9.66855H4.53406C3.61197 9.66855 3.61197 11.0669 4.53406 11.0669H11.6901C12.612 11.0669 12.612 9.66855 11.6901 9.66855ZM4.53406 10.1747H11.6901C11.9447 10.1747 11.9447 10.5609 11.6901 10.5609H4.53406C4.27954 10.5609 4.27954 10.1747 4.53406 10.1747ZM9.1981 11.8493H4.53446C3.61197 11.8493 3.61197 13.2477 4.53446 13.2477H9.1981C10.1206 13.2477 10.1206 11.8493 9.1981 11.8493ZM4.53446 12.3553H9.1981C9.45302 12.3553 9.45302 12.7417 9.1981 12.7417H4.53446C4.27934 12.7417 4.27934 12.3553 4.53446 12.3553ZM4.4317 1.01869H11.7925C12.8512 1.01869 13.717 1.88249 13.717 2.93839V13.0607C13.717 14.1166 12.8512 14.9804 11.7925 14.9804H4.4317C3.37338 14.9804 2.50725 14.1162 2.50725 13.0607V2.93839C2.50725 1.88288 3.37338 1.01869 4.4317 1.01869Z" fill="#131627"/>
</svg>
