<svg width="16" height="14" viewBox="0 0 16 14" fill="none" xmlns="http://www.w3.org/2000/svg">
<path fill-rule="evenodd" clip-rule="evenodd" d="M4.70588 2.89655V1.44727C4.70588 0.647989 5.33639 0 6.11531 0H9.88469C10.6628 0 11.2941 0.649456 11.2941 1.44727V2.89655H14.1195C15.1576 2.89655 16 3.76184 16 4.82644V12.0701C16 13.1355 15.1571 14 14.1195 14H1.88052C0.842366 14 0 13.1347 0 12.0701V4.82644C0 3.76107 0.842877 2.89655 1.88052 2.89655H4.70588ZM5.88235 9.65517H3.76621C2.72596 9.65517 1.88235 8.79153 1.88235 7.72551V3.86207H1.88052C1.36264 3.86207 0.941176 4.29435 0.941176 4.82644V12.0701C0.941176 12.6018 1.36244 13.0345 1.88052 13.0345H14.1195C14.6374 13.0345 15.0588 12.6022 15.0588 12.0701V4.82644C15.0588 4.29479 14.6376 3.86207 14.1195 3.86207H14.1176V7.72551C14.1176 8.79184 13.2749 9.65517 12.2338 9.65517H10.1176V9.89664C10.1176 10.4302 9.69551 10.8621 9.17509 10.8621H6.82491C6.30432 10.8621 5.88235 10.4317 5.88235 9.89664V9.65517ZM10.1176 8.68966H12.2338C12.7554 8.68966 13.1765 8.25831 13.1765 7.72551V3.86207H2.82353V7.72551C2.82353 8.25784 3.24532 8.68966 3.76621 8.68966H5.88235V8.44819C5.88235 7.91462 6.30449 7.48276 6.82491 7.48276H9.17509C9.69568 7.48276 10.1176 7.91313 10.1176 8.44819V8.68966ZM6.82353 9.89664C6.82353 9.89719 9.17509 9.89655 9.17509 9.89655C9.1763 9.89655 9.17647 8.44819 9.17647 8.44819C9.17647 8.44763 6.82491 8.44828 6.82491 8.44828C6.8237 8.44828 6.82353 9.89664 6.82353 9.89664ZM10.3529 1.44727C10.3529 1.1821 10.1424 0.965517 9.88469 0.965517H6.11531C5.85657 0.965517 5.64706 1.18084 5.64706 1.44727V2.89655H10.3529V1.44727Z" fill="#131627"/>
</svg>
