<svg width="24" height="24" viewBox="0 0 24 24" fill="none" xmlns="http://www.w3.org/2000/svg">
<path d="M7.8742 5.46067C7.8742 4.8062 7.34364 4.27563 6.68916 4.27563H5.03757C4.3831 4.27563 3.85254 4.8062 3.85254 5.46067V7.11226C3.85254 7.76673 4.3831 8.2973 5.03757 8.2973H6.68916C7.34364 8.2973 7.8742 7.76673 7.8742 7.11226V5.46067Z" fill="#DF2E38"/>
<path d="M7.8742 11.2604C7.8742 10.6059 7.34364 10.0753 6.68916 10.0753H5.03757C4.3831 10.0753 3.85254 10.6059 3.85254 11.2604V12.9119C3.85254 13.5664 4.3831 14.097 5.03757 14.097H6.68916C7.34364 14.097 7.8742 13.5664 7.8742 12.9119V11.2604Z" fill="#DF2E38"/>
<path d="M7.8742 16.8906C7.8742 16.2361 7.34364 15.7056 6.68916 15.7056H5.03757C4.3831 15.7056 3.85254 16.2361 3.85254 16.8906V18.5422C3.85254 19.1967 4.3831 19.7272 5.03757 19.7272H6.68916C7.34364 19.7272 7.8742 19.1967 7.8742 18.5422V16.8906Z" fill="#DF2E38"/>
<path d="M20.0239 6.30557C20.0239 5.65207 19.4941 5.12231 18.8406 5.12231H10.9201C10.2666 5.12231 9.73688 5.65207 9.73688 6.30557V6.30972C9.73688 6.96322 10.2666 7.49298 10.9201 7.49298H18.8406C19.4941 7.49298 20.0239 6.96322 20.0239 6.30972V6.30557Z" fill="#DF2E38"/>
<path d="M20.0239 12.0629C20.0239 11.4094 19.4941 10.8796 18.8406 10.8796H10.9201C10.2666 10.8796 9.73688 11.4094 9.73688 12.0629V12.067C9.73688 12.7205 10.2666 13.2503 10.9201 13.2503H18.8406C19.4941 13.2503 20.0239 12.7205 20.0239 12.067V12.0629Z" fill="#DF2E38"/>
<path d="M20.0239 17.6933C20.0239 17.0398 19.4941 16.51 18.8406 16.51H10.9201C10.2666 16.51 9.73688 17.0398 9.73688 17.6933V17.6974C9.73688 18.3509 10.2666 18.8807 10.9201 18.8807H18.8406C19.4941 18.8807 20.0239 18.3509 20.0239 17.6974V17.6933Z" fill="#DF2E38"/>
</svg>
