<svg width="17" height="19" viewBox="0 0 17 19" fill="none" xmlns="http://www.w3.org/2000/svg">
<path d="M2.72958 15.55C2.72958 16.2661 3.01431 16.9528 3.52115 17.4592C4.02798 17.9655 4.71539 18.25 5.43216 18.25H12.1886C12.9054 18.25 13.5928 17.9655 14.0996 17.4592C14.6065 16.9528 14.8912 16.2661 14.8912 15.55V4.74998H16.2425C16.4217 4.74998 16.5936 4.67887 16.7203 4.55228C16.847 4.42569 16.9182 4.254 16.9182 4.07498C16.9182 3.89596 16.847 3.72427 16.7203 3.59769C16.5936 3.4711 16.4217 3.39998 16.2425 3.39998H12.8035C12.6389 2.46134 12.1483 1.61074 11.4179 0.997794C10.6876 0.384852 9.76425 0.0488281 8.8104 0.0488281C7.85654 0.0488281 6.93324 0.384852 6.20289 0.997794C5.47254 1.61074 4.98192 2.46134 4.81732 3.39998H1.37828C1.19909 3.39998 1.02724 3.4711 0.900529 3.59769C0.773821 3.72427 0.702637 3.89596 0.702637 4.07498C0.702637 4.254 0.773821 4.42569 0.900529 4.55228C1.02724 4.67887 1.19909 4.74998 1.37828 4.74998H2.72958V15.55ZM8.8104 1.37498C9.4092 1.37543 9.9909 1.57454 10.4642 1.94106C10.9374 2.30758 11.2754 2.82075 11.4251 3.39998H6.19564C6.34534 2.82075 6.68336 2.30758 7.15662 1.94106C7.62989 1.57454 8.21159 1.37543 8.8104 1.37498ZM5.43216 4.74998H13.5399V15.55C13.5399 15.908 13.3976 16.2514 13.1441 16.5046C12.8907 16.7578 12.547 16.9 12.1886 16.9H5.43216C5.07378 16.9 4.73007 16.7578 4.47665 16.5046C4.22324 16.2514 4.08087 15.908 4.08087 15.55V4.74998H5.43216ZM6.10781 14.2V7.44998C6.10781 7.27096 6.17899 7.09927 6.3057 6.97269C6.43241 6.8461 6.60426 6.77498 6.78346 6.77498C6.96265 6.77498 7.1345 6.8461 7.26121 6.97269C7.38792 7.09927 7.4591 7.27096 7.4591 7.44998V14.2C7.4591 14.379 7.38792 14.5507 7.26121 14.6773C7.1345 14.8039 6.96265 14.875 6.78346 14.875C6.60426 14.875 6.43241 14.8039 6.3057 14.6773C6.17899 14.5507 6.10781 14.379 6.10781 14.2ZM10.1617 14.2V7.44998C10.1617 7.27096 10.2329 7.09927 10.3596 6.97269C10.4863 6.8461 10.6581 6.77498 10.8373 6.77498C11.0165 6.77498 11.1884 6.8461 11.3151 6.97269C11.4418 7.09927 11.513 7.27096 11.513 7.44998V14.2C11.513 14.379 11.4418 14.5507 11.3151 14.6773C11.1884 14.8039 11.0165 14.875 10.8373 14.875C10.6581 14.875 10.4863 14.8039 10.3596 14.6773C10.2329 14.5507 10.1617 14.379 10.1617 14.2Z" fill="#8090A7"/>
</svg>
