<svg width="378" height="238" viewBox="0 0 378 238" fill="none" xmlns="http://www.w3.org/2000/svg">
<rect x="0.5" y="0.5" width="377" height="237" rx="7.5" stroke="#DCE1E6"/>
<path d="M91.904 171V161.192H88.064V159.8H97.328V161.192H93.488V171H91.904ZM103.375 162.44C104.068 162.44 104.676 162.573 105.199 162.84C105.732 163.107 106.148 163.512 106.447 164.056C106.745 164.6 106.895 165.288 106.895 166.12V171H105.359V166.296C105.359 165.475 105.156 164.856 104.751 164.44C104.356 164.024 103.796 163.816 103.071 163.816C102.527 163.816 102.052 163.923 101.647 164.136C101.241 164.349 100.927 164.664 100.703 165.08C100.489 165.496 100.383 166.013 100.383 166.632V171H98.8466V159.128H100.383V164.808L100.079 164.2C100.356 163.645 100.783 163.213 101.359 162.904C101.935 162.595 102.607 162.44 103.375 162.44ZM113.513 171.096C112.607 171.096 111.807 170.909 111.113 170.536C110.431 170.163 109.897 169.651 109.513 169C109.14 168.349 108.953 167.603 108.953 166.76C108.953 165.917 109.135 165.171 109.497 164.52C109.871 163.869 110.377 163.363 111.017 163C111.668 162.627 112.399 162.44 113.209 162.44C114.031 162.44 114.756 162.621 115.385 162.984C116.015 163.347 116.505 163.859 116.857 164.52C117.22 165.171 117.401 165.933 117.401 166.808C117.401 166.872 117.396 166.947 117.385 167.032C117.385 167.117 117.38 167.197 117.369 167.272H110.153V166.168H116.569L115.945 166.552C115.956 166.008 115.844 165.523 115.609 165.096C115.375 164.669 115.049 164.339 114.633 164.104C114.228 163.859 113.753 163.736 113.209 163.736C112.676 163.736 112.201 163.859 111.785 164.104C111.369 164.339 111.044 164.675 110.809 165.112C110.575 165.539 110.457 166.029 110.457 166.584V166.84C110.457 167.405 110.585 167.912 110.841 168.36C111.108 168.797 111.476 169.139 111.945 169.384C112.415 169.629 112.953 169.752 113.561 169.752C114.063 169.752 114.516 169.667 114.921 169.496C115.337 169.325 115.7 169.069 116.009 168.728L116.857 169.72C116.473 170.168 115.993 170.509 115.417 170.744C114.852 170.979 114.217 171.096 113.513 171.096ZM119.534 171V162.52H121.006V164.824L120.862 164.248C121.097 163.661 121.491 163.213 122.046 162.904C122.601 162.595 123.283 162.44 124.094 162.44V163.928C124.03 163.917 123.966 163.912 123.902 163.912C123.849 163.912 123.795 163.912 123.742 163.912C122.921 163.912 122.27 164.157 121.79 164.648C121.31 165.139 121.07 165.848 121.07 166.776V171H119.534ZM129.685 171.096C128.778 171.096 127.978 170.909 127.285 170.536C126.602 170.163 126.069 169.651 125.685 169C125.312 168.349 125.125 167.603 125.125 166.76C125.125 165.917 125.306 165.171 125.669 164.52C126.042 163.869 126.549 163.363 127.189 163C127.84 162.627 128.57 162.44 129.381 162.44C130.202 162.44 130.928 162.621 131.557 162.984C132.186 163.347 132.677 163.859 133.029 164.52C133.392 165.171 133.573 165.933 133.573 166.808C133.573 166.872 133.568 166.947 133.557 167.032C133.557 167.117 133.552 167.197 133.541 167.272H126.325V166.168H132.741L132.117 166.552C132.128 166.008 132.016 165.523 131.781 165.096C131.546 164.669 131.221 164.339 130.805 164.104C130.4 163.859 129.925 163.736 129.381 163.736C128.848 163.736 128.373 163.859 127.957 164.104C127.541 164.339 127.216 164.675 126.981 165.112C126.746 165.539 126.629 166.029 126.629 166.584V166.84C126.629 167.405 126.757 167.912 127.013 168.36C127.28 168.797 127.648 169.139 128.117 169.384C128.586 169.629 129.125 169.752 129.733 169.752C130.234 169.752 130.688 169.667 131.093 169.496C131.509 169.325 131.872 169.069 132.181 168.728L133.029 169.72C132.645 170.168 132.165 170.509 131.589 170.744C131.024 170.979 130.389 171.096 129.685 171.096ZM145.267 171V169.208L145.187 168.872V165.816C145.187 165.165 144.995 164.664 144.611 164.312C144.238 163.949 143.672 163.768 142.915 163.768C142.414 163.768 141.923 163.853 141.443 164.024C140.963 164.184 140.558 164.403 140.227 164.68L139.587 163.528C140.024 163.176 140.547 162.909 141.155 162.728C141.774 162.536 142.419 162.44 143.091 162.44C144.254 162.44 145.15 162.723 145.779 163.288C146.408 163.853 146.723 164.717 146.723 165.88V171H145.267ZM142.483 171.096C141.854 171.096 141.299 170.989 140.819 170.776C140.35 170.563 139.987 170.269 139.731 169.896C139.475 169.512 139.347 169.08 139.347 168.6C139.347 168.141 139.454 167.725 139.667 167.352C139.891 166.979 140.248 166.68 140.739 166.456C141.24 166.232 141.912 166.12 142.755 166.12H145.443V167.224H142.819C142.051 167.224 141.534 167.352 141.267 167.608C141 167.864 140.867 168.173 140.867 168.536C140.867 168.952 141.032 169.288 141.363 169.544C141.694 169.789 142.152 169.912 142.739 169.912C143.315 169.912 143.816 169.784 144.243 169.528C144.68 169.272 144.995 168.899 145.187 168.408L145.491 169.464C145.288 169.965 144.931 170.365 144.419 170.664C143.907 170.952 143.262 171.096 142.483 171.096ZM149.565 171V162.52H151.037V164.824L150.893 164.248C151.128 163.661 151.523 163.213 152.077 162.904C152.632 162.595 153.315 162.44 154.125 162.44V163.928C154.061 163.917 153.997 163.912 153.933 163.912C153.88 163.912 153.827 163.912 153.773 163.912C152.952 163.912 152.301 164.157 151.821 164.648C151.341 165.139 151.101 165.848 151.101 166.776V171H149.565ZM159.716 171.096C158.81 171.096 158.01 170.909 157.316 170.536C156.634 170.163 156.1 169.651 155.716 169C155.343 168.349 155.156 167.603 155.156 166.76C155.156 165.917 155.338 165.171 155.7 164.52C156.074 163.869 156.58 163.363 157.22 163C157.871 162.627 158.602 162.44 159.412 162.44C160.234 162.44 160.959 162.621 161.588 162.984C162.218 163.347 162.708 163.859 163.06 164.52C163.423 165.171 163.604 165.933 163.604 166.808C163.604 166.872 163.599 166.947 163.588 167.032C163.588 167.117 163.583 167.197 163.572 167.272H156.356V166.168H162.772L162.148 166.552C162.159 166.008 162.047 165.523 161.812 165.096C161.578 164.669 161.252 164.339 160.836 164.104C160.431 163.859 159.956 163.736 159.412 163.736C158.879 163.736 158.404 163.859 157.988 164.104C157.572 164.339 157.247 164.675 157.012 165.112C156.778 165.539 156.66 166.029 156.66 166.584V166.84C156.66 167.405 156.788 167.912 157.044 168.36C157.311 168.797 157.679 169.139 158.148 169.384C158.618 169.629 159.156 169.752 159.764 169.752C160.266 169.752 160.719 169.667 161.124 169.496C161.54 169.325 161.903 169.069 162.212 168.728L163.06 169.72C162.676 170.168 162.196 170.509 161.62 170.744C161.055 170.979 160.42 171.096 159.716 171.096ZM174.562 162.44C175.255 162.44 175.863 162.573 176.386 162.84C176.919 163.107 177.335 163.512 177.634 164.056C177.933 164.6 178.082 165.288 178.082 166.12V171H176.546V166.296C176.546 165.475 176.343 164.856 175.938 164.44C175.543 164.024 174.983 163.816 174.258 163.816C173.714 163.816 173.239 163.923 172.834 164.136C172.429 164.349 172.114 164.664 171.89 165.08C171.677 165.496 171.57 166.013 171.57 166.632V171H170.034V162.52H171.506V164.808L171.266 164.2C171.543 163.645 171.97 163.213 172.546 162.904C173.122 162.595 173.794 162.44 174.562 162.44ZM184.557 171.096C183.703 171.096 182.946 170.909 182.285 170.536C181.623 170.163 181.101 169.651 180.717 169C180.333 168.339 180.141 167.592 180.141 166.76C180.141 165.917 180.333 165.171 180.717 164.52C181.101 163.869 181.623 163.363 182.285 163C182.946 162.627 183.703 162.44 184.557 162.44C185.399 162.44 186.151 162.627 186.813 163C187.485 163.363 188.007 163.869 188.381 164.52C188.765 165.16 188.957 165.907 188.957 166.76C188.957 167.603 188.765 168.349 188.381 169C188.007 169.651 187.485 170.163 186.813 170.536C186.151 170.909 185.399 171.096 184.557 171.096ZM184.557 169.752C185.101 169.752 185.586 169.629 186.013 169.384C186.45 169.139 186.791 168.792 187.037 168.344C187.282 167.885 187.405 167.357 187.405 166.76C187.405 166.152 187.282 165.629 187.037 165.192C186.791 164.744 186.45 164.397 186.013 164.152C185.586 163.907 185.101 163.784 184.557 163.784C184.013 163.784 183.527 163.907 183.101 164.152C182.674 164.397 182.333 164.744 182.077 165.192C181.821 165.629 181.693 166.152 181.693 166.76C181.693 167.357 181.821 167.885 182.077 168.344C182.333 168.792 182.674 169.139 183.101 169.384C183.527 169.629 184.013 169.752 184.557 169.752ZM199.154 171.096C198.247 171.096 197.447 170.909 196.754 170.536C196.071 170.163 195.538 169.651 195.154 169C194.781 168.349 194.594 167.603 194.594 166.76C194.594 165.917 194.775 165.171 195.138 164.52C195.511 163.869 196.018 163.363 196.658 163C197.309 162.627 198.039 162.44 198.85 162.44C199.671 162.44 200.397 162.621 201.026 162.984C201.655 163.347 202.146 163.859 202.498 164.52C202.861 165.171 203.042 165.933 203.042 166.808C203.042 166.872 203.037 166.947 203.026 167.032C203.026 167.117 203.021 167.197 203.01 167.272H195.794V166.168H202.21L201.586 166.552C201.597 166.008 201.485 165.523 201.25 165.096C201.015 164.669 200.69 164.339 200.274 164.104C199.869 163.859 199.394 163.736 198.85 163.736C198.317 163.736 197.842 163.859 197.426 164.104C197.01 164.339 196.685 164.675 196.45 165.112C196.215 165.539 196.098 166.029 196.098 166.584V166.84C196.098 167.405 196.226 167.912 196.482 168.36C196.749 168.797 197.117 169.139 197.586 169.384C198.055 169.629 198.594 169.752 199.202 169.752C199.703 169.752 200.157 169.667 200.562 169.496C200.978 169.325 201.341 169.069 201.65 168.728L202.498 169.72C202.114 170.168 201.634 170.509 201.058 170.744C200.493 170.979 199.858 171.096 199.154 171.096ZM207.243 171L203.53 162.52H205.131L208.427 170.2H207.659L211.019 162.52H212.523L208.811 171H207.243ZM217.498 171.096C216.591 171.096 215.791 170.909 215.098 170.536C214.415 170.163 213.882 169.651 213.498 169C213.124 168.349 212.938 167.603 212.938 166.76C212.938 165.917 213.119 165.171 213.482 164.52C213.855 163.869 214.362 163.363 215.002 163C215.652 162.627 216.383 162.44 217.194 162.44C218.015 162.44 218.74 162.621 219.37 162.984C219.999 163.347 220.49 163.859 220.842 164.52C221.204 165.171 221.386 165.933 221.386 166.808C221.386 166.872 221.38 166.947 221.37 167.032C221.37 167.117 221.364 167.197 221.354 167.272H214.138V166.168H220.554L219.93 166.552C219.94 166.008 219.828 165.523 219.594 165.096C219.359 164.669 219.034 164.339 218.618 164.104C218.212 163.859 217.738 163.736 217.194 163.736C216.66 163.736 216.186 163.859 215.77 164.104C215.354 164.339 215.028 164.675 214.794 165.112C214.559 165.539 214.442 166.029 214.442 166.584V166.84C214.442 167.405 214.57 167.912 214.826 168.36C215.092 168.797 215.46 169.139 215.93 169.384C216.399 169.629 216.938 169.752 217.546 169.752C218.047 169.752 218.5 169.667 218.906 169.496C219.322 169.325 219.684 169.069 219.994 168.728L220.842 169.72C220.458 170.168 219.978 170.509 219.402 170.744C218.836 170.979 218.202 171.096 217.498 171.096ZM228.047 162.44C228.74 162.44 229.348 162.573 229.871 162.84C230.404 163.107 230.82 163.512 231.119 164.056C231.417 164.6 231.567 165.288 231.567 166.12V171H230.031V166.296C230.031 165.475 229.828 164.856 229.423 164.44C229.028 164.024 228.468 163.816 227.743 163.816C227.199 163.816 226.724 163.923 226.319 164.136C225.913 164.349 225.599 164.664 225.375 165.08C225.161 165.496 225.055 166.013 225.055 166.632V171H223.519V162.52H224.991V164.808L224.751 164.2C225.028 163.645 225.455 163.213 226.031 162.904C226.607 162.595 227.279 162.44 228.047 162.44ZM237.321 171.096C236.468 171.096 235.806 170.867 235.337 170.408C234.868 169.949 234.633 169.293 234.633 168.44V160.664H236.169V168.376C236.169 168.835 236.281 169.187 236.505 169.432C236.74 169.677 237.07 169.8 237.497 169.8C237.977 169.8 238.377 169.667 238.697 169.4L239.177 170.504C238.942 170.707 238.66 170.856 238.329 170.952C238.009 171.048 237.673 171.096 237.321 171.096ZM233.193 163.784V162.52H238.601V163.784H233.193ZM243.466 171.096C242.762 171.096 242.09 171 241.45 170.808C240.821 170.616 240.325 170.381 239.962 170.104L240.602 168.888C240.965 169.133 241.413 169.341 241.946 169.512C242.479 169.683 243.023 169.768 243.578 169.768C244.293 169.768 244.805 169.667 245.114 169.464C245.434 169.261 245.594 168.979 245.594 168.616C245.594 168.349 245.498 168.141 245.306 167.992C245.114 167.843 244.858 167.731 244.538 167.656C244.229 167.581 243.882 167.517 243.498 167.464C243.114 167.4 242.73 167.325 242.346 167.24C241.962 167.144 241.61 167.016 241.29 166.856C240.97 166.685 240.714 166.456 240.522 166.168C240.33 165.869 240.234 165.475 240.234 164.984C240.234 164.472 240.378 164.024 240.666 163.64C240.954 163.256 241.359 162.963 241.882 162.76C242.415 162.547 243.045 162.44 243.77 162.44C244.325 162.44 244.885 162.509 245.45 162.648C246.026 162.776 246.495 162.963 246.858 163.208L246.202 164.424C245.818 164.168 245.418 163.992 245.002 163.896C244.586 163.8 244.17 163.752 243.754 163.752C243.082 163.752 242.581 163.864 242.25 164.088C241.919 164.301 241.754 164.579 241.754 164.92C241.754 165.208 241.85 165.432 242.042 165.592C242.245 165.741 242.501 165.859 242.81 165.944C243.13 166.029 243.482 166.104 243.866 166.168C244.25 166.221 244.634 166.296 245.018 166.392C245.402 166.477 245.749 166.6 246.058 166.76C246.378 166.92 246.634 167.144 246.826 167.432C247.029 167.72 247.13 168.104 247.13 168.584C247.13 169.096 246.981 169.539 246.682 169.912C246.383 170.285 245.962 170.579 245.418 170.792C244.874 170.995 244.223 171.096 243.466 171.096ZM256.259 171.096C255.405 171.096 254.744 170.867 254.275 170.408C253.805 169.949 253.571 169.293 253.571 168.44V160.664H255.107V168.376C255.107 168.835 255.219 169.187 255.443 169.432C255.677 169.677 256.008 169.8 256.435 169.8C256.915 169.8 257.315 169.667 257.635 169.4L258.115 170.504C257.88 170.707 257.597 170.856 257.267 170.952C256.947 171.048 256.611 171.096 256.259 171.096ZM252.131 163.784V162.52H257.539V163.784H252.131ZM263.322 171.096C262.469 171.096 261.712 170.909 261.05 170.536C260.389 170.163 259.866 169.651 259.482 169C259.098 168.339 258.906 167.592 258.906 166.76C258.906 165.917 259.098 165.171 259.482 164.52C259.866 163.869 260.389 163.363 261.05 163C261.712 162.627 262.469 162.44 263.322 162.44C264.165 162.44 264.917 162.627 265.578 163C266.25 163.363 266.773 163.869 267.146 164.52C267.53 165.16 267.722 165.907 267.722 166.76C267.722 167.603 267.53 168.349 267.146 169C266.773 169.651 266.25 170.163 265.578 170.536C264.917 170.909 264.165 171.096 263.322 171.096ZM263.322 169.752C263.866 169.752 264.352 169.629 264.778 169.384C265.216 169.139 265.557 168.792 265.802 168.344C266.048 167.885 266.17 167.357 266.17 166.76C266.17 166.152 266.048 165.629 265.802 165.192C265.557 164.744 265.216 164.397 264.778 164.152C264.352 163.907 263.866 163.784 263.322 163.784C262.778 163.784 262.293 163.907 261.866 164.152C261.44 164.397 261.098 164.744 260.842 165.192C260.586 165.629 260.458 166.152 260.458 166.76C260.458 167.357 260.586 167.885 260.842 168.344C261.098 168.792 261.44 169.139 261.866 169.384C262.293 169.629 262.778 169.752 263.322 169.752ZM273.351 171.096C272.529 171.096 271.793 170.915 271.143 170.552C270.503 170.189 269.996 169.683 269.623 169.032C269.249 168.381 269.063 167.624 269.063 166.76C269.063 165.896 269.249 165.144 269.623 164.504C269.996 163.853 270.503 163.347 271.143 162.984C271.793 162.621 272.529 162.44 273.351 162.44C274.065 162.44 274.711 162.6 275.287 162.92C275.863 163.24 276.321 163.72 276.663 164.36C277.015 165 277.191 165.8 277.191 166.76C277.191 167.72 277.02 168.52 276.679 169.16C276.348 169.8 275.895 170.285 275.319 170.616C274.743 170.936 274.087 171.096 273.351 171.096ZM273.479 169.752C274.012 169.752 274.492 169.629 274.919 169.384C275.356 169.139 275.697 168.792 275.943 168.344C276.199 167.885 276.327 167.357 276.327 166.76C276.327 166.152 276.199 165.629 275.943 165.192C275.697 164.744 275.356 164.397 274.919 164.152C274.492 163.907 274.012 163.784 273.479 163.784C272.935 163.784 272.449 163.907 272.023 164.152C271.596 164.397 271.255 164.744 270.999 165.192C270.743 165.629 270.615 166.152 270.615 166.76C270.615 167.357 270.743 167.885 270.999 168.344C271.255 168.792 271.596 169.139 272.023 169.384C272.449 169.629 272.935 169.752 273.479 169.752ZM276.375 171V168.712L276.471 166.744L276.311 164.776V159.128H277.847V171H276.375ZM286.017 171V169.208L285.937 168.872V165.816C285.937 165.165 285.745 164.664 285.361 164.312C284.988 163.949 284.422 163.768 283.665 163.768C283.164 163.768 282.673 163.853 282.193 164.024C281.713 164.184 281.308 164.403 280.977 164.68L280.337 163.528C280.774 163.176 281.297 162.909 281.905 162.728C282.524 162.536 283.169 162.44 283.841 162.44C285.004 162.44 285.9 162.723 286.529 163.288C287.158 163.853 287.473 164.717 287.473 165.88V171H286.017ZM283.233 171.096C282.604 171.096 282.049 170.989 281.569 170.776C281.1 170.563 280.737 170.269 280.481 169.896C280.225 169.512 280.097 169.08 280.097 168.6C280.097 168.141 280.204 167.725 280.417 167.352C280.641 166.979 280.998 166.68 281.489 166.456C281.99 166.232 282.662 166.12 283.505 166.12H286.193V167.224H283.569C282.801 167.224 282.284 167.352 282.017 167.608C281.75 167.864 281.617 168.173 281.617 168.536C281.617 168.952 281.782 169.288 282.113 169.544C282.444 169.789 282.902 169.912 283.489 169.912C284.065 169.912 284.566 169.784 284.993 169.528C285.43 169.272 285.745 168.899 285.937 168.408L286.241 169.464C286.038 169.965 285.681 170.365 285.169 170.664C284.657 170.952 284.012 171.096 283.233 171.096ZM290.527 174.2C290.122 174.2 289.727 174.131 289.343 173.992C288.959 173.864 288.628 173.672 288.351 173.416L289.007 172.264C289.22 172.467 289.455 172.621 289.711 172.728C289.967 172.835 290.239 172.888 290.527 172.888C290.9 172.888 291.21 172.792 291.455 172.6C291.7 172.408 291.93 172.067 292.143 171.576L292.671 170.408L292.831 170.216L296.159 162.52H297.663L293.551 171.848C293.306 172.445 293.028 172.915 292.719 173.256C292.42 173.597 292.09 173.837 291.727 173.976C291.364 174.125 290.964 174.2 290.527 174.2ZM292.543 171.272L288.671 162.52H290.271L293.567 170.072L292.543 171.272Z" fill="#8090A7"/>
<g clip-path="url(#clip0_364_702)">
<path d="M160.25 130.048H221.75C227.353 130.048 232 125.424 232 119.848V80.1359C232 74.5599 227.353 69.9359 221.75 69.9359H217.787V67.3519C217.787 65.4479 216.283 63.9519 214.37 63.9519C212.457 63.9519 210.953 65.4479 210.953 67.3519V69.9359H171.047V67.3519C171.047 65.4479 169.543 63.9519 167.63 63.9519C165.717 63.9519 164.213 65.4479 164.213 67.3519V69.9359H160.25C154.647 69.9359 150 74.5599 150 80.1359V119.848C150 125.424 154.647 130.048 160.25 130.048ZM156.833 80.1359C156.833 78.2319 158.337 76.7359 160.25 76.7359H164.213V80.4079C164.213 82.3119 165.717 83.8079 167.63 83.8079C169.543 83.8079 171.047 82.3119 171.047 80.4079V76.7359H210.953V80.4079C210.953 82.3119 212.457 83.8079 214.37 83.8079C216.283 83.8079 217.787 82.3119 217.787 80.4079V76.7359H221.75C223.663 76.7359 225.167 78.2319 225.167 80.1359V119.848C225.167 121.752 223.663 123.248 221.75 123.248H160.25C158.337 123.248 156.833 121.752 156.833 119.848V80.1359ZM183.347 103.936L186.217 101.08L183.347 98.2239C181.98 96.8639 181.98 94.6879 183.347 93.4639C184.713 92.1039 186.9 92.1039 188.13 93.4639L191 96.3199L193.87 93.4639C195.237 92.1039 197.423 92.1039 198.653 93.4639C200.02 94.8239 200.02 96.9999 198.653 98.2239L195.783 101.08L198.653 103.936C200.02 105.296 200.02 107.472 198.653 108.696C197.97 109.376 197.15 109.648 196.193 109.648C195.237 109.648 194.417 109.376 193.733 108.696L191 105.84L188.13 108.696C187.447 109.376 186.627 109.648 185.67 109.648C184.713 109.648 183.893 109.376 183.21 108.696C181.98 107.472 181.98 105.296 183.347 103.936Z" fill="#DCE1E6"/>
</g>
<defs>
<clipPath id="clip0_364_702">
<rect width="82" height="68" fill="white" transform="translate(150 63)"/>
</clipPath>
</defs>
</svg>
