<svg width="21" height="19" viewBox="0 0 21 19" fill="none" xmlns="http://www.w3.org/2000/svg">
<path fill-rule="evenodd" clip-rule="evenodd" d="M14.2758 0.400391L7.34199 0.406983C6.2308 0.409498 5.20326 1.01121 4.6311 1.9709L0.982504 8.0838C0.409422 9.04294 0.36642 10.2308 0.891651 11.21L4.17685 17.318C4.70418 18.2994 5.73638 18.908 6.85043 18.9063L13.7794 18.8997C13.7815 18.8997 13.7837 18.8997 13.7858 18.8997C14.897 18.8972 15.9246 18.3019 16.4967 17.3423L20.1437 11.2294C20.7168 10.2702 20.7549 9.08074 20.2297 8.10154L16.9445 1.99513C16.9445 1.99459 16.9445 1.99567 16.9445 1.99513C16.9445 1.99459 16.9445 1.99243 16.9445 1.99189C16.9445 1.99134 16.9445 1.99243 16.9445 1.99189C16.9445 1.99134 16.9445 1.98918 16.9445 1.98864C16.6835 1.50745 16.2986 1.10718 15.8283 0.828683C15.3612 0.548965 14.8212 0.401678 14.2758 0.400391ZM14.2758 2.06165C14.5265 2.06224 14.7655 2.12541 14.975 2.25145C14.9772 2.25366 14.9793 2.25586 14.9815 2.25805C15.1919 2.38265 15.3649 2.56492 15.4844 2.7853L18.7712 8.88684H18.7647C19.0062 9.33705 18.9968 9.90632 18.7161 10.3761L15.0675 16.4906C14.7872 16.9607 14.2902 17.2422 13.7794 17.2434L6.84556 17.25C6.33336 17.2506 5.88587 16.9774 5.64342 16.5262L2.3566 10.4263V10.4197C2.11817 9.97038 2.12571 9.40318 2.40528 8.93531C2.40746 8.93312 2.40962 8.93092 2.41178 8.92871L6.05388 2.82231C6.33412 2.35245 6.83109 2.06929 7.34199 2.06813L14.2758 2.06165ZM10.5607 5.65508C8.36282 5.65508 6.56328 7.45462 6.56328 9.65247C6.56328 11.8503 8.36282 13.6499 10.5607 13.6499C12.7585 13.6499 14.5581 11.8503 14.5581 9.65247C14.5581 7.45462 12.7585 5.65508 10.5607 5.65508ZM10.5607 7.31633C11.8607 7.31633 12.8968 8.35242 12.8968 9.65247C12.8968 10.9525 11.8607 11.9886 10.5607 11.9886C9.26062 11.9886 8.22453 10.9525 8.22453 9.65247C8.22453 8.35242 9.26062 7.31633 10.5607 7.31633Z" fill="#8090A7"/>
</svg>
