<svg width="16" height="16" viewBox="0 0 16 16" fill="none" xmlns="http://www.w3.org/2000/svg">
<path d="M8.00061 0.222656C3.70941 0.222656 0.224609 3.70746 0.224609 7.99866C0.224609 12.2899 3.70941 15.7747 8.00061 15.7747C12.2918 15.7747 15.7766 12.2899 15.7766 7.99866C15.7766 3.70746 12.2918 0.222656 8.00061 0.222656ZM10.0982 10.7657C10.112 10.8473 10.0262 10.9094 9.95295 10.8708L8.04723 9.86643C8.01805 9.85105 7.98317 9.85105 7.95399 9.86643L6.04827 10.8708C5.97502 10.9094 5.88926 10.8473 5.90304 10.7657L6.26394 8.62605C6.26937 8.59384 6.25874 8.56101 6.23545 8.53811L4.68842 7.01687C4.62944 6.95888 4.66236 6.85843 4.74422 6.8466L6.88292 6.53739C6.91553 6.53267 6.94372 6.5122 6.95829 6.48266L7.91093 4.55164C7.94761 4.4773 8.05361 4.4773 8.09029 4.55164L9.04293 6.48266C9.0575 6.5122 9.08569 6.53267 9.1183 6.53739L11.257 6.8466C11.3389 6.85843 11.3718 6.95888 11.3128 7.01687L9.76577 8.53811C9.74248 8.56101 9.73185 8.59384 9.73728 8.62605L10.0982 10.7657Z" fill="#3F4458"/>
</svg>
