<svg width="16" height="16" viewBox="0 0 16 16" fill="none" xmlns="http://www.w3.org/2000/svg">
<path fill-rule="evenodd" clip-rule="evenodd" d="M7.99904 0.423828C3.82322 0.423828 0.423279 3.82377 0.423279 7.99959C0.423279 12.1754 3.82322 15.5753 7.99904 15.5753C12.1749 15.5753 15.5748 12.1754 15.5748 7.99959C15.5748 3.82377 12.1749 0.423828 7.99904 0.423828ZM7.99904 1.80124C11.4304 1.80124 14.1974 4.56818 14.1974 7.99959C14.1974 11.431 11.4304 14.1979 7.99904 14.1979C4.56762 14.1979 1.80069 11.431 1.80069 7.99959C1.80069 4.56818 4.56762 1.80124 7.99904 1.80124ZM7.98829 3.85794C7.80587 3.86079 7.63203 3.93589 7.50492 4.06678C7.37782 4.19766 7.30783 4.37363 7.31033 4.55606V9.10125C7.30904 9.19251 7.3259 9.28312 7.35993 9.3678C7.39396 9.45249 7.44449 9.52957 7.50857 9.59457C7.57265 9.65956 7.64901 9.71117 7.73321 9.74639C7.81741 9.78162 7.90777 9.79976 7.99904 9.79976C8.09031 9.79976 8.18067 9.78162 8.26487 9.74639C8.34907 9.71117 8.42542 9.65956 8.4895 9.59457C8.55359 9.52957 8.60411 9.45249 8.63814 9.3678C8.67217 9.28312 8.68903 9.19251 8.68774 9.10125V4.55606C8.689 4.46392 8.67176 4.37246 8.63704 4.2871C8.60232 4.20174 8.55082 4.12422 8.4856 4.05912C8.42038 3.99403 8.34276 3.94268 8.25733 3.90812C8.17191 3.87356 8.08043 3.8565 7.98829 3.85794ZM7.99904 10.7544C7.81638 10.7544 7.64121 10.827 7.51205 10.9561C7.38289 11.0853 7.31033 11.2605 7.31033 11.4431C7.31033 11.6258 7.38289 11.8009 7.51205 11.9301C7.64121 12.0593 7.81638 12.1318 7.99904 12.1318C8.18169 12.1318 8.35687 12.0593 8.48602 11.9301C8.61518 11.8009 8.68774 11.6258 8.68774 11.4431C8.68774 11.2605 8.61518 11.0853 8.48602 10.9561C8.35687 10.827 8.18169 10.7544 7.99904 10.7544Z" fill="#3F4458"/>
</svg>
