<svg xmlns="http://www.w3.org/2000/svg" width="20" height="20" viewBox="0 0 20 20" fill="none">
  <path d="M17.0727 15.7193L14.9963 12.1356C15.0541 12.0738 15.128 12.0256 15.2149 11.9954C15.7707 11.8035 16.2226 11.3215 16.4232 10.7056C16.624 10.0897 16.543 9.43505 16.2063 8.95456C16.0748 8.76709 16.0748 8.53409 16.2063 8.34663C16.5427 7.86584 16.6237 7.21119 16.4232 6.59557C16.2223 5.97965 15.7707 5.49768 15.2149 5.30578C14.998 5.23097 14.8607 5.04232 14.8562 4.81376C14.8449 4.22771 14.5245 3.65082 13.9987 3.26998C13.4729 2.88943 12.8231 2.76376 12.2605 2.93437C12.041 3.0009 11.8187 2.92875 11.6801 2.74661C11.3253 2.27913 10.7256 2 10.0758 2C9.42599 2 8.82633 2.27913 8.47175 2.74661C8.33348 2.92905 8.11094 3.0012 7.89137 2.93467C7.3285 2.76406 6.67869 2.88972 6.15321 3.27027C5.62772 3.65082 5.30697 4.228 5.2957 4.81405C5.29125 5.04262 5.15387 5.23127 4.93697 5.30608C4.38122 5.49768 3.92961 5.97995 3.72874 6.59586C3.52786 7.21178 3.60886 7.86643 3.94564 8.34692C4.07679 8.53439 4.07708 8.76739 3.94564 8.95485C3.60916 9.43564 3.52816 10.0903 3.72874 10.7059C3.92961 11.3218 4.38122 11.8038 4.93697 11.9957C5.02391 12.0256 5.09779 12.0741 5.15565 12.1359L3.07922 15.7196C2.96439 15.9177 2.97508 16.1572 3.10682 16.3444C3.23856 16.5315 3.4611 16.6229 3.68749 16.5824L5.68766 16.2249L6.37723 18.13C6.45527 18.3453 6.64576 18.4916 6.87453 18.512C6.89233 18.5135 6.91013 18.5144 6.92794 18.5144C7.13593 18.5144 7.32553 18.4062 7.43117 18.2235L9.22363 15.1297C9.48415 15.2409 9.77434 15.3015 10.0758 15.3015C10.3773 15.3015 10.6675 15.2406 10.928 15.1297L12.7204 18.2235C12.8264 18.4062 13.0157 18.5144 13.224 18.5144C13.2418 18.5144 13.2596 18.5135 13.2774 18.512C13.5061 18.4919 13.6966 18.3456 13.7744 18.13L14.4639 16.2249L16.4644 16.5824C16.6905 16.6223 16.913 16.5315 17.0448 16.3441C17.1768 16.1566 17.1875 15.9171 17.0727 15.7193ZM6.98164 17.311L6.36328 15.6028C6.29326 15.4091 6.09298 15.2944 5.89002 15.3305L4.09667 15.651L5.48738 13.2506C5.63485 13.5495 5.86243 13.8201 6.15321 14.0306C6.67869 14.4112 7.3285 14.5368 7.89137 14.3662C8.11094 14.2997 8.33348 14.3715 8.47175 14.554C8.49163 14.5803 8.5127 14.6057 8.53406 14.6309L6.98164 17.311ZM9.14738 14.0451C8.88003 13.6926 8.4765 13.4978 8.05338 13.4978C7.91808 13.4978 7.7807 13.5176 7.6454 13.5587C7.33503 13.6524 6.96354 13.5738 6.65139 13.3476C6.33925 13.1217 6.14906 12.7938 6.14282 12.4706C6.13155 11.8878 5.76718 11.3881 5.2144 11.1973C4.90789 11.0915 4.6539 10.81 4.53462 10.4445C4.41534 10.0788 4.4548 9.70235 4.64055 9.43712C4.97524 8.95899 4.97524 8.3413 4.64055 7.86318C4.4551 7.59824 4.41534 7.22154 4.53462 6.85577C4.6539 6.49001 4.90789 6.20851 5.2144 6.10295C5.76718 5.91223 6.13155 5.41252 6.14282 4.82943C6.14906 4.50624 6.33925 4.17862 6.65139 3.95242C6.96354 3.72652 7.33503 3.64757 7.6454 3.7416C8.2053 3.91132 8.79488 3.72001 9.14767 3.25519C9.34321 2.99735 9.69037 2.8436 10.0761 2.8436C10.4621 2.8436 10.8093 2.99735 11.0048 3.25519C11.3576 3.72031 11.9472 3.91132 12.5071 3.7416C12.8175 3.64757 13.189 3.72652 13.5011 3.95272C13.8132 4.17862 14.0034 4.50654 14.0097 4.82972C14.0209 5.41252 14.3853 5.91253 14.9381 6.10325C15.2446 6.2091 15.4986 6.4903 15.6179 6.85607C15.7372 7.22183 15.6977 7.59824 15.5119 7.86347C15.1773 8.3416 15.1773 8.95958 15.5119 9.43741C15.6974 9.70235 15.7372 10.0791 15.6179 10.4445C15.4986 10.8103 15.2446 11.0918 14.9381 11.1973C14.3853 11.3881 14.0209 11.8878 14.0097 12.4706C14.0034 12.7938 13.8132 13.1217 13.5011 13.3476C13.189 13.5735 12.8175 13.6524 12.5071 13.5584C11.9472 13.389 11.3576 13.5797 11.0048 14.0448C10.8093 14.3026 10.4621 14.4564 10.0764 14.4564C9.69007 14.457 9.34291 14.3029 9.14738 14.0451ZM14.2619 15.3308C14.0589 15.2941 13.8586 15.4094 13.7886 15.6031L13.1706 17.311L11.6178 14.6312C11.6392 14.606 11.6603 14.5806 11.6801 14.5543C11.8184 14.3718 12.041 14.3 12.2605 14.3665C12.8234 14.5368 13.4729 14.4115 13.9987 14.0309C14.2895 13.8204 14.5171 13.5498 14.6645 13.2509L16.0552 15.6513L14.2619 15.3308ZM14.2239 8.6503C14.2239 6.37114 12.3632 4.51689 10.0761 4.51689C7.78901 4.51689 5.9283 6.37114 5.9283 8.6503C5.9283 10.9295 7.78901 12.7837 10.0761 12.7837C12.3632 12.7837 14.2239 10.9295 14.2239 8.6503ZM10.0761 11.9395C8.25604 11.9395 6.77542 10.464 6.77542 8.6503C6.77542 6.83655 8.25604 5.36107 10.0761 5.36107C11.8962 5.36107 13.3768 6.83655 13.3768 8.6503C13.3768 10.464 11.8959 11.9395 10.0761 11.9395ZM12.5629 8.0536C12.5101 7.89186 12.3656 7.77772 12.1955 7.76353L10.9505 7.65945L10.4666 6.51189C10.4004 6.35517 10.2467 6.25346 10.0761 6.25346C9.90549 6.25346 9.75179 6.35547 9.68562 6.51189L9.20138 7.65945L7.95635 7.76353C7.78634 7.77772 7.64184 7.89215 7.58902 8.0536C7.5362 8.21504 7.58605 8.39246 7.71512 8.50334L8.66076 9.31677L8.37561 10.5288C8.33674 10.6941 8.40113 10.8668 8.53911 10.9664C8.61299 11.0199 8.70052 11.0471 8.78805 11.0471C8.86371 11.0471 8.93968 11.027 9.00733 10.9862L10.0758 10.3413L11.1443 10.9862C11.2903 11.0743 11.4748 11.0667 11.6125 10.9667C11.7505 10.8668 11.8149 10.6944 11.776 10.5288L11.4908 9.31677L12.4365 8.50334C12.5658 8.39246 12.6154 8.21534 12.5629 8.0536ZM10.7434 8.84515C10.6241 8.94776 10.5719 9.10802 10.6078 9.26089L10.7215 9.74434L10.2954 9.48709C10.1607 9.40578 9.99154 9.40578 9.85653 9.48709L9.43015 9.74434L9.54379 9.26089C9.57969 9.10802 9.52747 8.94776 9.40819 8.84515L9.03106 8.52079L9.52777 8.47909C9.68503 8.46608 9.82152 8.36703 9.88264 8.22214L10.0758 7.76442L10.269 8.22214C10.3301 8.36703 10.4669 8.46608 10.6238 8.47909L11.1205 8.52079L10.7434 8.84515Z" fill="#131627"/>
</svg>
