<svg width="20" height="20" viewBox="0 0 20 20" fill="none" xmlns="http://www.w3.org/2000/svg">
<g id="contract-01 1">
<path id="Vector" d="M9.76043 3.90127C9.76043 3.70292 9.6034 3.5459 9.40506 3.5459H5.22324C3.98357 3.5459 2.96704 4.55416 2.96704 5.8021V14.2566C2.96704 15.4963 3.97531 16.5046 5.22324 16.5046H14.3803C15.6199 16.5046 16.6282 15.4963 16.6282 14.2566V10.9013C16.6282 10.7029 16.4712 10.5459 16.2728 10.5459C16.0745 10.5459 15.9175 10.7029 15.9175 10.9013V14.2566C15.9175 15.1079 15.2232 15.8021 14.372 15.8021H5.2315C4.38026 15.8021 3.68605 15.1079 3.68605 14.2566V5.8021C3.68605 4.95086 4.38026 4.25664 5.2315 4.25664H9.41332C9.61167 4.25664 9.76869 4.09962 9.76869 3.90953L9.76043 3.90127Z" fill="#8090A7" stroke="#8090A7" stroke-width="0.5" stroke-miterlimit="10"/>
<path id="Vector_2" d="M12.4136 12.703C12.5293 12.703 12.6285 12.6452 12.6946 12.5543L13.7111 11.1411C13.7525 11.0832 13.7772 11.0088 13.7772 10.9344V3.60386C13.7772 3.15758 13.4136 2.79395 12.9673 2.79395H11.8434C11.3971 2.79395 11.0334 3.15758 11.0334 3.60386V10.9427C11.0334 11.0171 11.0582 11.0915 11.0996 11.1493L12.1161 12.5625C12.1822 12.6535 12.2896 12.7113 12.4053 12.7113L12.4136 12.703ZM11.7442 3.60386C11.7442 3.54601 11.7938 3.49642 11.8516 3.49642H12.9756C13.0334 3.49642 13.083 3.54601 13.083 3.60386V10.827L12.4136 11.7526L11.7442 10.827V3.60386Z" fill="#8090A7" stroke="#8090A7" stroke-width="0.5" stroke-miterlimit="10"/>
<path id="Vector_3" d="M8.97442 7.10742H5.61904C5.4207 7.10742 5.26367 7.26445 5.26367 7.46279C5.26367 7.66114 5.4207 7.81817 5.61904 7.81817H8.97442C9.17276 7.81817 9.32979 7.66114 9.32979 7.46279C9.32979 7.26445 9.17276 7.10742 8.97442 7.10742Z" fill="#8090A7" stroke="#8090A7" stroke-width="0.5" stroke-miterlimit="10"/>
<path id="Vector_4" d="M8.97442 9.46289H5.61904C5.4207 9.46289 5.26367 9.61991 5.26367 9.81826C5.26367 10.0166 5.4207 10.1736 5.61904 10.1736H8.97442C9.17276 10.1736 9.32979 10.0166 9.32979 9.81826C9.32979 9.61991 9.17276 9.46289 8.97442 9.46289Z" fill="#8090A7" stroke="#8090A7" stroke-width="0.5" stroke-miterlimit="10"/>
</g>
</svg>
