<svg width="24" height="24" viewBox="0 0 24 24" fill="currentColor" xmlns="http://www.w3.org/2000/svg">
<path d="M4.57504 12C4.57504 10.4325 5.84921 9.15829 7.41671 9.15829H11.0834V7.41663H7.41671C4.88671 7.41663 2.83337 9.46996 2.83337 12C2.83337 14.53 4.88671 16.5833 7.41671 16.5833H11.0834V14.8416H7.41671C5.84921 14.8416 4.57504 13.5675 4.57504 12ZM8.33337 12.9166H15.6667V11.0833H8.33337V12.9166ZM16.5834 7.41663H12.9167V9.15829H16.5834C18.1509 9.15829 19.425 10.4325 19.425 12C19.425 13.5675 18.1509 14.8416 16.5834 14.8416H12.9167V16.5833H16.5834C19.1134 16.5833 21.1667 14.53 21.1667 12C21.1667 9.46996 19.1134 7.41663 16.5834 7.41663Z" fill="#8090A7"/>
</svg>
