<svg width="24" height="24" viewBox="0 0 24 24" fill="currentColor" xmlns="http://www.w3.org/2000/svg">
<path d="M16.125 6.49996V17.0416C16.125 19.0675 14.4841 20.7083 12.4583 20.7083C10.4325 20.7083 8.79163 19.0675 8.79163 17.0416V5.58329C8.79163 4.31829 9.81829 3.29163 11.0833 3.29163C12.3483 3.29163 13.375 4.31829 13.375 5.58329V15.2083C13.375 15.7125 12.9625 16.125 12.4583 16.125C11.9541 16.125 11.5416 15.7125 11.5416 15.2083V6.49996H10.1666V15.2083C10.1666 16.4733 11.1933 17.5 12.4583 17.5C13.7233 17.5 14.75 16.4733 14.75 15.2083V5.58329C14.75 3.55746 13.1091 1.91663 11.0833 1.91663C9.05746 1.91663 7.41663 3.55746 7.41663 5.58329V17.0416C7.41663 19.8283 9.67163 22.0833 12.4583 22.0833C15.245 22.0833 17.5 19.8283 17.5 17.0416V6.49996H16.125Z" fill="#8090A7"/>
</svg>
