<svg width="20" height="20" viewBox="0 0 20 20" fill="currentColor" xmlns="http://www.w3.org/2000/svg">
<path d="M9.85611 4.82572L0.856116 8.22572C0.708196 8.28436 0.603516 8.43846 0.603516 8.5976C0.603516 8.75672 0.708196 8.91083 0.856116 8.96947L1.99988 9.40072V11.557C1.8781 11.6668 1.79988 11.8238 1.79988 12.0007C1.79988 12.3321 2.06852 12.6007 2.39988 12.6007C2.73124 12.6007 2.99988 12.3321 2.99988 12.0007C2.99988 11.8238 2.92166 11.6668 2.79988 11.557V9.70073L4.18112 10.2257L3.99988 12.7695C3.97002 13.1874 4.23382 13.5096 4.56238 13.7757C4.89094 14.0418 5.3315 14.2736 5.86864 14.482C6.94288 14.8988 8.39861 15.2007 9.99987 15.2007C11.6011 15.2007 13.0569 14.8988 14.1311 14.482C14.6683 14.2736 15.1088 14.0418 15.4374 13.7757C15.7659 13.5096 16.0297 13.1874 15.9999 12.7695L15.8186 10.2257L19.1436 8.96947C19.2916 8.91083 19.3962 8.75672 19.3962 8.5976C19.3962 8.43846 19.2916 8.28436 19.1436 8.22572L10.1436 4.82572C10.0254 4.77717 9.92329 4.80646 9.85611 4.82572ZM9.99987 5.62572L17.8749 8.60072L9.99987 11.5695L2.12488 8.60072L9.99987 5.62572ZM4.96238 10.5195L9.85611 12.3695C9.94759 12.4047 10.0522 12.4047 10.1436 12.3695L15.0374 10.5195L15.1999 12.8257C15.1999 12.8257 15.1685 12.9636 14.9374 13.1507C14.7063 13.3379 14.3261 13.551 13.8436 13.7382C12.8786 14.1126 11.501 14.4007 9.99987 14.4007C8.49873 14.4007 7.12118 14.1126 6.15612 13.7382C5.67364 13.551 5.29346 13.3379 5.06238 13.1507C4.8313 12.9636 4.7999 12.8253 4.79988 12.8257L4.96238 10.5195Z" fill="#8090A7"/>
</svg>
