<svg width="14" height="14" viewBox="0 0 14 14" fill="none" xmlns="http://www.w3.org/2000/svg">
<g id="Frame 1000003546">
<g id="Group 1000003302">
<path id="Line 2" d="M10.332 1L10.332 3.66667" stroke="#8090A7" stroke-width="1.2" stroke-linecap="round"/>
<path id="Line 1" d="M3.66797 1L3.66797 3.66667" stroke="#8090A7" stroke-width="1.2" stroke-linecap="round"/>
<path id="Rectangle 26" d="M1 6.33333C1 5.08718 1 4.4641 1.26795 4C1.44349 3.69596 1.69596 3.44349 2 3.26795C2.4641 3 3.08718 3 4.33333 3H9.66667C10.9128 3 11.5359 3 12 3.26795C12.304 3.44349 12.5565 3.69596 12.7321 4C13 4.4641 13 5.08718 13 6.33333V6.33333H1V6.33333Z" stroke="#8090A7" stroke-width="1.2"/>
<rect id="Rectangle 25" x="1" y="3" width="12" height="10" rx="2" stroke="#8090A7" stroke-width="1.2"/>
<path id="Vector 254" d="M3 9H5.66667" stroke="#8090A7" stroke-width="1.2" stroke-linecap="round"/>
<path id="Vector 256" d="M8.33203 9H10.9987" stroke="#8090A7" stroke-width="1.2" stroke-linecap="round"/>
<path id="Vector 255" d="M3 11H5.66667" stroke="#8090A7" stroke-width="1.2" stroke-linecap="round"/>
<path id="Vector 257" d="M8.33203 11H10.9987" stroke="#8090A7" stroke-width="1.2" stroke-linecap="round"/>
</g>
</g>
</svg>
