<svg width="20" height="20" viewBox="0 0 20 20" fill="currentColor" xmlns="http://www.w3.org/2000/svg">
<path d="M4.75435 10.8691C4.20959 10.8691 3.67706 11.0307 3.22411 11.3333C2.77116 11.636 2.41813 12.0662 2.20966 12.5694C2.00119 13.0727 1.94665 13.6265 2.05293 14.1608C2.1592 14.6951 2.42153 15.1859 2.80673 15.5711C3.19193 15.9563 3.68271 16.2186 4.217 16.3249C4.75129 16.4312 5.3051 16.3766 5.80839 16.1682C6.31168 15.9597 6.74185 15.6067 7.0445 15.1537C7.34715 14.7008 7.50869 14.1682 7.50869 13.6235C7.50776 12.8933 7.21728 12.1932 6.70094 11.6769C6.1846 11.1606 5.48456 10.8701 4.75435 10.8691ZM4.75435 15.8617C4.31167 15.8617 3.87893 15.7305 3.51085 15.4845C3.14277 15.2386 2.85589 14.889 2.68649 14.48C2.51708 14.071 2.47276 13.621 2.55912 13.1868C2.64548 12.7527 2.85865 12.3538 3.17168 12.0408C3.4847 11.7278 3.88351 11.5146 4.31769 11.4283C4.75186 11.3419 5.2019 11.3862 5.61088 11.5556C6.01987 11.725 6.36943 12.0119 6.61537 12.38C6.86131 12.7481 6.99258 13.1808 6.99258 13.6235C6.99165 14.2168 6.75554 14.7856 6.33599 15.2051C5.91644 15.6247 5.34768 15.8608 4.75435 15.8617Z" fill="#8090A7"/>
<path d="M9.89961 4C9.35485 4 8.82233 4.16154 8.36938 4.46419C7.91643 4.76684 7.5634 5.19701 7.35493 5.7003C7.14646 6.20359 7.09191 6.7574 7.19819 7.29169C7.30447 7.82598 7.56679 8.31676 7.95199 8.70196C8.3372 9.08717 8.82797 9.34949 9.36227 9.45577C9.89656 9.56205 10.4504 9.5075 10.9537 9.29903C11.4569 9.09056 11.8871 8.73753 12.1898 8.28458C12.4924 7.83163 12.654 7.2991 12.654 6.75435C12.653 6.02413 12.3625 5.32409 11.8462 4.80776C11.3299 4.29142 10.6298 4.00093 9.89961 4ZM9.89961 8.99258C9.45643 8.99293 9.02311 8.86181 8.65448 8.61581C8.28584 8.36981 7.99847 8.01999 7.82871 7.61061C7.65895 7.20123 7.61445 6.7507 7.70082 6.31602C7.7872 5.88134 8.00057 5.48205 8.31394 5.16868C8.62732 4.8553 9.02661 4.64193 9.46129 4.55556C9.89597 4.46918 10.3465 4.51369 10.7559 4.68345C11.1653 4.8532 11.5151 5.14058 11.7611 5.50921C12.0071 5.87785 12.1382 6.31117 12.1378 6.75435C12.1374 7.34782 11.9014 7.91685 11.4818 8.3365C11.0621 8.75615 10.4931 8.99212 9.89961 8.99258Z" fill="#8090A7"/>
<path d="M15.0449 10.8691C14.5001 10.8691 13.9676 11.0307 13.5146 11.3333C13.0617 11.636 12.7087 12.0662 12.5002 12.5694C12.2917 13.0727 12.2372 13.6265 12.3435 14.1608C12.4497 14.6951 12.7121 15.1859 13.0973 15.5711C13.4825 15.9563 13.9732 16.2186 14.5075 16.3249C15.0418 16.4312 15.5956 16.3766 16.0989 16.1682C16.6022 15.9597 17.0324 15.6067 17.335 15.1537C17.6377 14.7008 17.7992 14.1682 17.7992 13.6235C17.7983 12.8933 17.5078 12.1932 16.9915 11.6769C16.4751 11.1606 15.7751 10.8701 15.0449 10.8691ZM15.0449 15.8617C14.6023 15.8614 14.1697 15.7298 13.8019 15.4837C13.434 15.2375 13.1474 14.8878 12.9783 14.4788C12.8091 14.0698 12.7651 13.6198 12.8516 13.1858C12.9382 12.7517 13.1515 12.353 13.4646 12.0402C13.7777 11.7273 14.1765 11.5144 14.6106 11.4281C15.0447 11.3419 15.4947 11.3863 15.9036 11.5558C16.3125 11.7253 16.6619 12.0121 16.9078 12.3802C17.1536 12.7482 17.2849 13.1809 17.2849 13.6235C17.2844 14.2173 17.0482 14.7866 16.6282 15.2063C16.2081 15.626 15.6387 15.8617 15.0449 15.8617Z" fill="#8090A7"/>
</svg>
