<svg width="24" height="24" viewBox="0 0 24 24" fill="currentColor" xmlns="http://www.w3.org/2000/svg">
<path d="M24 9.69127C24 8.62328 23.5757 7.59904 22.8206 6.84386C22.0654 6.08868 21.0411 5.66442 19.9732 5.66442H18.6309V2.1208C18.6309 1.9072 18.546 1.70235 18.395 1.55132C18.2439 1.40028 18.0391 1.31543 17.8255 1.31543H6.1745C5.9609 1.31543 5.75605 1.40028 5.60502 1.55132C5.45398 1.70235 5.36913 1.9072 5.36913 2.1208V5.66442H4.02685C2.95886 5.66442 1.93462 6.08868 1.17944 6.84386C0.424256 7.59904 0 8.62328 0 9.69127V15.2752C0 16.3431 0.424256 17.3674 1.17944 18.1226C1.93462 18.8778 2.95886 19.302 4.02685 19.302H4.83222V21.8792C4.83222 22.0928 4.91707 22.2976 5.0681 22.4487C5.21914 22.5997 5.42399 22.6846 5.63758 22.6846H18.3624C18.576 22.6846 18.7809 22.5997 18.9319 22.4487C19.0829 22.2976 19.1678 22.0928 19.1678 21.8792V19.302H19.9732C21.0411 19.302 22.0654 18.8778 22.8206 18.1226C23.5757 17.3674 24 16.3431 24 15.2752V9.69127ZM6.97987 2.92617H17.0201V5.66442H6.97987V2.92617ZM17.557 21.0738H6.44295V14.6577H17.557V21.0738ZM22.3893 15.2752C22.3893 15.916 22.1347 16.5305 21.6816 16.9836C21.2285 17.4367 20.6139 17.6913 19.9732 17.6913H19.1678V13.8523C19.1678 13.6387 19.0829 13.4339 18.9319 13.2829C18.7809 13.1318 18.576 13.047 18.3624 13.047H5.63758C5.42399 13.047 5.21914 13.1318 5.0681 13.2829C4.91707 13.4339 4.83222 13.6387 4.83222 13.8523V17.6913H4.02685C3.38605 17.6913 2.77151 17.4367 2.3184 16.9836C1.86529 16.5305 1.61074 15.916 1.61074 15.2752V9.69127C1.61074 9.05048 1.86529 8.43593 2.3184 7.98282C2.77151 7.52971 3.38605 7.27516 4.02685 7.27516H19.9732C20.6139 7.27516 21.2285 7.52971 21.6816 7.98282C22.1347 8.43593 22.3893 9.05048 22.3893 9.69127V15.2752Z" fill="#8090A7"/>
<path d="M20.1613 8.69824H18.819C18.6054 8.69824 18.4006 8.78309 18.2496 8.93413C18.0985 9.08516 18.0137 9.29001 18.0137 9.50361C18.0137 9.71721 18.0985 9.92206 18.2496 10.0731C18.4006 10.2241 18.6054 10.309 18.819 10.309H20.1613C20.3749 10.309 20.5798 10.2241 20.7308 10.0731C20.8818 9.92206 20.9667 9.71721 20.9667 9.50361C20.9667 9.29001 20.8818 9.08516 20.7308 8.93413C20.5798 8.78309 20.3749 8.69824 20.1613 8.69824Z" fill="#8090A7"/>
<path d="M16.4025 8.69824H15.0603C14.8467 8.69824 14.6418 8.78309 14.4908 8.93413C14.3397 9.08516 14.2549 9.29001 14.2549 9.50361C14.2549 9.71721 14.3397 9.92206 14.4908 10.0731C14.6418 10.2241 14.8467 10.309 15.0603 10.309H16.4025C16.6161 10.309 16.821 10.2241 16.972 10.0731C17.1231 9.92206 17.2079 9.71721 17.2079 9.50361C17.2079 9.29001 17.1231 9.08516 16.972 8.93413C16.821 8.78309 16.6161 8.69824 16.4025 8.69824Z" fill="#8090A7"/>
<path d="M10.4157 17.4494H13.5835C13.7971 17.4494 14.002 17.3645 14.153 17.2135C14.304 17.0624 14.3889 16.8576 14.3889 16.644C14.3889 16.4304 14.304 16.2255 14.153 16.0745C14.002 15.9235 13.7971 15.8386 13.5835 15.8386H10.4157C10.2021 15.8386 9.99728 15.9235 9.84624 16.0745C9.6952 16.2255 9.61035 16.4304 9.61035 16.644C9.61035 16.8576 9.6952 17.0624 9.84624 17.2135C9.99728 17.3645 10.2021 17.4494 10.4157 17.4494Z" fill="#8090A7"/>
<path d="M9.34223 19.8661H14.6577C14.8713 19.8661 15.0761 19.7813 15.2272 19.6302C15.3782 19.4792 15.463 19.2743 15.463 19.0607C15.463 18.8471 15.3782 18.6423 15.2272 18.4913C15.0761 18.3402 14.8713 18.2554 14.6577 18.2554H9.34223C9.12864 18.2554 8.92379 18.3402 8.77275 18.4913C8.62172 18.6423 8.53687 18.8471 8.53687 19.0607C8.53687 19.2743 8.62172 19.4792 8.77275 19.6302C8.92379 19.7813 9.12864 19.8661 9.34223 19.8661Z" fill="#8090A7"/>
</svg>
