<svg width="16" height="16" viewBox="0 0 16 16" fill="currentColor" xmlns="http://www.w3.org/2000/svg">
<path fill-rule="evenodd" clip-rule="evenodd" d="M8 15C11.866 15 15 11.866 15 8C15 4.13401 11.866 1 8 1C4.13401 1 1 4.13401 1 8C1 11.866 4.13401 15 8 15ZM7.26068 4.3435L7.52468 9.4915H8.61368L8.88868 4.3435H7.26068ZM7.43668 11.8675C7.60535 12.0362 7.81801 12.1205 8.07468 12.1205C8.33135 12.1205 8.54035 12.0362 8.70168 11.8675C8.86301 11.6988 8.94368 11.4972 8.94368 11.2625C8.94368 11.0278 8.86301 10.8298 8.70168 10.6685C8.54035 10.4998 8.33135 10.4155 8.07468 10.4155C7.81801 10.4155 7.60535 10.4998 7.43668 10.6685C7.26801 10.8298 7.18368 11.0278 7.18368 11.2625C7.18368 11.4972 7.26801 11.6988 7.43668 11.8675Z" fill="#8090A7"/>
</svg>
