<svg width="20" height="20" viewBox="0 0 20 20" fill="currentColor" xmlns="http://www.w3.org/2000/svg">
<path d="M10.5002 18C14.6356 18 18 14.6355 18 10.4999C18 6.36453 14.6356 3 10.5002 3C6.36457 3 3 6.36453 3 10.4999C3 14.6355 6.36457 18 10.5002 18ZM10.5002 4.23111C13.9567 4.23111 16.7689 7.0432 16.7689 10.4999C16.7689 12.007 16.2338 13.3911 15.3444 14.4736L6.52628 5.65577C7.60875 4.76622 8.993 4.23111 10.5002 4.23111ZM5.6558 6.5262L14.474 15.3441C13.3916 16.2337 12.0074 16.7689 10.5002 16.7689C7.04345 16.7689 4.23113 13.9566 4.23113 10.4999C4.23113 8.99277 4.76624 7.60861 5.6558 6.5262Z" fill="#8090A7"/>
</svg>
