<svg width="20" height="20" viewBox="0 0 20 20" fill="currentColor" xmlns="http://www.w3.org/2000/svg">
<path d="M1.36364 2.5C0.616044 2.5 0 3.15577 0 3.95156V13.1448C0 13.9406 0.616044 14.5963 1.36364 14.5963H8.18182V16.5318H6.59091C6.57671 16.531 6.56249 16.531 6.5483 16.5318C6.4886 16.5347 6.43003 16.5502 6.37594 16.5772C6.32185 16.6043 6.2733 16.6424 6.23306 16.6895C6.19282 16.7365 6.16168 16.7915 6.14142 16.8514C6.12116 16.9112 6.11217 16.9747 6.11497 17.0383C6.11776 17.1018 6.1323 17.1642 6.15773 17.2218C6.18316 17.2793 6.219 17.331 6.2632 17.3738C6.3074 17.4166 6.35908 17.4498 6.41531 17.4713C6.47154 17.4929 6.53121 17.5025 6.59091 17.4995H10.6818C10.7421 17.5004 10.8019 17.4885 10.8577 17.4646C10.9136 17.4407 10.9645 17.4052 11.0074 17.3602C11.0503 17.3152 11.0844 17.2615 11.1076 17.2024C11.1309 17.1432 11.1428 17.0797 11.1428 17.0156C11.1428 16.9515 11.1309 16.888 11.1076 16.8289C11.0844 16.7697 11.0503 16.716 11.0074 16.671C10.9645 16.626 10.9136 16.5905 10.8577 16.5666C10.8019 16.5427 10.7421 16.5309 10.6818 16.5318H9.09091V14.5963H13.6364V16.0479C13.6364 16.8437 14.2524 17.4995 15 17.4995H18.6364C19.384 17.4995 20 16.8437 20 16.0479V8.7901C20 7.9943 19.384 7.33854 18.6364 7.33854H17.2727V3.95156C17.2727 3.15577 16.6567 2.5 15.9091 2.5H1.36364ZM1.36364 3.46771H15.9091C16.1688 3.46771 16.3636 3.67514 16.3636 3.95156V7.33854H15C14.2524 7.33854 13.6364 7.9943 13.6364 8.7901V13.6286H1.36364C1.10396 13.6286 0.909091 13.4212 0.909091 13.1448V3.95156C0.909091 3.67514 1.10396 3.46771 1.36364 3.46771ZM15 8.30624H18.6364C18.896 8.30624 19.0909 8.51367 19.0909 8.7901V16.0479C19.0909 16.3243 18.896 16.5318 18.6364 16.5318H15C14.7403 16.5318 14.5455 16.3243 14.5455 16.0479V8.7901C14.5455 8.51367 14.7403 8.30624 15 8.30624ZM8.63636 11.9351C8.38533 11.9351 8.18182 12.1518 8.18182 12.419C8.18182 12.6862 8.38533 12.9029 8.63636 12.9029C8.8874 12.9029 9.09091 12.6862 9.09091 12.419C9.09091 12.1518 8.8874 11.9351 8.63636 11.9351ZM16.8182 14.8383C16.5671 14.8383 16.3636 15.0549 16.3636 15.3221C16.3636 15.5893 16.5671 15.806 16.8182 15.806C17.0692 15.806 17.2727 15.5893 17.2727 15.3221C17.2727 15.0549 17.0692 14.8383 16.8182 14.8383Z" fill="#8090A7"/>
</svg>
