<svg width="20" height="20" viewBox="0 0 20 20" fill="currentColor" xmlns="http://www.w3.org/2000/svg">
<path fill-rule="evenodd" clip-rule="evenodd" d="M15.4682 17.9666C15.4682 18.4406 15.0805 18.8283 14.6065 18.8283H4.15872C3.6848 18.8283 3.29705 18.4406 3.29705 17.9666V4.13675C3.29705 3.66283 3.6848 3.27508 4.15872 3.27508H4.52494V2.47803H4.15872C3.25397 2.47803 2.5 3.23199 2.5 4.13675V17.9666C2.5 18.8714 3.25397 19.6254 4.15872 19.6254H14.6065C15.5113 19.6254 16.2653 18.8714 16.2653 17.9666V15.5109C16.0068 15.597 15.7483 15.6617 15.4682 15.7047V17.9666Z" fill="#8090A7"/>
<path fill-rule="evenodd" clip-rule="evenodd" d="M15.4685 4.13675V6.39865C15.7486 6.44173 16.0071 6.50636 16.2656 6.59253V4.13675C16.2656 3.23199 15.5116 2.47803 14.6069 2.47803H14.176V3.27508H14.6069C15.0592 3.27508 15.4685 3.66283 15.4685 4.13675Z" fill="#8090A7"/>
<path fill-rule="evenodd" clip-rule="evenodd" d="M13.3785 2.4776H10.9012C10.9227 2.39143 10.9227 2.30527 10.9227 2.2191C10.9227 1.33588 10.2118 0.625 9.32862 0.625C8.44541 0.625 7.73452 1.33588 7.73452 2.2191C7.73452 2.30527 7.73453 2.39143 7.75607 2.4776H5.30029V4.71796H13.3785V2.4776ZM9.32862 3.01615C8.89779 3.01615 8.53157 2.64994 8.53157 2.2191C8.53157 1.78826 8.89779 1.42205 9.32862 1.42205C9.75946 1.42205 10.1257 1.78826 10.1257 2.2191C10.1257 2.67148 9.781 3.01615 9.32862 3.01615Z" fill="#8090A7"/>
<path fill-rule="evenodd" clip-rule="evenodd" d="M12.5387 6.89331H4.82666V7.69036H11.4831C11.7847 7.36723 12.1509 7.10873 12.5387 6.89331Z" fill="#8090A7"/>
<path fill-rule="evenodd" clip-rule="evenodd" d="M10.5137 9.02588H4.82666V9.82293H10.2121C10.2768 9.54288 10.3845 9.26284 10.5137 9.02588Z" fill="#8090A7"/>
<path fill-rule="evenodd" clip-rule="evenodd" d="M10.0398 11.1597H4.82666V11.9567H10.126C10.0829 11.6767 10.0398 11.4182 10.0398 11.1597Z" fill="#8090A7"/>
<path fill-rule="evenodd" clip-rule="evenodd" d="M10.5996 13.2705H4.82642V14.0676H11.1382C10.9443 13.8306 10.7504 13.5506 10.5996 13.2705Z" fill="#8090A7"/>
<path d="M12.8185 15.4028H4.82642V16.1999H12.8185V15.4028Z" fill="#8090A7"/>
<path fill-rule="evenodd" clip-rule="evenodd" d="M14.758 7.13013C12.6038 7.13013 10.8374 8.87502 10.8374 11.0507C10.8374 13.2049 12.5823 14.9714 14.758 14.9714C16.9122 14.9714 18.6786 13.2265 18.6786 11.0507C18.6571 8.89656 16.9122 7.13013 14.758 7.13013ZM14.758 14.1743C13.0347 14.1743 11.6345 12.7741 11.6345 11.0507C11.6345 9.3274 13.0347 7.92718 14.758 7.92718C16.4814 7.92718 17.8816 9.3274 17.8816 11.0507C17.8816 12.7741 16.4814 14.1743 14.758 14.1743Z" fill="#8090A7"/>
<path fill-rule="evenodd" clip-rule="evenodd" d="M15.1664 10.8141C15.0371 10.771 14.9294 10.7279 14.8002 10.6633C14.6063 10.5771 14.3909 10.4909 14.2616 10.3186C14.1539 10.1894 14.1539 9.97394 14.2185 9.82314C14.3262 9.56464 14.6278 9.50002 14.8863 9.50002C15.3172 9.50002 15.7265 9.8016 15.8126 9.8016C15.985 9.8016 15.9634 9.30614 15.8126 9.21997C15.6834 9.04764 15.3172 8.96147 15.1018 8.93993V8.68143C15.1018 8.57372 15.0156 8.48755 14.9079 8.48755H14.6278C14.5201 8.48755 14.434 8.57372 14.434 8.68143V8.98301C14.0677 9.06918 13.7446 9.2846 13.5938 9.62927C13.4861 9.88777 13.4646 10.2324 13.5938 10.5125C13.7662 10.9002 14.1108 11.0726 14.477 11.2234C14.6063 11.2665 14.714 11.3095 14.8217 11.3526C15.1018 11.4603 15.4249 11.6327 15.4249 11.9773C15.4249 12.3005 15.2525 12.4728 14.951 12.559C14.7355 12.6236 14.434 12.602 14.197 12.5374C14.0462 12.4943 13.5507 12.2358 13.5077 12.2358C13.3353 12.2358 13.3569 12.7528 13.4861 12.8606C13.68 13.0329 14.1755 13.1406 14.4124 13.1621V13.4206C14.4124 13.5283 14.4986 13.6145 14.6063 13.6145H14.8863C14.994 13.6145 15.0802 13.5283 15.0802 13.4206V13.1191C15.6834 12.9898 16.1142 12.5805 16.1142 11.9342C16.1358 11.288 15.7049 11.0295 15.1664 10.8141Z" fill="#8090A7"/>
</svg>
