<svg width="20" height="20" viewBox="0 0 20 20" fill="currentColor" xmlns="http://www.w3.org/2000/svg">
<path d="M14.7406 0.640869H5.53962C3.86721 0.640869 2.5 2.00495 2.5 3.67299V16.3259C2.5 17.994 3.86721 19.358 5.53962 19.358H14.7406C16.4126 19.358 17.7803 17.9932 17.7803 16.3259V3.67299C17.7803 2.00569 16.4123 0.640869 14.7406 0.640869ZM13.6617 3.43931H11.6092C10.703 3.43931 9.96214 4.17809 9.96214 5.08226V7.12975C9.96214 8.03317 10.7037 8.7727 11.6092 8.7727H13.6617C14.5664 8.7727 15.309 8.03218 15.309 7.12975V5.08226C15.309 4.17908 14.5674 3.43931 13.6617 3.43931ZM11.6092 4.07181H13.6617C14.2193 4.07181 14.6747 4.526 14.6747 5.08226V7.12975C14.6747 7.687 14.2203 8.1402 13.6617 8.1402H11.6092C11.0513 8.1402 10.5962 7.68601 10.5962 7.12975V5.08226C10.5962 4.52675 11.0523 4.07181 11.6092 4.07181ZM8.30316 3.90766H5.66783C4.51496 3.90766 4.51496 5.65541 5.66783 5.65541H8.30316C9.45603 5.65541 9.45603 3.90766 8.30316 3.90766ZM5.66783 4.54016H8.30316C8.62132 4.54016 8.62132 5.02291 8.30316 5.02291H5.66783C5.34943 5.02291 5.34943 4.54016 5.66783 4.54016ZM8.30316 6.63408H5.66783C4.51496 6.63408 4.51496 8.38183 5.66783 8.38183H8.30316C9.45603 8.38183 9.45603 6.63408 8.30316 6.63408ZM5.66783 7.26658H8.30316C8.62132 7.26658 8.62132 7.74933 8.30316 7.74933H5.66783C5.34943 7.74933 5.34943 7.26658 5.66783 7.26658ZM14.6127 9.35976H5.66758C4.51496 9.35976 4.51496 11.1078 5.66758 11.1078H14.6127C15.765 11.1078 15.765 9.35976 14.6127 9.35976ZM5.66758 9.9925H14.6127C14.9308 9.9925 14.9308 10.4753 14.6127 10.4753H5.66758C5.34943 10.4753 5.34943 9.9925 5.66758 9.9925ZM14.6127 12.0857H5.66758C4.51496 12.0857 4.51496 13.8337 5.66758 13.8337H14.6127C15.765 13.8337 15.765 12.0857 14.6127 12.0857ZM5.66758 12.7184H14.6127C14.9308 12.7184 14.9308 13.2012 14.6127 13.2012H5.66758C5.34943 13.2012 5.34943 12.7184 5.66758 12.7184ZM11.4976 14.8116H5.66808C4.51496 14.8116 4.51496 16.5596 5.66808 16.5596H11.4976C12.6507 16.5596 12.6507 14.8116 11.4976 14.8116ZM5.66808 15.4441H11.4976C11.8163 15.4441 11.8163 15.9271 11.4976 15.9271H5.66808C5.34918 15.9271 5.34918 15.4441 5.66808 15.4441ZM5.53962 1.27337H14.7406C16.064 1.27337 17.1462 2.35311 17.1462 3.67299V16.3259C17.1462 17.6458 16.064 18.7255 14.7406 18.7255H5.53962C4.21673 18.7255 3.13406 17.6453 3.13406 16.3259V3.67299C3.13406 2.35361 4.21673 1.27337 5.53962 1.27337Z" fill="#8090A7"/>
</svg>
