<svg width="19" height="20" viewBox="0 0 19 20" fill="currentColor" xmlns="http://www.w3.org/2000/svg">
<path fill-rule="evenodd" clip-rule="evenodd" d="M5.58824 4.53341V2.81239C5.58824 1.86324 6.33696 1.09375 7.26193 1.09375H11.7381C12.662 1.09375 13.4118 1.86498 13.4118 2.81239V4.53341H16.7669C17.9997 4.53341 19 5.56093 19 6.82514V15.427C19 16.6921 17.9991 17.7188 16.7669 17.7188H2.23311C1.00031 17.7188 0 16.6912 0 15.427V6.82514C0 5.56002 1.00092 4.53341 2.23311 4.53341H5.58824ZM6.98529 12.5593H4.47237C3.23708 12.5593 2.23529 11.5337 2.23529 10.2678V5.67996H2.23311C1.61813 5.67996 1.11765 6.19329 1.11765 6.82514V15.427C1.11765 16.0583 1.6179 16.5722 2.23311 16.5722H16.7669C17.3819 16.5722 17.8824 16.0589 17.8824 15.427V6.82514C17.8824 6.19382 17.3821 5.67996 16.7669 5.67996H16.7647V10.2678C16.7647 11.5341 15.764 12.5593 14.5276 12.5593H12.0147V12.846C12.0147 13.4796 11.5134 13.9925 10.8954 13.9925H8.10458C7.48638 13.9925 6.98529 13.4814 6.98529 12.846V12.5593ZM12.0147 11.4127H14.5276C15.1471 11.4127 15.6471 10.9005 15.6471 10.2678V5.67996H3.35294V10.2678C3.35294 10.8999 3.85382 11.4127 4.47237 11.4127H6.98529V11.126C6.98529 10.4924 7.48658 9.97953 8.10458 9.97953H10.8954C11.5136 9.97953 12.0147 10.4906 12.0147 11.126V11.4127ZM8.10294 12.846C8.10294 12.8467 10.8954 12.8459 10.8954 12.8459C10.8969 12.8459 10.8971 11.126 10.8971 11.126C10.8971 11.1253 8.10458 11.1261 8.10458 11.1261C8.10315 11.1261 8.10294 12.846 8.10294 12.846ZM12.2941 2.81239C12.2941 2.4975 12.0441 2.2403 11.7381 2.2403H7.26193C6.95467 2.2403 6.70588 2.496 6.70588 2.81239V4.53341H12.2941V2.81239Z" fill="#8090A7"/>
</svg>
