<svg width="20" height="20" viewBox="0 0 20 20" fill="currentColor" xmlns="http://www.w3.org/2000/svg">
<path d="M2.5 10.8333V10C2.5 6.71252 2.5 5.06878 3.40796 3.96243C3.57418 3.75989 3.75989 3.57418 3.96243 3.40796C5.06878 2.5 6.71252 2.5 10 2.5V2.5C13.2875 2.5 14.9312 2.5 16.0376 3.40796C16.2401 3.57418 16.4258 3.75989 16.592 3.96243C17.5 5.06878 17.5 6.71252 17.5 10V10C17.5 13.2875 17.5 14.9312 16.592 16.0376C16.4258 16.2401 16.2401 16.4258 16.0376 16.592C14.9312 17.5 13.2875 17.5 10 17.5V17.5" stroke="#8090A7"/>
<path fill-rule="evenodd" clip-rule="evenodd" d="M15.4961 11.4555L15.3951 11.3545C14.3135 10.2728 12.49 10.5687 11.8059 11.9369C11.6874 12.1739 11.3656 12.2136 11.1931 12.0123L7.04639 7.17449C6.86667 6.96483 6.55102 6.94055 6.34136 7.12026C6.1317 7.29997 6.10742 7.61562 6.28713 7.82528L10.4339 12.6631C11.0718 13.4074 12.262 13.2608 12.7003 12.3841C13.0792 11.6264 14.089 11.4626 14.688 12.0616L15.4619 12.8355C15.4821 12.44 15.4916 11.9866 15.4961 11.4555Z" fill="#8090A7"/>
<circle cx="13.75" cy="6.25" r="1.25" fill="#8090A7"/>
<path d="M6.66675 13.3334V12.8334H7.16675V13.3334H6.66675ZM2.81243 17.0571C2.5968 17.2296 2.28215 17.1947 2.10965 16.9791C1.93714 16.7634 1.9721 16.4488 2.18773 16.2763L2.81243 17.0571ZM6.16675 17.5V13.3334H7.16675V17.5H6.16675ZM6.66675 13.8334H2.50008V12.8334H6.66675V13.8334ZM6.9791 13.7238L2.81243 17.0571L2.18773 16.2763L6.3544 12.9429L6.9791 13.7238Z" fill="#8090A7"/>
</svg>
