<svg width="20" height="20" viewBox="0 0 20 20" fill="currentColor" xmlns="http://www.w3.org/2000/svg">
<path d="M7.923 8.04578L7.52625 10.4251C7.51759 10.4771 7.52323 10.5304 7.54253 10.5792C7.56183 10.628 7.59402 10.6703 7.63547 10.7013C7.67691 10.7323 7.72596 10.7507 7.77705 10.7545C7.82815 10.7583 7.87926 10.7473 7.92461 10.7228L10.0026 9.59931L12.0806 10.7228C12.1259 10.7473 12.1771 10.7583 12.2282 10.7545C12.2793 10.7507 12.3283 10.7323 12.3697 10.7013C12.4112 10.6703 12.4434 10.6281 12.4627 10.5792C12.482 10.5304 12.4876 10.4771 12.4789 10.4251L12.0822 8.04578L13.7631 6.36068C13.7998 6.3239 13.8258 6.27731 13.838 6.22616C13.8503 6.175 13.8484 6.12134 13.8326 6.07123C13.8168 6.02112 13.7876 5.97656 13.7485 5.94259C13.7093 5.90863 13.6617 5.88661 13.611 5.87902L11.2877 5.5318L10.2487 3.36707C10.226 3.31981 10.1909 3.28001 10.1474 3.25218C10.1039 3.22435 10.0537 3.20959 10.0024 3.20959C9.95121 3.20959 9.90099 3.22435 9.85747 3.25218C9.81396 3.28001 9.77889 3.31981 9.75624 3.36707L8.71726 5.53183L6.39402 5.87905C6.34332 5.88663 6.29569 5.90865 6.25652 5.94261C6.21735 5.97657 6.1882 6.02113 6.17237 6.07124C6.15654 6.12135 6.15466 6.17501 6.16694 6.22616C6.17923 6.27731 6.20518 6.32391 6.24188 6.36068L7.923 8.04578ZM8.93905 6.0693C8.98311 6.06271 9.02495 6.0452 9.06096 6.01828C9.09697 5.99135 9.12607 5.95583 9.14575 5.91476L10.0025 4.12978L10.8592 5.91476C10.8789 5.95583 10.908 5.99135 10.944 6.01827C10.98 6.0452 11.0219 6.06271 11.0659 6.0693L12.9815 6.35562L11.5954 7.74497C11.5635 7.77694 11.5397 7.81639 11.5259 7.85993C11.5121 7.90346 11.5089 7.94979 11.5164 7.99491L11.8436 9.95672L10.1302 9.03038C10.0908 9.0091 10.047 8.99798 10.0025 8.99798C9.95797 8.99798 9.91413 9.0091 9.87473 9.03038L8.16136 9.95674L8.48858 7.99494C8.49609 7.94982 8.49282 7.9035 8.47907 7.85996C8.46532 7.81642 8.44149 7.77697 8.40963 7.745L7.02345 6.35562L8.93905 6.0693Z" fill="#8090A7" stroke="#8090A7" stroke-width="0.3"/>
<path d="M14.8282 10.736C14.7924 10.7099 14.751 10.693 14.7075 10.6868C14.664 10.6805 14.6197 10.6852 14.5783 10.7003L10.0025 12.3609L5.42659 10.7003C5.38519 10.6852 5.34089 10.6806 5.29741 10.6869C5.25393 10.6931 5.21254 10.71 5.1767 10.736C5.14087 10.7621 5.11164 10.7966 5.09147 10.8367C5.0713 10.8768 5.06078 10.9213 5.06079 10.9665V12.6603C5.06079 12.7187 5.07841 12.7757 5.11121 12.8234C5.14402 12.8711 5.19041 12.9071 5.24397 12.9265L9.91113 14.6204C9.97024 14.6419 10.0347 14.6419 10.0938 14.6204L14.761 12.9265C14.8145 12.9071 14.8609 12.8711 14.8937 12.8234C14.9266 12.7757 14.9442 12.7187 14.9442 12.6603V10.9665C14.9442 10.9213 14.9336 10.8768 14.9135 10.8367C14.8933 10.7966 14.8641 10.7621 14.8282 10.736ZM14.3951 12.4605L10.0025 14.0548L5.60985 12.4605V11.3655L9.91113 12.9265C9.97023 12.948 10.0347 12.948 10.0938 12.9265L14.3951 11.3655V12.4605Z" fill="#8090A7" stroke="#8090A7" stroke-width="0.3"/>
<path d="M14.8282 14.1246C14.7924 14.0985 14.751 14.0816 14.7075 14.0754C14.664 14.0692 14.6197 14.0738 14.5783 14.0889L10.0025 15.7495L5.42659 14.0888C5.38519 14.0738 5.34089 14.0692 5.29741 14.0755C5.25393 14.0817 5.21254 14.0985 5.1767 14.1246C5.14087 14.1507 5.11164 14.1852 5.09147 14.2253C5.0713 14.2654 5.06078 14.3099 5.06079 14.3551V16.0488C5.06079 16.1072 5.07841 16.1642 5.11122 16.2119C5.14403 16.2596 5.19041 16.2956 5.24397 16.315L9.91113 18.0089C9.97024 18.0304 10.0347 18.0304 10.0938 18.0089L14.761 16.315C14.8145 16.2956 14.8609 16.2596 14.8937 16.2119C14.9265 16.1642 14.9442 16.1072 14.9442 16.0488V14.355C14.9442 14.3099 14.9336 14.2654 14.9134 14.2253C14.8933 14.1852 14.864 14.1507 14.8282 14.1246ZM14.3951 15.8492L10.0025 17.4435L5.60985 15.8492V14.7541L9.91113 16.315C9.97024 16.3365 10.0347 16.3365 10.0938 16.315L14.3951 14.754V15.8492Z" fill="#8090A7" stroke="#8090A7" stroke-width="0.3"/>
</svg>
