<svg width="20" height="20" viewBox="0 0 20 20" fill="currentColor" xmlns="http://www.w3.org/2000/svg">
<path d="M2.65759 8.26049L7.15759 10.8484L8.26718 16.0453C8.34937 16.4696 8.69868 16.7878 9.10964 16.8726C9.17129 16.8726 9.21238 16.8938 9.27403 16.8938C9.64389 16.8938 9.97266 16.7029 10.1576 16.3635L16.7946 4.69686C17.0001 4.33625 16.9795 3.86959 16.7329 3.53019C16.4864 3.1908 16.0754 3.04231 15.6644 3.12716L2.92471 6.30898C2.51375 6.41504 2.20553 6.75443 2.14389 7.19989C2.08225 7.64534 2.28772 8.04837 2.65759 8.26049ZM15.4795 4.48474L9.37677 15.2605L8.41101 10.7211L10.4864 9.13019L9.74663 8.0908L7.67129 9.68171L3.72608 7.41201L15.4795 4.48474Z" fill="#8090A7"/>
</svg>
