<svg width="20" height="20" viewBox="0 0 20 20" fill="none" xmlns="http://www.w3.org/2000/svg">
<g id="noun-alert-2111608 1">
<path id="Vector" fill-rule="evenodd" clip-rule="evenodd" d="M9.99934 2.42383C5.82352 2.42383 2.42358 5.82377 2.42358 9.99959C2.42358 14.1754 5.82352 17.5753 9.99934 17.5753C14.1752 17.5753 17.5751 14.1754 17.5751 9.99959C17.5751 5.82377 14.1752 2.42383 9.99934 2.42383ZM9.99934 3.80124C13.4308 3.80124 16.1977 6.56818 16.1977 9.99959C16.1977 13.431 13.4308 16.1979 9.99934 16.1979C6.56793 16.1979 3.80099 13.431 3.80099 9.99959C3.80099 6.56818 6.56793 3.80124 9.99934 3.80124ZM9.9886 5.85794C9.80617 5.86079 9.63233 5.93589 9.50523 6.06678C9.37812 6.19766 9.30814 6.37363 9.31064 6.55606V11.1012C9.30935 11.1925 9.32621 11.2831 9.36024 11.3678C9.39427 11.4525 9.44479 11.5296 9.50887 11.5946C9.57295 11.6596 9.64931 11.7112 9.73351 11.7464C9.81771 11.7816 9.90807 11.7998 9.99934 11.7998C10.0906 11.7998 10.181 11.7816 10.2652 11.7464C10.3494 11.7112 10.4257 11.6596 10.4898 11.5946C10.5539 11.5296 10.6044 11.4525 10.6384 11.3678C10.6725 11.2831 10.6893 11.1925 10.688 11.1012V6.55606C10.6893 6.46392 10.6721 6.37246 10.6373 6.2871C10.6026 6.20174 10.5511 6.12422 10.4859 6.05912C10.4207 5.99403 10.3431 5.94268 10.2576 5.90812C10.1722 5.87356 10.0807 5.8565 9.9886 5.85794ZM9.99934 12.7544C9.81669 12.7544 9.64151 12.827 9.51235 12.9561C9.3832 13.0853 9.31064 13.2605 9.31064 13.4431C9.31064 13.6258 9.3832 13.8009 9.51235 13.9301C9.64151 14.0593 9.81669 14.1318 9.99934 14.1318C10.182 14.1318 10.3572 14.0593 10.4863 13.9301C10.6155 13.8009 10.688 13.6258 10.688 13.4431C10.688 13.2605 10.6155 13.0853 10.4863 12.9561C10.3572 12.827 10.182 12.7544 9.99934 12.7544Z" fill="#8090A7"/>
</g>
</svg>
