<svg width="20" height="20" viewBox="0 0 20 20" fill="none" xmlns="http://www.w3.org/2000/svg">
<g id="noun-system-5934750 1">
<g id="Group 1000003365">
<path id="Vector" d="M4.612 12.4241L3.48 14.2521C3.426 14.3401 3.438 14.4541 3.512 14.5261L4.746 15.7601C4.82 15.8341 4.932 15.8461 5.02 15.7921L6.844 14.6621C7.122 14.8061 7.406 14.9221 7.692 15.0101L8.184 17.1021C8.208 17.2021 8.298 17.2741 8.4 17.2741H10.146C10.25 17.2741 10.34 17.2041 10.362 17.1021L10.714 15.6141C10.742 15.4941 10.668 15.3741 10.548 15.3461C10.426 15.3181 10.308 15.3921 10.28 15.5121L9.968 16.8281H8.574L8.092 14.7821C8.074 14.7021 8.014 14.6401 7.934 14.6181C7.598 14.5261 7.264 14.3881 6.94 14.2101C6.87 14.1721 6.784 14.1741 6.716 14.2161L4.932 15.3221L3.948 14.3381L5.054 12.5501C5.096 12.4821 5.098 12.3961 5.06 12.3261C4.874 11.9881 4.738 11.6561 4.652 11.3381C4.63 11.2581 4.568 11.1981 4.488 11.1781L2.442 10.6981V9.30412L4.488 8.82412C4.568 8.80612 4.632 8.74412 4.652 8.66412C4.736 8.35012 4.868 8.02412 5.06 7.67012C5.098 7.60012 5.096 7.51412 5.054 7.44612L3.948 5.66212L4.932 4.67812L6.716 5.78412C6.784 5.82612 6.87 5.82812 6.94 5.79012C7.264 5.61212 7.6 5.47412 7.934 5.38212C8.012 5.36012 8.072 5.29812 8.092 5.21812L8.574 3.17212H9.968L10.45 5.21812C10.468 5.29612 10.528 5.36012 10.606 5.38212C10.94 5.47612 11.274 5.61412 11.598 5.79012C11.668 5.82812 11.754 5.82612 11.822 5.78412L13.61 4.67812L14.594 5.66212L14.01 6.60412C13.946 6.70812 13.978 6.84612 14.082 6.91012C14.186 6.97412 14.324 6.94412 14.388 6.83812L15.066 5.74612C15.12 5.65812 15.108 5.54412 15.034 5.47212L13.8 4.23812C13.726 4.16412 13.612 4.15212 13.526 4.20612L11.698 5.33612C11.422 5.19412 11.14 5.07612 10.856 4.98812L10.364 2.89612C10.34 2.79612 10.25 2.72412 10.148 2.72412H8.402C8.298 2.72412 8.208 2.79612 8.186 2.89612L7.694 4.98812C7.408 5.07612 7.124 5.19212 6.846 5.33612L5.022 4.20612C4.934 4.15212 4.822 4.16412 4.748 4.23812L3.514 5.47212C3.44 5.54612 3.428 5.65812 3.482 5.74612L4.614 7.57012C4.462 7.86412 4.346 8.14412 4.264 8.41612L2.172 8.90812C2.072 8.93212 2 9.02212 2 9.12412V10.8701C2 10.9741 2.072 11.0641 2.172 11.0861L4.264 11.5781C4.348 11.8561 4.464 12.1381 4.612 12.4241Z" fill="#8090A7" stroke="#8090A7" stroke-width="0.5"/>
<path id="Vector_2" d="M9.27413 6.96211C9.96613 6.96211 10.6161 7.18811 11.1581 7.61811C11.2541 7.69411 11.3941 7.67811 11.4701 7.58211C11.5461 7.48611 11.5301 7.34611 11.4341 7.26811C10.8221 6.78411 10.0541 6.51611 9.27413 6.51611C7.35013 6.51611 5.78613 8.07811 5.78613 10.0001C5.78613 11.8441 7.22813 13.3701 9.07013 13.4741C9.07413 13.4741 9.07813 13.4741 9.08213 13.4741C9.20013 13.4741 9.29813 13.3821 9.30413 13.2641C9.31013 13.1421 9.21613 13.0361 9.09413 13.0301C7.49013 12.9381 6.23213 11.6081 6.23213 10.0001C6.23213 8.32411 7.59613 6.96211 9.27413 6.96211Z" fill="#8090A7" stroke="#8090A7" stroke-width="0.5"/>
<path id="Vector_3" d="M17.868 9.15799L13.618 7.18799C13.558 7.15999 13.49 7.15999 13.43 7.18799L9.18004 9.15799C9.10204 9.19399 9.05204 9.26999 9.05004 9.35599C8.98804 12.642 10.41 15.22 13.4 17.236C13.438 17.262 13.48 17.274 13.524 17.274C13.568 17.274 13.612 17.262 13.648 17.236C16.64 15.22 18.062 12.642 17.998 9.35599C17.996 9.27199 17.946 9.19399 17.868 9.15799ZM13.526 16.782C10.798 14.898 9.47804 12.514 9.49804 9.50399L13.526 7.63599L17.554 9.50399C17.574 12.514 16.254 14.898 13.526 16.782Z" fill="#8090A7" stroke="#8090A7" stroke-width="0.5"/>
</g>
</g>
</svg>
