<svg width="20" height="20" viewBox="0 0 20 20" fill="currentColor" xmlns="http://www.w3.org/2000/svg">
<path d="M10.0043 4.35026C10.0449 4.35018 10.0847 4.36195 10.1191 4.38423C10.1536 4.40652 10.1813 4.43841 10.1992 4.47629L11.5414 7.30059C11.6347 7.49688 11.7726 7.66664 11.943 7.79523C12.1135 7.92382 12.3115 8.00739 12.5199 8.03874L15.5248 8.48883C15.5645 8.49625 15.6014 8.51503 15.6313 8.54306C15.6613 8.57109 15.6831 8.60726 15.6944 8.64749C15.7056 8.68772 15.7058 8.73041 15.695 8.77077C15.6842 8.81112 15.6627 8.84753 15.6331 8.8759L13.4682 11.0836C13.3172 11.2363 13.2043 11.4248 13.139 11.633C13.0738 11.8412 13.0582 12.0627 13.0936 12.2786L13.6067 15.3887C13.6145 15.4309 13.6104 15.4745 13.5951 15.5144C13.5797 15.5542 13.5537 15.5887 13.5201 15.6137C13.4808 15.64 13.4348 15.6534 13.3881 15.652C13.3544 15.6525 13.321 15.6448 13.2907 15.6295L10.6083 14.1577C10.422 14.056 10.2148 14.0028 10.0043 14.0028C9.7939 14.0028 9.58662 14.056 9.40032 14.1577L6.71151 15.6272C6.68182 15.6422 6.64924 15.6499 6.61625 15.6497C6.56953 15.6511 6.52349 15.6378 6.48419 15.6115C6.45061 15.5865 6.42461 15.552 6.40926 15.5121C6.39392 15.4722 6.38987 15.4286 6.3976 15.3864L6.91068 12.2763C6.94631 12.0612 6.93124 11.8403 6.86677 11.6326C6.80229 11.4249 6.69033 11.2365 6.54048 11.0836L4.37558 8.8759C4.34639 8.84669 4.32568 8.80956 4.31579 8.76872C4.3059 8.72788 4.30724 8.68497 4.31964 8.64488C4.33205 8.60479 4.35502 8.56912 4.38596 8.54193C4.4169 8.51474 4.45455 8.49712 4.49465 8.49108L7.49953 8.04099C7.70627 8.0077 7.90221 7.92301 8.0707 7.7941C8.23918 7.66519 8.37522 7.49589 8.46725 7.30059L9.80949 4.47629C9.82734 4.43841 9.85507 4.40652 9.88952 4.38423C9.92397 4.36195 9.96376 4.35018 10.0043 4.35026ZM10.0043 3C9.7215 2.99984 9.44427 3.08196 9.20401 3.23706C8.96374 3.39217 8.77002 3.61407 8.64477 3.87767L7.30253 6.70648L4.29764 7.15656C4.01779 7.19881 3.7549 7.32161 3.53869 7.51107C3.32248 7.70054 3.16158 7.94911 3.07419 8.22867C2.98679 8.50824 2.97639 8.80764 3.04416 9.09303C3.11193 9.37842 3.25516 9.63841 3.45766 9.84359L5.62256 12.0468L5.11814 15.1614C5.07031 15.4513 5.10154 15.7494 5.20829 16.0219C5.31504 16.2943 5.49304 16.5302 5.72215 16.7029C5.98276 16.8971 6.2956 17.0011 6.61625 17C6.86043 17.0003 7.10107 16.9393 7.31768 16.8222L10.0043 15.3527L12.691 16.82C12.9076 16.9371 13.1482 16.9981 13.3924 16.9977C13.7132 16.9996 14.0262 16.8956 14.2865 16.7007C14.5156 16.528 14.6936 16.2921 14.8004 16.0196C14.9071 15.7472 14.9384 15.4491 14.8905 15.1591L14.3774 12.0513L16.5423 9.84809C16.7448 9.64291 16.8881 9.38292 16.9558 9.09753C17.0236 8.81214 17.0132 8.51274 16.9258 8.23317C16.8384 7.95361 16.6775 7.70504 16.4613 7.51557C16.2451 7.32611 15.9822 7.20331 15.7024 7.16107L12.6975 6.71098L11.3639 3.87767C11.2386 3.61407 11.0449 3.39217 10.8047 3.23706C10.5644 3.08196 10.2872 2.99984 10.0043 3Z" fill="#8090A7"/>
</svg>
