<svg width="16" height="16" viewBox="0 0 16 16" fill="currentColor" xmlns="http://www.w3.org/2000/svg">
<path d="M13.5385 13.8433H13.0769V8.30624C13.0769 7.987 12.9554 7.68083 12.739 7.4551C12.5226 7.22936 12.2291 7.10254 11.9231 7.10254H11.4615C11.1555 7.10254 10.862 7.22936 10.6456 7.4551C10.4293 7.68083 10.3077 7.987 10.3077 8.30624V13.8433H9.38462V9.75069C9.38462 9.43144 9.26305 9.12528 9.04666 8.89954C8.83027 8.6738 8.53679 8.54698 8.23077 8.54698H7.76923C7.46321 8.54698 7.16973 8.6738 6.95334 8.89954C6.73695 9.12528 6.61538 9.43144 6.61538 9.75069V13.8433H5.69231V11.1951C5.69231 10.8759 5.57074 10.5697 5.35435 10.344C5.13797 10.1182 4.84448 9.99143 4.53846 9.99143H4.07692C3.7709 9.99143 3.47742 10.1182 3.26103 10.344C3.04464 10.5697 2.92308 10.8759 2.92308 11.1951V13.8433H2.46154C2.33913 13.8433 2.22174 13.894 2.13518 13.9843C2.04863 14.0746 2 14.1971 2 14.3248C2 14.4525 2.04863 14.5749 2.13518 14.6652C2.22174 14.7555 2.33913 14.8062 2.46154 14.8062H13.5385C13.6609 14.8062 13.7783 14.7555 13.8648 14.6652C13.9514 14.5749 14 14.4525 14 14.3248C14 14.1971 13.9514 14.0746 13.8648 13.9843C13.7783 13.894 13.6609 13.8433 13.5385 13.8433ZM3.84615 13.8433V11.1951C3.84615 11.1313 3.87047 11.0701 3.91374 11.0249C3.95702 10.9798 4.01572 10.9544 4.07692 10.9544H4.53846C4.59967 10.9544 4.65836 10.9798 4.70164 11.0249C4.74492 11.0701 4.76923 11.1313 4.76923 11.1951V13.8433H3.84615ZM7.53846 13.8433V9.75069C7.53846 9.68684 7.56277 9.62561 7.60605 9.58046C7.64933 9.53531 7.70803 9.50995 7.76923 9.50995H8.23077C8.29197 9.50995 8.35067 9.53531 8.39395 9.58046C8.43723 9.62561 8.46154 9.68684 8.46154 9.75069V13.8433H7.53846ZM11.2308 13.8433V8.30624C11.2308 8.24239 11.2551 8.18116 11.2984 8.13601C11.3416 8.09087 11.4003 8.0655 11.4615 8.0655H11.9231C11.9843 8.0655 12.043 8.09087 12.0863 8.13601C12.1295 8.18116 12.1538 8.24239 12.1538 8.30624V13.8433H11.2308Z" fill="#8090A7"/>
<path d="M2.92302 8.18511C2.98504 8.18505 3.04642 8.17195 3.10348 8.14659L11.5132 4.41655L10.9459 5.85329C10.922 5.9119 10.9095 5.97488 10.909 6.03859C10.9086 6.10229 10.9203 6.16545 10.9434 6.22441C10.9666 6.28337 11.0007 6.33695 11.0438 6.38204C11.087 6.42714 11.1382 6.46287 11.1947 6.48714C11.2512 6.51141 11.3117 6.52376 11.3727 6.52345C11.4338 6.52315 11.4942 6.51021 11.5505 6.48538C11.6067 6.46055 11.6576 6.42432 11.7004 6.3788C11.7431 6.33328 11.7767 6.27936 11.7993 6.22018L12.7935 3.70155C12.8393 3.58377 12.8386 3.45187 12.7916 3.33461C12.7446 3.21735 12.655 3.12425 12.5424 3.07562L10.1286 2.03851C10.0724 2.01355 10.012 2.00046 9.95094 2.00001C9.88987 1.99956 9.82932 2.01176 9.77281 2.0359C9.7163 2.06004 9.66494 2.09564 9.6217 2.14063C9.57847 2.18563 9.54423 2.23912 9.52096 2.29802C9.49769 2.35692 9.48586 2.42006 9.48615 2.48376C9.48644 2.54747 9.49885 2.61048 9.52265 2.66915C9.54645 2.72782 9.58118 2.78097 9.62481 2.82554C9.66845 2.87011 9.72013 2.90519 9.77687 2.92877L11.167 3.52581L2.74256 7.26018C2.64443 7.30348 2.56369 7.38086 2.51403 7.47919C2.46436 7.57752 2.44884 7.69074 2.47009 7.79966C2.49134 7.90857 2.54805 8.00646 2.63061 8.07671C2.71317 8.14697 2.81648 8.18527 2.92302 8.18511Z" fill="#8090A7"/>
</svg>
