<svg width="20" height="20" viewBox="0 0 20 20" fill="currentColor" xmlns="http://www.w3.org/2000/svg">
<path d="M3.61726 3.15015H13.535C14.8991 3.15015 16.0214 4.2413 16.0214 5.56818V9.0394C17.6729 9.55998 18.8697 11.0695 18.8697 12.8473C18.8697 15.0546 17.0229 16.8498 14.753 16.8498C12.8682 16.8498 11.2756 15.6133 10.7893 13.9293H3.61726C2.25293 13.9293 1.13037 12.8383 1.13037 11.5112V5.56818C1.13037 4.24241 2.2543 3.15015 3.61726 3.15015ZM13.5643 10.9826L14.753 12.1381L15.9417 10.9826L16.67 11.6905L15.4813 12.8459L16.6714 14.0029L15.9429 14.711L14.753 13.5542L13.5632 14.711L12.8346 14.0029L14.0247 12.8459L12.836 11.6905L13.5643 10.9826ZM14.9897 8.85189V5.56818C14.9897 5.37441 14.9475 5.19181 14.8761 5.02305L10.9881 8.80144C9.66445 10.0866 7.48638 10.0888 6.16269 8.80144L2.27589 5.02305C2.20379 5.19181 2.162 5.37441 2.162 5.56818V11.5112C2.162 12.2383 2.84463 12.9263 3.61726 12.9263H10.6375L10.6364 12.8473C10.6364 10.6391 12.4817 8.84519 14.753 8.84519C14.8327 8.84519 14.9115 8.84765 14.9897 8.85189ZM14.753 9.84794C13.0475 9.84794 11.668 11.1891 11.668 12.8473C11.668 14.5059 13.0475 15.847 14.753 15.847C16.4602 15.847 17.838 14.507 17.838 12.8473C17.838 11.1891 16.4586 9.84794 14.753 9.84794ZM2.98147 4.29509L6.89032 8.09358C7.81243 8.99007 9.34093 8.98873 10.2612 8.09358L14.168 4.29509C13.976 4.20446 13.7607 4.15312 13.535 4.15312H3.61726C3.39017 4.15312 3.17319 4.20446 2.98147 4.29509Z" fill="#8090A7"/>
</svg>
