<svg width="20" height="20" viewBox="0 0 20 20" fill="currentColor" xmlns="http://www.w3.org/2000/svg">
<path fill-rule="evenodd" clip-rule="evenodd" d="M4.10663 5.31106C2.53965 6.87772 2.53965 9.41845 4.10663 10.9851C5.99644 12.8752 8.37854 15.2573 9.34459 16.2231C9.70601 16.5848 10.2924 16.5848 10.6539 16.2231L15.8918 10.9851C16.6443 10.2327 17.0668 9.21229 17.0668 8.14809C17.0668 7.08389 16.6443 6.06352 15.8918 5.31106C15.1394 4.55859 14.1187 4.13574 13.0545 4.13574C11.9906 4.13574 10.9699 4.55859 10.2174 5.31106L9.99922 5.52927L9.78101 5.31106C9.02854 4.55859 8.00787 4.13574 6.94398 4.13574C5.87978 4.13574 4.8591 4.55859 4.10663 5.31106ZM15.4554 5.74747C14.8187 5.11074 13.9551 4.75303 13.0545 4.75303C12.1542 4.75303 11.2906 5.11074 10.6539 5.74747L10.2174 6.18389C10.0971 6.30457 9.90138 6.30457 9.78101 6.18389L9.34459 5.74747C8.70787 5.11074 7.84429 4.75303 6.94398 4.75303C6.04336 4.75303 5.17978 5.11074 4.54305 5.74747C3.21743 7.07339 3.21743 9.22278 4.54305 10.5487L9.78101 15.7867C9.90138 15.907 10.0971 15.907 10.2174 15.7867L15.4554 10.5487C16.0921 9.91198 16.4495 9.0484 16.4495 8.14809C16.4495 7.24778 16.0921 6.38419 15.4554 5.74747Z" fill="#8090A7" stroke="#8090A7" stroke-width="0.5"/>
</svg>
