<svg width="20" height="20" viewBox="0 0 20 20" fill="currentColor" xmlns="http://www.w3.org/2000/svg">
<path d="M15.9992 4.56433H3.99916C3.14138 4.56433 2.4436 5.26211 2.4436 6.11989V13.4357C2.4436 14.2932 3.14138 14.9912 3.99916 14.9912H15.9992C16.8567 14.9912 17.5547 14.2932 17.5547 13.4357V6.11989C17.5547 5.26211 16.8567 4.56433 15.9992 4.56433ZM16.6658 13.4357C16.6658 13.8032 16.3667 14.1023 15.9992 14.1023H3.99916C3.6316 14.1023 3.33249 13.8032 3.33249 13.4357V6.11989C3.33249 5.75233 3.6316 5.45322 3.99916 5.45322H15.9992C16.3667 5.45322 16.6658 5.75233 16.6658 6.11989V13.4357Z" fill="#8090A7"/>
<path d="M8.18177 7.09851H5.07555C4.83021 7.09851 4.6311 7.29762 4.6311 7.54296V12.0125C4.6311 12.2578 4.83021 12.457 5.07555 12.457H8.18199C8.42733 12.457 8.62644 12.2578 8.62644 12.0125V7.54296C8.62621 7.2974 8.42733 7.09851 8.18177 7.09851ZM7.73733 11.5681H5.51977V7.9874H7.73733V11.5681Z" fill="#8090A7"/>
<path d="M14.9683 7.09851H10.2601C10.0148 7.09851 9.81567 7.29762 9.81567 7.54296C9.81567 7.78829 10.0148 7.9874 10.2601 7.9874H14.9686C15.2139 7.9874 15.413 7.78829 15.413 7.54296C15.413 7.29762 15.2139 7.09851 14.9683 7.09851Z" fill="#8090A7"/>
<path d="M14.9683 9.33325H10.2601C10.0148 9.33325 9.81567 9.53236 9.81567 9.7777C9.81567 10.023 10.0148 10.2221 10.2601 10.2221H14.9686C15.2139 10.2221 15.413 10.0233 15.413 9.7777C15.413 9.53214 15.2139 9.33325 14.9683 9.33325Z" fill="#8090A7"/>
<path d="M13.1115 11.5679H10.2601C10.0148 11.5679 9.81567 11.767 9.81567 12.0123C9.81567 12.2576 10.0148 12.4568 10.2601 12.4568H13.1115C13.3568 12.4568 13.5559 12.2576 13.5559 12.0123C13.5559 11.767 13.3568 11.5679 13.1115 11.5679Z" fill="#8090A7"/>
</svg>
