<svg width="20" height="20" viewBox="0 0 20 20" fill="currentColor" xmlns="http://www.w3.org/2000/svg">
<path d="M16.5169 15.9082L14.9217 17.5034C13.4986 18.9265 8.93628 17.0558 6.448 14.5675C3.95949 12.079 2.08882 7.51714 3.51209 6.09386L5.10733 4.49863C5.58368 4.02228 6.338 4.06221 6.76481 4.58388L8.88064 7.16999C9.28453 7.66365 9.24856 8.41122 8.79809 8.86169L7.79025 9.86953C7.66309 9.9967 7.6283 10.2603 7.71773 10.4095C7.74509 10.4615 7.76566 10.5005 7.79922 10.5593C7.85789 10.6621 7.9305 10.7793 8.01751 10.9083C8.26907 11.2813 8.5838 11.6691 8.96512 12.0504C9.34641 12.4317 9.73472 12.7467 10.1084 12.9988C10.2377 13.086 10.3553 13.1588 10.4584 13.2177C10.5175 13.2514 10.5566 13.272 10.5731 13.2801C10.7562 13.3852 11.0205 13.3508 11.146 13.2253L12.1539 12.2174C12.6042 11.7671 13.3523 11.7313 13.8455 12.1349L16.4317 14.2507C16.9538 14.678 16.9937 15.4314 16.5169 15.9082ZM7.1191 9.19838L8.12694 8.19054C8.23209 8.08539 8.2416 7.88783 8.14603 7.77102L6.03019 5.18491C5.95812 5.09682 5.85681 5.09146 5.77848 5.16978L4.18325 6.76502C3.29055 7.65771 4.9658 11.743 7.11915 13.8964C9.27228 16.0495 13.358 17.7248 14.2505 16.8323L15.8458 15.2371C15.9245 15.1583 15.9192 15.0578 15.8306 14.9854L13.2445 12.8695C13.128 12.7742 12.9299 12.7837 12.825 12.8886L11.8172 13.8964C11.3913 14.3223 10.6657 14.4204 10.1413 14.1254C10.0197 14.0646 9.82534 13.9527 9.57772 13.7857C9.15547 13.5009 8.72015 13.1478 8.29396 12.7216C7.8678 12.2954 7.51494 11.8606 7.23064 11.4391C7.06511 11.1937 6.95386 11.0008 6.89293 10.8792C6.59091 10.355 6.69139 9.6261 7.1191 9.19838Z" fill="#8090A7"/>
</svg>
