<svg width="20" height="20" viewBox="0 0 20 20" fill="currentColor" xmlns="http://www.w3.org/2000/svg">
<g id="Frame 1000003402">
<path id="Vector" d="M14.9111 2.3999H4.28887C3.02476 2.3999 2 3.42466 2 4.68877V15.311C2 16.5751 3.02476 17.5999 4.28887 17.5999H14.9111C16.1752 17.5999 17.2 16.5751 17.2 15.311V4.68877C17.2 3.42466 16.1752 2.3999 14.9111 2.3999Z"  stroke-miterlimit="10"/>
<path id="Vector_2" d="M10.3295 6.37485L11.1249 7.98087C11.181 8.09317 11.264 8.18987 11.3665 8.26241C11.469 8.33494 11.5878 8.38106 11.7124 8.39669L13.202 8.58743C13.348 8.60679 13.4853 8.66798 13.5973 8.76363C13.7092 8.85927 13.7911 8.98528 13.8331 9.12644C13.875 9.26761 13.8752 9.41789 13.8337 9.55917C13.7921 9.70044 13.7105 9.82666 13.5988 9.9226L12.441 10.9049C12.3358 10.9935 12.2566 11.1089 12.2116 11.2388C12.1666 11.3687 12.1575 11.5084 12.1854 11.6431L12.5478 13.3902C12.5758 13.5342 12.5617 13.6831 12.5073 13.8193C12.4528 13.9554 12.3603 14.073 12.2408 14.1579C12.1212 14.2428 11.9798 14.2915 11.8333 14.2981C11.6868 14.3047 11.5415 14.269 11.4148 14.1952L9.98046 13.3616C9.86313 13.2925 9.72944 13.2561 9.59326 13.2561C9.45709 13.2561 9.32339 13.2925 9.20606 13.3616L7.78315 14.1952C7.65582 14.2704 7.50938 14.3069 7.36165 14.3004C7.21392 14.2939 7.07126 14.2446 6.95102 14.1586C6.83078 14.0725 6.73816 13.9533 6.6844 13.8155C6.63065 13.6778 6.61809 13.5274 6.64825 13.3826L7.01065 11.6354C7.03852 11.5008 7.02949 11.3611 6.98449 11.2312C6.9395 11.1012 6.86023 10.9859 6.75506 10.8973L5.61063 9.92641C5.49877 9.83011 5.41724 9.70342 5.37594 9.56171C5.33463 9.42 5.33532 9.26935 5.37792 9.12803C5.42052 8.9867 5.5032 8.86077 5.61594 8.76549C5.72868 8.67021 5.86664 8.60968 6.01309 8.59124L7.68015 8.4005C7.81271 8.38484 7.93883 8.33467 8.04594 8.25501C8.15304 8.17535 8.23738 8.06899 8.29051 7.94654L8.95238 6.42063C9.00998 6.28841 9.10388 6.17522 9.2232 6.09419C9.34251 6.01317 9.48234 5.96762 9.62649 5.96282C9.77063 5.95803 9.91319 5.9942 10.0376 6.06712C10.162 6.14005 10.2633 6.24675 10.3295 6.37485Z"  stroke-miterlimit="10"/>
</g>
</svg>
