<svg width="20" height="20" viewBox="0 0 20 20" fill="currentColor" xmlns="http://www.w3.org/2000/svg">
<path d="M12.8334 6.66671C12.8334 8.23151 11.5649 9.50004 10.0001 9.50004C8.43527 9.50004 7.16675 8.23151 7.16675 6.66671C7.16675 5.1019 8.43527 3.83337 10.0001 3.83337C11.5649 3.83337 12.8334 5.1019 12.8334 6.66671Z" stroke="#8090A7" stroke-linecap="round"/>
<path d="M3.89557 14.7476C4.35607 12.3614 6.8314 11.25 9.26167 11.25H10.7383C13.1686 11.25 15.6439 12.3614 16.1044 14.7476C16.1361 14.9116 16.1634 15.08 16.1856 15.2523C16.256 15.8001 15.8023 16.25 15.25 16.25H4.75C4.19771 16.25 3.74395 15.8001 3.81441 15.2523C3.83657 15.08 3.86392 14.9116 3.89557 14.7476Z" stroke="#8090A7" stroke-linecap="round"/>
</svg>
