<svg width="20" height="20" viewBox="0 0 20 20" fill="currentColor" xmlns="http://www.w3.org/2000/svg">
<g clip-path="url(#clip0_1783_51111)">
<path d="M9.99992 15C13.1583 15 15.9749 13.225 17.3499 10.4166C15.9749 7.60829 13.1583 5.83329 9.99992 5.83329C6.84159 5.83329 4.02492 7.60829 2.64992 10.4166C4.02492 13.225 6.84159 15 9.99992 15ZM9.99992 16.6666C5.83325 16.6666 2.27492 14.075 0.833252 10.4166C2.27492 6.75829 5.83325 4.16663 9.99992 4.16663C14.1666 4.16663 17.7249 6.75829 19.1666 10.4166C17.7249 14.075 14.1666 16.6666 9.99992 16.6666ZM9.99992 12.5C11.1499 12.5 12.0833 11.5666 12.0833 10.4166C12.0833 9.26663 11.1499 8.33329 9.99992 8.33329C8.84992 8.33329 7.91659 9.26663 7.91659 10.4166C7.91659 11.5666 8.84992 12.5 9.99992 12.5ZM9.99992 14.1666C7.93325 14.1666 6.24992 12.4833 6.24992 10.4166C6.24992 8.34996 7.93325 6.66663 9.99992 6.66663C12.0666 6.66663 13.7499 8.34996 13.7499 10.4166C13.7499 12.4833 12.0666 14.1666 9.99992 14.1666Z" fill="#8090A7"/>
</g>
<defs>
<clipPath id="clip0_1783_51111">
<rect width="20" height="20" fill="white" transform="matrix(1 0 0 -1 0 20)"/>
</clipPath>
</defs>
</svg>
