<svg width="20" height="20" viewBox="0 0 20 20" fill="currentColor" xmlns="http://www.w3.org/2000/svg">
<g clip-path="url(#clip0_1783_51108)">
<path d="M10.0004 14.9994C13.1587 14.9994 15.9754 13.2244 17.3504 10.4161C16.8587 9.39943 16.1671 8.52443 15.3421 7.8161L16.5171 6.6411C17.6754 7.6661 18.5921 8.94943 19.1671 10.4161C17.7254 14.0744 14.1671 16.6661 10.0004 16.6661C8.94207 16.6661 7.92541 16.4994 6.96707 16.1911L8.34207 14.8161C8.88374 14.9244 9.43374 14.9994 10.0004 14.9994ZM9.10874 14.0494L10.8337 12.3244C11.3087 12.1161 11.6921 11.7328 11.9004 11.2578L13.6254 9.53276C13.6921 9.8161 13.7421 10.1161 13.7421 10.4244C13.7504 12.4911 12.0671 14.1661 10.0004 14.1661C9.69207 14.1661 9.40041 14.1244 9.10874 14.0494ZM1.67541 16.7744L3.90874 14.5411C2.55041 13.4744 1.47541 12.0578 0.83374 10.4161C2.27541 6.75776 5.83374 4.1661 10.0004 4.1661C11.2671 4.1661 12.4837 4.40776 13.6004 4.84943L16.4504 1.99943L17.6254 3.17443L2.85041 17.9578L1.67541 16.7744ZM7.92541 10.5244L10.1004 8.34943C10.0671 8.3411 10.0337 8.33276 10.0004 8.33276C8.85041 8.33276 7.91707 9.2661 7.91707 10.4161C7.91707 10.4578 7.92541 10.4828 7.92541 10.5244ZM5.09207 13.3578L6.55041 11.8994C6.35874 11.4411 6.25041 10.9411 6.25041 10.4161C6.25041 8.34943 7.93374 6.6661 10.0004 6.6661C10.5254 6.6661 11.0254 6.77443 11.4754 6.9661L12.2921 6.14943C11.5587 5.94943 10.7921 5.83276 10.0004 5.83276C6.84207 5.83276 4.02541 7.60776 2.65041 10.4161C3.23374 11.6078 4.08374 12.5911 5.09207 13.3578Z" fill="#8090A7"/>
</g>
<defs>
<clipPath id="clip0_1783_51108">
<rect width="20" height="20" fill="white" transform="matrix(1 0 0 -1 0 20)"/>
</clipPath>
</defs>
</svg>
