<svg xmlns="http://www.w3.org/2000/svg" width="15" height="16" viewBox="0 0 15 16" fill="none">
  <path d="M12.2972 1.34961H3.00276C1.89667 1.34961 1 2.24628 1 3.35237V12.6468C1 13.7529 1.89667 14.6496 3.00276 14.6496H12.2972C13.4033 14.6496 14.3 13.7529 14.3 12.6468V3.35237C14.3 2.24628 13.4033 1.34961 12.2972 1.34961Z" stroke="#131627" stroke-miterlimit="10"/>
  <path d="M8.28829 4.82769L8.98425 6.23296C9.03339 6.33122 9.10601 6.41583 9.19568 6.4793C9.28535 6.54277 9.38929 6.58313 9.4983 6.5968L10.8018 6.76369C10.9295 6.78063 11.0496 6.83418 11.1476 6.91787C11.2456 7.00156 11.3172 7.11181 11.3539 7.23533C11.3906 7.35885 11.3908 7.49035 11.3544 7.61397C11.318 7.73758 11.2467 7.84802 11.1489 7.93197L10.1358 8.79149C10.0438 8.869 9.97446 8.96994 9.93509 9.08364C9.89572 9.19734 9.88781 9.31956 9.9122 9.43738L10.2293 10.9662C10.2538 11.0921 10.2415 11.2224 10.1938 11.3415C10.1462 11.4607 10.0652 11.5635 9.96064 11.6379C9.85605 11.7122 9.73226 11.7548 9.60409 11.7605C9.47592 11.7663 9.3488 11.735 9.23794 11.6705L7.98287 10.9411C7.88021 10.8806 7.76323 10.8488 7.64407 10.8488C7.52492 10.8488 7.40794 10.8806 7.30527 10.9411L6.06022 11.6705C5.94881 11.7363 5.82068 11.7683 5.69141 11.7626C5.56215 11.7569 5.43732 11.7138 5.33211 11.6384C5.22691 11.5631 5.14586 11.4588 5.09882 11.3383C5.05179 11.2178 5.0408 11.0861 5.06719 10.9595L5.38429 9.4307C5.40868 9.31288 5.40077 9.19066 5.3614 9.07696C5.32203 8.96327 5.25267 8.86233 5.16065 8.78481L4.15927 7.93531C4.06139 7.85104 3.99006 7.74019 3.95392 7.61619C3.91777 7.4922 3.91838 7.36038 3.95565 7.23672C3.99293 7.11306 4.06527 7.00286 4.16392 6.9195C4.26257 6.83613 4.38328 6.78317 4.51142 6.76703L5.9701 6.60013C6.08609 6.58643 6.19645 6.54253 6.29017 6.47283C6.38388 6.40313 6.45767 6.31006 6.50417 6.20292L7.0833 4.86775C7.1337 4.75205 7.21587 4.65301 7.32027 4.58211C7.42466 4.51121 7.54702 4.47136 7.67315 4.46717C7.79927 4.46297 7.92401 4.49462 8.03288 4.55843C8.14176 4.62224 8.23032 4.7156 8.28829 4.82769Z" stroke="#131627" stroke-miterlimit="10"/>
</svg>
