<svg width="11" height="7" viewBox="0 0 11 7" fill="none" xmlns="http://www.w3.org/2000/svg">
<path d="M0.923019 6.78276C0.985043 6.7827 1.04642 6.7696 1.10348 6.74424L9.51317 3.01421L8.94594 4.45095C8.92201 4.50956 8.90947 4.57254 8.90904 4.63624C8.90861 4.69995 8.9203 4.76311 8.94344 4.82207C8.96658 4.88102 9.0007 4.9346 9.04383 4.9797C9.08696 5.0248 9.13824 5.06052 9.19471 5.0848C9.25117 5.10907 9.31168 5.12141 9.37275 5.12111C9.43382 5.12081 9.49422 5.10787 9.55046 5.08304C9.6067 5.05821 9.65765 5.02198 9.70037 4.97646C9.74309 4.93093 9.77673 4.87702 9.79933 4.81784L10.7935 2.29921C10.8393 2.18143 10.8386 2.04952 10.7916 1.93227C10.7446 1.81501 10.655 1.72191 10.5424 1.67328L8.12856 0.636169C8.07237 0.611203 8.012 0.598117 7.95094 0.597668C7.88987 0.59722 7.82932 0.609418 7.77281 0.633556C7.7163 0.657694 7.66494 0.693292 7.6217 0.738287C7.57847 0.783282 7.54423 0.83678 7.52096 0.895681C7.49769 0.954581 7.48586 1.01771 7.48615 1.08142C7.48644 1.14512 7.49885 1.20814 7.52265 1.2668C7.54645 1.32547 7.58118 1.37863 7.62481 1.4232C7.66845 1.46776 7.72013 1.50285 7.77687 1.52643L9.16702 2.12347L0.742558 5.85784C0.644433 5.90113 0.56369 5.97851 0.514027 6.07684C0.464363 6.17517 0.44884 6.2884 0.470089 6.39731C0.491339 6.50622 0.548053 6.60411 0.630609 6.67437C0.713165 6.74462 0.816478 6.78292 0.923019 6.78276Z" fill="#131627"/>
</svg>
