<svg xmlns="http://www.w3.org/2000/svg" width="20" height="20" viewBox="0 0 20 20" fill="none">
  <path d="M8.93197 5.84875C8.92394 5.70354 8.94562 5.55821 8.99567 5.42165C9.04572 5.2851 9.12309 5.16018 9.22305 5.05454C9.32302 4.94891 9.44347 4.86476 9.57706 4.80726C9.71065 4.74975 9.85456 4.72009 10 4.72009C10.1454 4.72009 10.2893 4.74975 10.4229 4.80726C10.5565 4.86476 10.677 4.94891 10.7769 5.05454C10.8769 5.16018 10.9543 5.2851 11.0043 5.42165C11.0544 5.55821 11.0761 5.70354 11.068 5.84875L10.7952 10.7864C10.7839 10.9897 10.6953 11.1809 10.5474 11.3209C10.3995 11.4608 10.2036 11.5388 9.99999 11.5388C9.79638 11.5388 9.6005 11.4608 9.45261 11.3209C9.30472 11.1809 9.21605 10.9897 9.20482 10.7864L8.93197 5.84875ZM10 12.4714C9.82118 12.4714 9.64634 12.5244 9.49763 12.6238C9.34892 12.7232 9.23301 12.8644 9.16456 13.0296C9.09612 13.1949 9.07821 13.3767 9.1131 13.5521C9.14799 13.7275 9.23412 13.8887 9.36059 14.0152C9.48706 14.1416 9.6482 14.2278 9.82362 14.2626C9.99904 14.2975 10.1809 14.2796 10.3461 14.2112C10.5114 14.1427 10.6526 14.0268 10.752 13.8781C10.8513 13.7294 10.9044 13.5546 10.9044 13.3757C10.9044 13.2569 10.881 13.1394 10.8355 13.0296C10.7901 12.9199 10.7235 12.8202 10.6395 12.7363C10.5555 12.6523 10.4558 12.5857 10.3461 12.5402C10.2364 12.4948 10.1188 12.4714 10 12.4714ZM2 9.5C2 7.91775 2.46919 6.37103 3.34824 5.05544C4.22729 3.73985 5.47672 2.71447 6.93853 2.10897C8.40034 1.50347 10.0089 1.34504 11.5607 1.65372C13.1126 1.9624 14.538 2.72433 15.6569 3.84315C16.7757 4.96197 17.5376 6.38743 17.8463 7.93928C18.155 9.49113 17.9965 11.0997 17.391 12.5615C16.7855 14.0233 15.7602 15.2727 14.4446 16.1518C13.129 17.0308 11.5822 17.5 10 17.5C7.879 17.4976 5.84554 16.654 4.34577 15.1542C2.84599 13.6545 2.00237 11.621 2 9.5ZM3.24444 9.5C3.24444 10.8361 3.64065 12.1422 4.38296 13.2532C5.12527 14.3641 6.18034 15.23 7.41476 15.7413C8.64918 16.2526 10.0075 16.3864 11.3179 16.1258C12.6284 15.8651 13.8321 15.2217 14.7769 14.2769C15.7217 13.3321 16.3651 12.1284 16.6257 10.8179C16.8864 9.5075 16.7526 8.14918 16.2413 6.91476C15.73 5.68035 14.8641 4.62527 13.7532 3.88296C12.6422 3.14065 11.3361 2.74445 10 2.74445C8.20894 2.74648 6.49182 3.45888 5.22535 4.72535C3.95887 5.99182 3.24648 7.70894 3.24444 9.5Z" fill="#131627"/>
</svg>
