<svg width="20" height="20" viewBox="0 0 20 20" fill="none" xmlns="http://www.w3.org/2000/svg">
<path d="M5.41675 7.91663L3.76028 9.57309C3.44897 9.88441 3.29331 10.0401 3.182 10.2217C3.0833 10.3828 3.01058 10.5583 2.96648 10.742C2.91675 10.9492 2.91675 11.1693 2.91675 11.6096V14.2033C2.91675 15.2114 2.91675 15.7154 3.11294 16.1005C3.28551 16.4392 3.56087 16.7145 3.89957 16.8871C4.28461 17.0833 4.78865 17.0833 5.79675 17.0833H14.2034C15.2115 17.0833 15.7156 17.0833 16.1006 16.8871C16.4393 16.7145 16.7147 16.4392 16.8872 16.1005C17.0834 15.7154 17.0834 15.2114 17.0834 14.2033V11.6096C17.0834 11.1693 17.0834 10.9492 17.0337 10.742C16.9896 10.5583 16.9169 10.3828 16.8182 10.2217C16.7069 10.0401 16.5512 9.88441 16.2399 9.57309L14.5834 7.91663" stroke="#8090A7"/>
<path d="M17.0834 12.0834H15.0677C14.4935 12.0834 14.2063 12.0834 13.9764 12.2141C13.9142 12.2496 13.8559 12.2916 13.8026 12.3395C13.6058 12.5162 13.515 12.7886 13.3334 13.3334V13.3334C13.1518 13.8781 13.061 14.1505 12.8643 14.3273C12.811 14.3752 12.7527 14.4172 12.6904 14.4526C12.4605 14.5834 12.1734 14.5834 11.5991 14.5834H8.40103C7.82679 14.5834 7.53967 14.5834 7.30976 14.4526C7.24748 14.4172 7.1892 14.3752 7.1359 14.3273C6.93913 14.1505 6.84834 13.8781 6.66675 13.3334V13.3334C6.48516 12.7886 6.39436 12.5162 6.19759 12.3395C6.1443 12.2916 6.08601 12.2496 6.02374 12.2141C5.79383 12.0834 5.50671 12.0834 4.93247 12.0834H2.91675" stroke="#8090A7"/>
<path d="M14.5834 12.0833V6.91274C14.5834 6.66815 14.5834 6.54586 14.5558 6.43077C14.5313 6.32873 14.4909 6.23119 14.4361 6.14171C14.3742 6.0408 14.2877 5.95432 14.1148 5.78137L12.552 4.21863C12.3791 4.04568 12.2926 3.9592 12.1917 3.89736C12.1022 3.84253 12.0047 3.80213 11.9026 3.77763C11.7876 3.75 11.6653 3.75 11.4207 3.75H7.81675C6.97667 3.75 6.55663 3.75 6.23576 3.91349C5.95352 4.0573 5.72405 4.28677 5.58024 4.56901C5.41675 4.88988 5.41675 5.30992 5.41675 6.15V12.0833" stroke="#8090A7"/>
<path d="M11.25 3.75004L11.25 5.48337C11.25 6.04343 11.25 6.32345 11.359 6.53736C11.4549 6.72553 11.6078 6.87851 11.796 6.97438C12.0099 7.08337 12.2899 7.08337 12.85 7.08337L14.5833 7.08337" stroke="#8090A7"/>
</svg>
