<svg width="20" height="20" viewBox="0 0 20 20" fill="none" xmlns="http://www.w3.org/2000/svg">
<path d="M4.71213 6.16137C5.0115 3.46699 7.28894 1.42859 9.99989 1.42859V1.42859C12.7109 1.42859 14.9883 3.46699 15.2877 6.16137L15.5275 8.31967C15.6505 9.42687 16.0109 10.4945 16.584 11.4498L17.1345 12.3673C17.5952 13.1351 17.8256 13.519 17.8025 13.8349C17.7806 14.1338 17.6259 14.4071 17.3808 14.5796C17.1219 14.7619 16.6741 14.7619 15.7787 14.7619H4.22107C3.32564 14.7619 2.87793 14.7619 2.61896 14.5796C2.37393 14.4071 2.21919 14.1338 2.19732 13.8349C2.17421 13.519 2.40456 13.1351 2.86525 12.3673L3.41576 11.4498C3.98891 10.4945 4.34929 9.42687 4.47231 8.31967L4.71213 6.16137Z" stroke="#8090A7" stroke-width="2"/>
<path d="M7.24 15.3949C7.40279 16.3062 7.76149 17.1115 8.26047 17.6858C8.75946 18.2601 9.37084 18.5714 9.99979 18.5714C10.6287 18.5714 11.2401 18.2601 11.7391 17.6858C12.2381 17.1115 12.5968 16.3062 12.7596 15.3949" stroke="#8090A7" stroke-width="2" stroke-linecap="round"/>
</svg>
