<svg width="20" height="20" viewBox="0 0 20 20" fill="none" xmlns="http://www.w3.org/2000/svg">
<path d="M14.646 18.4765H5.3538C2.86099 18.4718 0.837903 16.4487 0.833252 13.9559V4.72878C0.833252 2.80801 2.39126 1.25465 4.31203 1.25H6.95832C8.93024 1.25 9.5953 1.8732 10.2604 2.69174C10.5952 3.10566 10.8603 3.43121 11.5626 3.6777C12.2323 3.91024 13.2415 3.90559 14.6414 3.90094C16.0273 3.89629 17.1389 4.29625 17.9388 5.09154C18.7387 5.88682 19.1666 7.04486 19.1666 8.42149V13.9559C19.1619 16.4487 17.1388 18.4718 14.646 18.4765ZM4.31203 2.73825C3.21445 2.73825 2.32615 3.63119 2.3215 4.72878V13.9559C2.3215 15.6302 3.67952 16.9882 5.3538 16.9882H14.646C16.3203 16.9882 17.6783 15.6302 17.6783 13.9559V8.41684C17.6783 7.73782 17.5388 6.79372 16.8877 6.14261C16.3808 5.63568 15.6273 5.37988 14.6507 5.38453C13.102 5.38918 11.9811 5.39849 11.0696 5.07758C9.97201 4.69157 9.48833 4.10092 9.10232 3.62654C8.66515 3.0917 8.3768 2.7336 6.95366 2.7336L4.31203 2.73825Z" fill="#8090A7"/>
<path d="M13.2833 13.9839H6.20018C5.79091 13.9839 5.45605 13.649 5.45605 13.2397C5.45605 12.8305 5.79091 12.4956 6.20018 12.4956H13.2833C13.6926 12.4956 14.0274 12.8305 14.0274 13.2397C14.0274 13.649 13.6926 13.9839 13.2833 13.9839Z" fill="#8090A7"/>
<path d="M10.3394 10.6445H6.20018C5.79091 10.6445 5.45605 10.3096 5.45605 9.90037C5.45605 9.49111 5.79091 9.15625 6.20018 9.15625H10.3394C10.7486 9.15625 11.0835 9.49111 11.0835 9.90037C11.0835 10.3143 10.7486 10.6445 10.3394 10.6445Z" fill="#8090A7"/>
</svg>
