<svg width="20" height="20" viewBox="0 0 20 20" fill="none" xmlns="http://www.w3.org/2000/svg">
<path d="M6.01578 17.5452H15.6383C16.8658 17.5452 17.8633 16.5477 17.8633 15.3202C17.8633 15.1852 17.7558 15.0777 17.6208 15.0777H7.78078C7.33828 15.0827 6.95328 15.1527 6.88328 16.0902C6.84828 16.5852 6.46328 16.9927 5.99328 17.0327C5.69828 17.0577 5.39578 16.9502 5.17578 16.7427C4.97578 16.5552 4.86328 16.3127 4.86328 16.0552L4.94328 4.08516C4.94328 3.22516 4.25328 2.53516 3.40328 2.53516C2.55328 2.53516 1.86328 3.22516 1.86328 4.07516V4.86266C1.86328 4.99766 1.97078 5.10516 2.10578 5.10516H4.45078L4.37828 16.0552C4.37828 16.4502 4.54328 16.8177 4.84328 17.0977C5.13328 17.3702 5.52328 17.5252 5.91328 17.5227C5.94578 17.5377 5.97828 17.5452 6.01578 17.5452ZM17.3608 15.5627C17.2433 16.4077 16.5158 17.0602 15.6383 17.0602H6.95828C7.19078 16.8127 7.34078 16.4852 7.36828 16.1277C7.41078 15.5627 7.49328 15.5602 7.77828 15.5627H17.3608ZM4.45328 4.62016H2.34578V4.07516C2.34578 3.49266 2.81828 3.02016 3.40078 3.02016C3.98328 3.02016 4.45578 3.49266 4.45578 4.07266L4.45328 4.62016Z" fill="#8090A7" stroke="#8090A7" stroke-width="0.3"/>
<path d="M15.9137 15.5626C16.0487 15.5626 16.1562 15.4551 16.1562 15.3201V4.35512C16.1562 3.36262 15.3488 2.55762 14.3588 2.55762H3.62625C3.49125 2.55762 3.38375 2.66512 3.38375 2.80012C3.38375 2.93512 3.49125 3.04262 3.62625 3.04262H14.3588C15.0838 3.04262 15.6713 3.63262 15.6713 4.35512V15.3201C15.6713 15.4526 15.7787 15.5626 15.9137 15.5626Z" fill="#8090A7" stroke="#8090A7" stroke-width="0.3"/>
<path d="M7.26852 5.60756H14.7985C14.9335 5.60756 15.041 5.50006 15.041 5.36506C15.041 5.23006 14.9335 5.12256 14.7985 5.12256H7.26852C7.13352 5.12256 7.02602 5.23006 7.02602 5.36506C7.02602 5.49756 7.13602 5.60756 7.26852 5.60756Z" fill="#8090A7" stroke="#8090A7" stroke-width="0.3"/>
<path d="M9.68102 7.9352H14.7985C14.9335 7.9352 15.041 7.8277 15.041 7.6927C15.041 7.5577 14.9335 7.4502 14.7985 7.4502H9.68102C9.54602 7.4502 9.43852 7.5577 9.43852 7.6927C9.43852 7.8277 9.54852 7.9352 9.68102 7.9352Z" fill="#8090A7" stroke="#8090A7" stroke-width="0.3"/>
<path d="M10.8085 10.2604H14.7985C14.9335 10.2604 15.041 10.1529 15.041 10.0179C15.041 9.88289 14.9335 9.77539 14.7985 9.77539H10.8085C10.6735 9.77539 10.566 9.88289 10.566 10.0179C10.566 10.1529 10.6735 10.2604 10.8085 10.2604Z" fill="#8090A7" stroke="#8090A7" stroke-width="0.3"/>
<path d="M11.291 12.5875H14.7985C14.9335 12.5875 15.041 12.48 15.041 12.345C15.041 12.21 14.9335 12.1025 14.7985 12.1025H11.291C11.156 12.1025 11.0485 12.21 11.0485 12.345C11.0485 12.48 11.156 12.5875 11.291 12.5875Z" fill="#8090A7" stroke="#8090A7" stroke-width="0.3"/>
<path d="M6.25766 13.5699C6.29766 13.5699 6.33516 13.5599 6.37016 13.5424L7.33766 13.0274L8.30516 13.5424C8.38016 13.5824 8.47016 13.5799 8.54266 13.5374C8.61516 13.4924 8.66016 13.4149 8.66016 13.3299V11.2249C8.66016 11.0899 8.55266 10.9824 8.41766 10.9824C8.28266 10.9824 8.17516 11.0899 8.17516 11.2249V12.9274L7.45016 12.5424C7.38016 12.5049 7.29516 12.5049 7.22266 12.5424L6.49766 12.9274V11.2249C6.49766 11.0899 6.39016 10.9824 6.25516 10.9824C6.12016 10.9824 6.01266 11.0899 6.01266 11.2249V13.3299C6.01266 13.4149 6.05766 13.4949 6.13016 13.5374C6.17016 13.5574 6.21266 13.5699 6.25766 13.5699Z" fill="#8090A7" stroke="#8090A7" stroke-width="0.3"/>
<path d="M7.33859 11.8853C8.35609 11.8853 9.18359 11.0578 9.18359 10.0403C9.18359 9.02281 8.35609 8.19531 7.33859 8.19531C6.32109 8.19531 5.49359 9.02281 5.49359 10.0403C5.49359 11.0578 6.32109 11.8853 7.33859 11.8853ZM7.33859 8.67781C8.08859 8.67781 8.69859 9.28781 8.69859 10.0378C8.69859 10.7878 8.08859 11.3978 7.33859 11.3978C6.58859 11.3978 5.97859 10.7878 5.97859 10.0378C5.97859 9.29031 6.58859 8.67781 7.33859 8.67781Z" fill="#8090A7" stroke="#8090A7" stroke-width="0.3"/>
</svg>
