<svg width="20" height="20" viewBox="0 0 20 20" fill="none" xmlns="http://www.w3.org/2000/svg">
<path d="M4.32112 3.38086C3.3696 3.38086 2.58789 4.15808 2.58789 5.10935V13.5549C2.58789 14.5062 3.3696 15.2818 4.32112 15.2818H5.76289V17.2676C5.76209 17.3482 5.78582 17.4271 5.83094 17.4938C5.87605 17.5605 5.94041 17.6119 6.01546 17.6412C6.0905 17.6705 6.17269 17.6762 6.25108 17.6577C6.32947 17.6391 6.40036 17.5972 6.45432 17.5374L8.53326 15.2819H16.7281C17.6796 15.2819 18.4629 14.5062 18.4629 13.5549V5.10938C18.4629 4.15811 17.6796 3.38091 16.7281 3.38091L4.32112 3.38086ZM4.32112 4.17149H16.7281C17.2537 4.17149 17.666 4.58387 17.666 5.10935V13.5549C17.666 14.0804 17.2537 14.4912 16.7281 14.4912H8.35808C8.30344 14.4904 8.24922 14.5008 8.1988 14.5218C8.14838 14.5429 8.10285 14.5742 8.06507 14.6136L6.55974 16.2475V14.8834C6.55854 14.7787 6.51598 14.6787 6.44134 14.6052C6.36671 14.5318 6.26605 14.4908 6.16132 14.4912H4.32112C3.79549 14.4912 3.38474 14.0804 3.38474 13.5549V5.10935C3.38474 4.58387 3.79549 4.17149 4.32112 4.17149ZM10.5285 6.15729C10.476 6.15726 10.4241 6.16756 10.3756 6.18759C10.3272 6.20762 10.2832 6.23698 10.2462 6.27399C10.2092 6.31101 10.1798 6.35495 10.1599 6.40329C10.14 6.45163 10.1298 6.50342 10.1301 6.55568V10.5211C10.1298 10.5734 10.14 10.6252 10.1599 10.6735C10.1798 10.7219 10.2092 10.7658 10.2462 10.8028C10.2832 10.8398 10.3272 10.8692 10.3756 10.8892C10.4241 10.9093 10.476 10.9196 10.5285 10.9195C10.6336 10.9184 10.734 10.8758 10.8078 10.8012C10.8816 10.7266 10.9227 10.6259 10.9223 10.5211V6.55568C10.9227 6.45094 10.8816 6.35025 10.8078 6.27562C10.734 6.20098 10.6336 6.15846 10.5285 6.15729ZM10.499 11.7117C10.3985 11.7191 10.3046 11.7641 10.2361 11.8378C10.1677 11.9114 10.1298 12.0082 10.1301 12.1086V12.1146C10.1309 12.2193 10.1732 12.3195 10.2478 12.3932C10.3225 12.467 10.4234 12.5084 10.5285 12.5083C10.6328 12.5071 10.7325 12.4653 10.8061 12.3916C10.8798 12.318 10.9215 12.2185 10.9223 12.1146V12.1086C10.9223 12.0041 10.881 11.9038 10.8072 11.8295C10.7335 11.7552 10.6334 11.7128 10.5285 11.7117C10.5187 11.7113 10.5088 11.7113 10.499 11.7117Z" fill="#8090A7" stroke="#8090A7" stroke-width="0.3"/>
</svg>
