<svg width="20" height="20" viewBox="0 0 20 20" fill="none" xmlns="http://www.w3.org/2000/svg">
<path d="M9.78397 4.51026C9.78397 4.33175 9.64265 4.19043 9.46414 4.19043H5.7005C4.5848 4.19043 3.66992 5.09787 3.66992 6.22101V13.8301C3.66992 14.9458 4.57736 15.8532 5.7005 15.8532H13.9418C15.0575 15.8532 15.965 14.9458 15.965 13.8301V10.8103C15.965 10.6318 15.8236 10.4904 15.6451 10.4904C15.4666 10.4904 15.3253 10.6318 15.3253 10.8103V13.8301C15.3253 14.5962 14.7005 15.221 13.9344 15.221H5.70794C4.94182 15.221 4.31703 14.5962 4.31703 13.8301V6.22101C4.31703 5.45489 4.94182 4.8301 5.70794 4.8301H9.47157C9.65009 4.8301 9.79141 4.68878 9.79141 4.5177L9.78397 4.51026Z" fill="#8090A7" stroke="#8090A7" stroke-width="0.5" stroke-miterlimit="10"/>
<path d="M12.1718 12.4319C12.276 12.4319 12.3652 12.3798 12.4247 12.298L13.3396 11.0261C13.3768 10.974 13.3991 10.9071 13.3991 10.8401V4.2426C13.3991 3.84094 13.0718 3.51367 12.6702 3.51367H11.6586C11.257 3.51367 10.9297 3.84094 10.9297 4.2426V10.8476C10.9297 10.9145 10.952 10.9814 10.9892 11.0335L11.9041 12.3054C11.9636 12.3872 12.0603 12.4393 12.1644 12.4393L12.1718 12.4319ZM11.5694 4.2426C11.5694 4.19053 11.614 4.1459 11.6661 4.1459H12.6776C12.7297 4.1459 12.7743 4.19053 12.7743 4.2426V10.7434L12.1718 11.5765L11.5694 10.7434V4.2426Z" fill="#8090A7" stroke="#8090A7" stroke-width="0.5" stroke-miterlimit="10"/>
<path d="M9.07795 7.39697H6.05812C5.8796 7.39697 5.73828 7.53829 5.73828 7.71681C5.73828 7.89532 5.8796 8.03664 6.05812 8.03664H9.07795C9.25646 8.03664 9.39779 7.89532 9.39779 7.71681C9.39779 7.53829 9.25646 7.39697 9.07795 7.39697Z" fill="#8090A7" stroke="#8090A7" stroke-width="0.5" stroke-miterlimit="10"/>
<path d="M9.07795 9.5166H6.05812C5.8796 9.5166 5.73828 9.65792 5.73828 9.83644C5.73828 10.0149 5.8796 10.1563 6.05812 10.1563H9.07795C9.25646 10.1563 9.39779 10.0149 9.39779 9.83644C9.39779 9.65792 9.25646 9.5166 9.07795 9.5166Z" fill="#8090A7" stroke="#8090A7" stroke-width="0.5" stroke-miterlimit="10"/>
</svg>
