<svg width="20" height="20" viewBox="0 0 20 20" fill="none" xmlns="http://www.w3.org/2000/svg">
<path fill-rule="evenodd" clip-rule="evenodd" d="M2 5.85714C2 3.7269 3.76288 2 5.9375 2H14.6875C16.8621 2 18.625 3.7269 18.625 5.85714V10.0204C18.625 12.1506 16.8621 13.8775 14.6875 13.8775H13.1888L11.4462 16.8039C10.9398 17.6543 9.68521 17.6543 9.17876 16.8039L7.43621 13.8775H5.9375C3.76288 13.8775 2 12.1506 2 10.0204V5.85714ZM5.9375 2.85714C4.24612 2.85714 2.875 4.20029 2.875 5.85714V10.0204C2.875 11.6772 4.24612 13.0204 5.9375 13.0204H7.6875C7.8431 13.0204 7.98699 13.1014 8.0654 13.233L9.93459 16.372C10.1034 16.6555 10.5216 16.6555 10.6904 16.372L12.5596 13.233C12.638 13.1014 12.7819 13.0204 12.9375 13.0204H14.6875C16.3789 13.0204 17.75 11.6772 17.75 10.0204V5.85714C17.75 4.20029 16.3789 2.85714 14.6875 2.85714H5.9375Z" fill="#8090A7"/>
<path fill-rule="evenodd" clip-rule="evenodd" d="M10.3125 4.99972C11.0373 4.99972 11.625 5.57535 11.625 6.28544C11.625 6.99552 11.0373 7.57115 10.3125 7.57115C9.58765 7.57115 9 6.99552 9 6.28544C9 5.57535 9.58765 4.99972 10.3125 4.99972ZM12.5 6.28544C12.5 5.10197 11.5206 4.14258 10.3125 4.14258C9.10439 4.14258 8.125 5.10197 8.125 6.28544C8.125 7.4689 9.10439 8.42829 10.3125 8.42829C11.5206 8.42829 12.5 7.4689 12.5 6.28544Z" fill="#8090A7"/>
<path fill-rule="evenodd" clip-rule="evenodd" d="M10.3127 8.42941C11.4713 8.42941 12.4804 9.05958 13.001 9.99121C13.1353 10.2316 13.0922 10.4516 12.9274 10.6406C12.7489 10.8454 12.4275 11.0008 12.0627 11.0008H8.56266C8.19771 11.0008 7.87632 10.8454 7.69777 10.6406C7.53307 10.4516 7.48992 10.2316 7.6242 9.99121C8.14482 9.05958 9.15389 8.42941 10.3127 8.42941ZM13.7686 9.57969C13.1006 8.38437 11.8037 7.57227 10.3127 7.57227C8.82148 7.57227 7.52464 8.38437 6.85668 9.57969C6.52686 10.1698 6.66155 10.7717 7.03233 11.1971C7.38927 11.6067 7.96102 11.858 8.56266 11.858H12.0627C12.6642 11.858 13.2359 11.6067 13.5929 11.1971C13.9637 10.7717 14.0983 10.1698 13.7686 9.57969Z" fill="#8090A7"/>
</svg>
