<svg width="20" height="20" viewBox="0 0 20 20" fill="none" xmlns="http://www.w3.org/2000/svg">
<path d="M9.7 11H7.5C7.2 11 7 11.2 7 11.5C7 11.8 7.2 12 7.5 12H8.5V12.5C8.5 12.8 8.7 13 9 13C9.3 13 9.5 12.8 9.5 12.5V12H9.7C10.4 12 11 11.4 11 10.7V10.3C11 9.6 10.4 9 9.7 9H8.3C8.15 9 8 8.85 8 8.7V8.3C8 8.15 8.15 8 8.3 8H10.5C10.8 8 11 7.8 11 7.5C11 7.2 10.8 7 10.5 7H9.5V6.5C9.5 6.2 9.3 6 9 6C8.7 6 8.5 6.2 8.5 6.5V7H8.3C7.6 7 7 7.6 7 8.3V8.7C7 9.4 7.6 10 8.3 10H9.7C9.85 10 10 10.15 10 10.3V10.7C10 10.85 9.85 11 9.7 11Z" fill="#8090A7"/>
<path d="M17.4688 16.2492C17.2031 16.2492 16.9375 16.5243 16.9375 16.7994V17.1294L12.5281 12.5631C12.3156 12.343 11.9969 12.343 11.7844 12.5631L8.96875 15.479L5.09062 11.4628C4.87812 11.2427 4.55938 11.2427 4.34688 11.4628C4.13438 11.6828 4.13438 12.0129 4.34688 12.233L8.59687 16.6343C8.80937 16.8544 9.12813 16.8544 9.34063 16.6343L12.1562 13.7184L13.75 15.3689C12.5281 16.5793 10.8281 17.3495 8.96875 17.3495C5.14375 17.3495 2.0625 14.1586 2.0625 10.1974C2.0625 6.23625 5.14375 3.04531 8.96875 3.04531C12.7937 3.04531 15.875 6.23625 15.875 10.1974C15.875 11.4078 15.6094 12.5631 15.0781 13.5534L15.875 14.3786C16.5656 13.1683 16.9375 11.7379 16.9375 10.2524C16.9375 5.68608 13.3781 2 8.96875 2C4.55937 2 1 5.63107 1 10.1974C1 14.7638 4.55937 18.4498 8.96875 18.4498C11.0938 18.4498 13.0594 17.5696 14.4937 16.1392L16.1937 17.8997H15.875C15.6094 17.8997 15.3438 18.1748 15.3438 18.4498C15.3438 18.7249 15.6094 19 15.875 19H17.4688C17.7344 19 18 18.7249 18 18.4498V16.7994C18 16.5243 17.7344 16.2492 17.4688 16.2492Z" fill="#8090A7"/>
</svg>
