<svg width="20" height="20" viewBox="0 0 20 20" fill="none" xmlns="http://www.w3.org/2000/svg">
<g clip-path="url(#clip0_1783_51128)">
<path d="M4.77457 14.625C4.77457 15.2218 5.01185 15.7941 5.43421 16.216C5.85657 16.638 6.42941 16.875 7.02672 16.875H12.6571C13.2544 16.875 13.8273 16.638 14.2496 16.216C14.672 15.7941 14.9093 15.2218 14.9093 14.625V5.62503H16.0353C16.1847 5.62503 16.3279 5.56576 16.4335 5.46027C16.5391 5.35478 16.5984 5.21171 16.5984 5.06253C16.5984 4.91334 16.5391 4.77027 16.4335 4.66478C16.3279 4.55929 16.1847 4.50003 16.0353 4.50003H13.1695C13.0323 3.71782 12.6235 3.00899 12.0148 2.4982C11.4062 1.98742 10.6368 1.7074 9.84191 1.7074C9.04704 1.7074 8.27762 1.98742 7.66899 2.4982C7.06036 3.00899 6.65151 3.71782 6.51436 4.50003H3.64849C3.49916 4.50003 3.35595 4.55929 3.25036 4.66478C3.14477 4.77027 3.08545 4.91334 3.08545 5.06253C3.08545 5.21171 3.14477 5.35478 3.25036 5.46027C3.35595 5.56576 3.49916 5.62503 3.64849 5.62503H4.77457V14.625ZM9.84191 2.81253C10.3409 2.8129 10.8257 2.97883 11.2201 3.28426C11.6144 3.58969 11.8961 4.01733 12.0209 4.50003H7.66295C7.78771 4.01733 8.06939 3.58969 8.46377 3.28426C8.85816 2.97883 9.34291 2.8129 9.84191 2.81253ZM7.02672 5.62503H13.7832V14.625C13.7832 14.9234 13.6645 15.2095 13.4534 15.4205C13.2422 15.6315 12.9558 15.75 12.6571 15.75H7.02672C6.72807 15.75 6.44164 15.6315 6.23046 15.4205C6.01928 15.2095 5.90064 14.9234 5.90064 14.625V5.62503H7.02672ZM7.58976 13.5V7.87503C7.58976 7.72584 7.64908 7.58277 7.75467 7.47728C7.86026 7.37179 8.00347 7.31253 8.1528 7.31253C8.30213 7.31253 8.44534 7.37179 8.55093 7.47728C8.65652 7.58277 8.71584 7.72584 8.71584 7.87503V13.5C8.71584 13.6492 8.65652 13.7923 8.55093 13.8978C8.44534 14.0033 8.30213 14.0625 8.1528 14.0625C8.00347 14.0625 7.86026 14.0033 7.75467 13.8978C7.64908 13.7923 7.58976 13.6492 7.58976 13.5ZM10.968 13.5V7.87503C10.968 7.72584 11.0273 7.58277 11.1329 7.47728C11.2385 7.37179 11.3817 7.31253 11.531 7.31253C11.6804 7.31253 11.8236 7.37179 11.9292 7.47728C12.0347 7.58277 12.0941 7.72584 12.0941 7.87503V13.5C12.0941 13.6492 12.0347 13.7923 11.9292 13.8978C11.8236 14.0033 11.6804 14.0625 11.531 14.0625C11.3817 14.0625 11.2385 14.0033 11.1329 13.8978C11.0273 13.7923 10.968 13.6492 10.968 13.5Z" fill="#8090A7"/>
</g>
<defs>
<clipPath id="clip0_1783_51128">
<rect width="20" height="20" fill="white"/>
</clipPath>
</defs>
</svg>
