<svg width="11" height="12" viewBox="0 0 11 12" fill="none" xmlns="http://www.w3.org/2000/svg">
<circle cx="5.5" cy="6" r="5.5" fill="#8090A7"/>
<path fill-rule="evenodd" clip-rule="evenodd" d="M7.99645 4.21073C8.19171 4.01547 8.19171 3.69889 7.99645 3.50362C7.80118 3.30836 7.4846 3.30836 7.28934 3.50362L5.50004 5.29293L3.71073 3.50362C3.51547 3.30836 3.19889 3.30836 3.00362 3.50362C2.80836 3.69889 2.80836 4.01547 3.00362 4.21073L4.79293 6.00003L3.00362 7.78934C2.80836 7.9846 2.80836 8.30118 3.00362 8.49645C3.19889 8.69171 3.51547 8.69171 3.71073 8.49645L5.50004 6.70714L7.28934 8.49645C7.4846 8.69171 7.80118 8.69171 7.99645 8.49645C8.19171 8.30118 8.19171 7.9846 7.99645 7.78934L6.20714 6.00003L7.99645 4.21073Z" fill="#8090A7"/>
</svg>
