<svg width="25" height="24" viewBox="0 0 25 24" fill="none" xmlns="http://www.w3.org/2000/svg">
<path d="M20.7434 14.5C20.7435 14.3857 20.7026 14.2747 20.6275 14.1857L14.908 5.23925C14.8613 5.16615 14.7957 5.10576 14.7175 5.06386C14.6393 5.02197 14.5512 4.99998 14.4616 5H9.75395C9.70774 4.99998 9.66174 5.00586 9.61716 5.0175C9.60409 5.021 9.59258 5.028 9.5795 5.03225C9.5494 5.04142 9.52025 5.05322 9.49241 5.0675C9.47888 5.07621 9.46587 5.08564 9.45344 5.09575C9.42918 5.11056 9.40626 5.12729 9.38492 5.14575C9.37313 5.15887 9.36205 5.17256 9.35171 5.18675C9.33393 5.20513 9.31775 5.22486 9.30332 5.24575C9.30246 5.24709 9.30176 5.24851 9.30123 5.25L9.29835 5.25375L4.06764 14.1287C4.02192 14.2061 3.99859 14.2937 4.00007 14.3826C4.00154 14.4714 4.02775 14.5583 4.07601 14.6342L6.68457 18.7482L6.69137 18.7592C6.70382 18.7767 6.71745 18.7934 6.73217 18.8092C6.74466 18.8261 6.7582 18.8423 6.7727 18.8577C6.79151 18.8738 6.81153 18.8885 6.8326 18.9017C6.84757 18.9136 6.86319 18.9247 6.87941 18.935C6.90458 18.9476 6.93083 18.9581 6.95787 18.9665C6.97304 18.972 6.98716 18.98 7.00259 18.984C7.04699 18.995 7.09272 19.0004 7.13859 19H17.6C17.6889 19.0001 17.7764 18.9787 17.8542 18.9375C17.932 18.8964 17.9975 18.837 18.0446 18.765L20.6338 14.8022C20.7044 14.7159 20.7429 14.6096 20.7434 14.5ZM14.1681 6L19.2827 14H15.2925L10.6432 6H14.1681ZM14.0954 14H10.5145L12.3562 11.007L14.0954 14ZM9.75055 6.525L11.7678 9.99299L7.64571 16.6897L7.13205 17.525L5.12895 14.3657L9.75055 6.525ZM17.3102 18H8.05397L9.90015 15H19.2717L17.3102 18Z" fill="#8090A7"/>
</svg>
