<svg width="20" height="20" viewBox="0 0 20 20" fill="none" xmlns="http://www.w3.org/2000/svg">
<path d="M7.08325 10.4166L12.9166 10.4166" stroke="#8090A7" stroke-linecap="round"/>
<path d="M7.08325 12.9166L10.4166 12.9166" stroke="#8090A7" stroke-linecap="round"/>
<path d="M4.58325 5.31663C4.58325 4.47655 4.58325 4.05651 4.74674 3.73564C4.89055 3.4534 5.12002 3.22393 5.40227 3.08012C5.72313 2.91663 6.14317 2.91663 6.98325 2.91663H10.2558C10.6227 2.91663 10.8061 2.91663 10.9788 2.95807C11.1318 2.99482 11.2781 3.05542 11.4123 3.13767C11.5637 3.23043 11.6934 3.36014 11.9529 3.61957L14.7136 6.38035C14.9731 6.63978 15.1028 6.76949 15.1955 6.92087C15.2778 7.05507 15.3384 7.20139 15.3751 7.35445C15.4166 7.52708 15.4166 7.71052 15.4166 8.07741V14.6833C15.4166 15.5234 15.4166 15.9434 15.2531 16.2643C15.1093 16.5465 14.8798 16.776 14.5976 16.9198C14.2767 17.0833 13.8567 17.0833 13.0166 17.0833H6.98325C6.14317 17.0833 5.72313 17.0833 5.40227 16.9198C5.12002 16.776 4.89055 16.5465 4.74674 16.2643C4.58325 15.9434 4.58325 15.5234 4.58325 14.6833V5.31663Z" stroke="#8090A7"/>
<path d="M10.4167 2.91663V5.51663C10.4167 6.3567 10.4167 6.77674 10.5802 7.09761C10.724 7.37985 10.9535 7.60933 11.2358 7.75314C11.5566 7.91663 11.9767 7.91663 12.8167 7.91663H15.4167" stroke="#8090A7"/>
</svg>
