<svg width="24" height="24" viewBox="0 0 24 24" fill="none" xmlns="http://www.w3.org/2000/svg">
<path d="M19.4286 7.12941C19.7442 7.12941 20 6.87661 20 6.56471C20 6.2528 19.7442 6 19.4286 6H4.57143C4.25581 6 4 6.2528 4 6.56471C4 6.87661 4.25581 7.12941 4.57143 7.12941H19.4286Z" fill="#8090A7"/>
<path d="M15.2382 16.7295C15.2382 16.4176 14.9823 16.1648 14.6667 16.1648H9.33339C9.01777 16.1648 8.76196 16.4176 8.76196 16.7295C8.76196 17.0414 9.01777 17.2942 9.33339 17.2942H14.6667C14.9823 17.2942 15.2382 17.0414 15.2382 16.7295Z" fill="#8090A7"/>
<path d="M17.7142 11.647C17.7142 11.3351 17.4584 11.0823 17.1428 11.0823H6.85707C6.54145 11.0823 6.28564 11.3351 6.28564 11.647C6.28564 11.9589 6.54145 12.2117 6.85707 12.2117H17.1428C17.4584 12.2117 17.7142 11.9589 17.7142 11.647Z" fill="#8090A7"/>
</svg>
