<svg width="20" height="20" viewBox="0 0 20 20" fill="none" xmlns="http://www.w3.org/2000/svg">
<path d="M12.625 15.6998C14.9446 15.6998 16.825 13.8194 16.825 11.4998C16.825 9.18021 14.9446 7.2998 12.625 7.2998C10.3055 7.2998 8.42505 9.18021 8.42505 11.4998C8.42505 13.8194 10.3055 15.6998 12.625 15.6998Z" stroke="#8090A7" stroke-width="1.5524" stroke-miterlimit="10"/>
<path d="M7.37505 12.9254C9.69464 12.9254 11.575 11.045 11.575 8.72539C11.575 6.40579 9.69464 4.52539 7.37505 4.52539C5.05545 4.52539 3.17505 6.40579 3.17505 8.72539C3.17505 11.045 5.05545 12.9254 7.37505 12.9254Z" stroke="#8090A7" stroke-width="1.5524" stroke-miterlimit="10"/>
<path d="M9.9249 17.65C9.6999 17.875 9.3249 17.875 9.0249 17.65L6.4749 15.1C6.2499 14.875 6.2499 14.5 6.4749 14.2C6.6999 13.975 7.0749 13.975 7.3749 14.2L9.9249 16.75C10.2249 17.05 10.2249 17.425 9.9249 17.65Z" fill="#8090A7"/>
<path d="M13.45 2.6502C13.675 2.8752 13.675 3.2502 13.45 3.5502L10.9 6.1002C10.675 6.3252 10.3 6.3252 10 6.1002C9.77505 5.8752 9.77505 5.5002 10 5.2002L12.55 2.6502C12.775 2.4252 13.15 2.4252 13.45 2.6502Z" fill="#8090A7"/>
<path d="M14 2.5C14 2.78571 13.7818 3 13.4909 3H10.5091C10.2182 3 10 2.78571 10 2.5C10 2.21429 10.2182 2 10.5091 2H13.4909C13.7818 2 14 2.21429 14 2.5Z" fill="#8090A7"/>
<path d="M13.5 2C13.7857 2 14 2.21818 14 2.50909V5.49091C14 5.78182 13.7857 6 13.5 6C13.2143 6 13 5.78182 13 5.49091V2.50909C13 2.21818 13.2143 2 13.5 2Z" fill="#8090A7"/>
<path d="M10.0001 14.2C10.2251 14.425 10.2251 14.8 10.0001 15.1L7.4501 17.65C7.2251 17.875 6.8501 17.875 6.5501 17.65C6.3251 17.425 6.3251 17.05 6.5501 16.75L9.1001 14.2C9.3251 13.975 9.7751 13.975 10.0001 14.2Z" fill="#8090A7"/>
</svg>
