<svg width="20" height="20" viewBox="0 0 20 20" fill="none" xmlns="http://www.w3.org/2000/svg">
<path fill-rule="evenodd" clip-rule="evenodd" d="M15.4682 17.7381C15.4682 18.2058 15.0805 18.5885 14.6065 18.5885H4.15872C3.6848 18.5885 3.29705 18.2058 3.29705 17.7381V4.09048C3.29705 3.6228 3.6848 3.24016 4.15872 3.24016H4.52494V2.45361H4.15872C3.25397 2.45361 2.5 3.19764 2.5 4.09048V17.7381C2.5 18.631 3.25397 19.375 4.15872 19.375H14.6065C15.5113 19.375 16.2653 18.631 16.2653 17.7381V6.29996C16.0068 6.38499 15.7483 6.25744 15.4682 6.29996V17.7381Z" fill="#8090A7"/>
<path fill-rule="evenodd" clip-rule="evenodd" d="M15.4685 4.09048V6.32257C15.7486 6.36509 16.0071 6.42886 16.2656 6.5139V4.09048C16.2656 3.19764 15.5116 2.45361 14.6069 2.45361H14.176V3.24016H14.6069C15.0592 3.24016 15.4685 3.6228 15.4685 4.09048Z" fill="#8090A7"/>
<path fill-rule="evenodd" clip-rule="evenodd" d="M13.3785 2.45319H10.9012C10.9227 2.36816 10.9227 2.28313 10.9227 2.19809C10.9227 1.32651 10.2118 0.625 9.32862 0.625C8.44541 0.625 7.73452 1.32651 7.73452 2.19809C7.73452 2.28313 7.73453 2.36816 7.75607 2.45319H5.30029V4.66403H13.3785V2.45319ZM9.32862 2.98464C8.89779 2.98464 8.53157 2.62325 8.53157 2.19809C8.53157 1.77293 8.89779 1.41155 9.32862 1.41155C9.75946 1.41155 10.1257 1.77293 10.1257 2.19809C10.1257 2.64451 9.781 2.98464 9.32862 2.98464Z" fill="#8090A7"/>
<path fill-rule="evenodd" clip-rule="evenodd" d="M12.5387 6.81067H4.82666V7.59722H11.4831C11.7847 7.27835 12.1509 7.02325 12.5387 6.81067Z" fill="#8090A7"/>
<path fill-rule="evenodd" clip-rule="evenodd" d="M10.5137 8.91516H4.82666V9.70171H10.2121C10.2768 9.42535 10.3845 9.149 10.5137 8.91516Z" fill="#8090A7"/>
<path fill-rule="evenodd" clip-rule="evenodd" d="M10.0398 11.0209H4.82666V11.8074H10.126C10.0829 11.5311 10.0398 11.276 10.0398 11.0209Z" fill="#8090A7"/>
<path fill-rule="evenodd" clip-rule="evenodd" d="M10.5996 13.1036H4.82642V13.8902H11.1382C10.9443 13.6563 10.7504 13.38 10.5996 13.1036Z" fill="#8090A7"/>
<path d="M12.8185 15.2081H4.82642V15.9947H12.8185V15.2081Z" fill="#8090A7"/>
</svg>
