<svg width="20" height="20" viewBox="0 0 20 20" fill="none" xmlns="http://www.w3.org/2000/svg">
<path d="M15.3975 3.0835H4.60382C3.76582 3.0835 3.08398 3.76533 3.08398 4.60333V15.397C3.08398 16.235 3.76582 16.9168 4.60382 16.9168H15.3975C16.2355 16.9168 16.9173 16.235 16.9173 15.397V4.60333C16.9173 3.76533 16.2355 3.0835 15.3975 3.0835ZM16.4173 15.397C16.4173 15.9593 15.9598 16.4168 15.3975 16.4168H4.60382C4.04148 16.4168 3.58398 15.9593 3.58398 15.397V4.60333C3.58398 4.041 4.04148 3.5835 4.60382 3.5835H15.3975C15.9598 3.5835 16.4173 4.041 16.4173 4.60333V15.397Z" fill="#8090A7" stroke="#8090A7" stroke-width="0.3"/>
<path d="M11.2995 6.0625H8.7005V8.7005H6.0625V11.2995H8.7005V13.9375H11.2995V11.2995H13.9375V8.7005H11.2995V6.0625ZM13.4375 9.2005V10.7995H10.7995V13.4375H9.2005V10.7995H6.5625V9.2005H9.2005V6.5625H10.7995V9.2005H13.4375Z" fill="#8090A7" stroke="#8090A7" stroke-width="0.3"/>
</svg>
