<svg width="20" height="20" viewBox="0 0 20 20" fill="none" xmlns="http://www.w3.org/2000/svg">
<path d="M16.2987 7.62689L10.6638 2.9981C10.4432 2.81435 10.1698 2.71436 9.8882 2.71436C9.60658 2.71436 9.33324 2.81435 9.11259 2.9981L3.48488 7.62689C3.28934 7.78489 3.13102 7.988 3.02218 8.22052C2.91333 8.45303 2.85688 8.70871 2.85718 8.96779V15.5814C2.85718 16.0335 3.02821 16.4671 3.33265 16.7867C3.6371 17.1064 4.05001 17.286 4.48056 17.286H6.64506C7.0756 17.286 7.48852 17.1064 7.79296 16.7867C8.0974 16.4671 8.26843 16.0335 8.26843 15.5814V13.3087C8.2703 13.1586 8.32791 13.0152 8.42899 12.9091C8.53007 12.803 8.66663 12.7425 8.80956 12.7405H10.9741C11.117 12.7425 11.2536 12.803 11.3546 12.9091C11.4557 13.0152 11.5133 13.1586 11.5152 13.3087V15.5814C11.5152 16.0335 11.6862 16.4671 11.9907 16.7867C12.2951 17.1064 12.708 17.286 13.1386 17.286H15.3031C15.7336 17.286 16.1465 17.1064 16.451 16.7867C16.7554 16.4671 16.9264 16.0335 16.9264 15.5814V8.93749C16.9224 8.68354 16.8638 8.43382 16.7551 8.20692C16.6465 7.98001 16.4905 7.78175 16.2987 7.62689ZM15.8442 15.5814C15.8423 15.7315 15.7847 15.8749 15.6836 15.981C15.5826 16.0872 15.446 16.1477 15.3031 16.1496H13.1386C12.9956 16.1477 12.8591 16.0872 12.758 15.981C12.6569 15.8749 12.5993 15.7315 12.5974 15.5814V13.3087C12.5974 12.8566 12.4264 12.4231 12.122 12.1034C11.8175 11.7837 11.4046 11.6042 10.9741 11.6042H8.80956C8.37901 11.6042 7.9661 11.7837 7.66166 12.1034C7.35722 12.4231 7.18618 12.8566 7.18618 13.3087V15.5814C7.18431 15.7315 7.1267 15.8749 7.02562 15.981C6.92455 16.0872 6.78799 16.1477 6.64506 16.1496H4.48056C4.33762 16.1477 4.20107 16.0872 4.09999 15.981C3.99891 15.8749 3.9413 15.7315 3.93943 15.5814V8.93749C3.93717 8.85376 3.95211 8.7705 3.98323 8.69337C4.01436 8.61624 4.06094 8.54706 4.11981 8.49052L9.75473 3.89204C9.78544 3.86622 9.82361 3.85215 9.86295 3.85215C9.90229 3.85215 9.94046 3.86622 9.97118 3.89204L15.6638 8.49052C15.728 8.54419 15.78 8.6121 15.8161 8.68938C15.8523 8.76666 15.8718 8.85139 15.8731 8.93749L15.8442 15.5814Z" fill="#8090A7"/>
</svg>
