<svg width="20" height="20" viewBox="0 0 20 20" fill="none" xmlns="http://www.w3.org/2000/svg">
<path d="M15.6875 5.73438H12.7344V5.18835C12.734 4.86915 12.607 4.56314 12.3813 4.33743C12.1556 4.11172 11.8496 3.98475 11.5304 3.98438H8.46971C8.1505 3.98473 7.84445 4.11169 7.61872 4.3374C7.39299 4.56311 7.26601 4.86914 7.26562 5.18835V5.73438H4.3125C3.93553 5.73481 3.57412 5.88475 3.30756 6.15131C3.04101 6.41787 2.89106 6.77928 2.89062 7.15625V14.5938C2.89106 14.9707 3.04101 15.3321 3.30756 15.5987C3.57412 15.8652 3.93553 16.0152 4.3125 16.0156H15.6875C16.0645 16.0152 16.4259 15.8652 16.6924 15.5987C16.959 15.3321 17.1089 14.9707 17.1094 14.5938V7.15625C17.1089 6.77928 16.959 6.41787 16.6924 6.15131C16.4259 5.88475 16.0645 5.73481 15.6875 5.73438ZM7.92188 5.18835C7.92205 5.04312 7.97983 4.90389 8.08253 4.8012C8.18524 4.69852 8.32448 4.64077 8.46971 4.64062H11.5304C11.6756 4.64077 11.8148 4.69853 11.9175 4.80122C12.0202 4.9039 12.078 5.04313 12.0781 5.18835V5.73438H7.92188V5.18835ZM16.4531 14.5938C16.4529 14.7967 16.3721 14.9913 16.2286 15.1349C16.0851 15.2784 15.8905 15.3591 15.6875 15.3594H4.3125C4.10952 15.3591 3.91492 15.2784 3.7714 15.1349C3.62787 14.9913 3.54712 14.7967 3.54688 14.5938V12.0712C3.77507 12.2185 4.0409 12.2969 4.3125 12.2969H7.70312V12.8438C7.70312 12.8868 7.7116 12.9295 7.72809 12.9693C7.74458 13.0091 7.76874 13.0453 7.79921 13.0758C7.82969 13.1063 7.86586 13.1304 7.90567 13.1469C7.94549 13.1634 7.98816 13.1719 8.03125 13.1719H11.9688C12.0118 13.1719 12.0545 13.1634 12.0943 13.1469C12.1341 13.1304 12.1703 13.1063 12.2008 13.0758C12.2313 13.0453 12.2554 13.0091 12.2719 12.9693C12.2884 12.9295 12.2969 12.8868 12.2969 12.8438V12.2969H15.6875C15.9591 12.2969 16.2249 12.2185 16.4531 12.0712V14.5938ZM8.35938 12.5156V11.4219H11.6406V12.5156H8.35938ZM16.4531 10.875C16.4529 11.078 16.3721 11.2726 16.2286 11.4161C16.0851 11.5596 15.8905 11.6404 15.6875 11.6406H12.2969V11.0938C12.2969 11.0507 12.2884 11.008 12.2719 10.9682C12.2554 10.9284 12.2313 10.8922 12.2008 10.8617C12.1703 10.8312 12.1341 10.8071 12.0943 10.7906C12.0545 10.7741 12.0118 10.7656 11.9688 10.7656H8.03125C7.98816 10.7656 7.94549 10.7741 7.90567 10.7906C7.86586 10.8071 7.82969 10.8312 7.79921 10.8617C7.76874 10.8922 7.74458 10.9284 7.72809 10.9682C7.7116 11.008 7.70312 11.0507 7.70312 11.0938V11.6406H4.3125C4.10952 11.6404 3.91492 11.5596 3.7714 11.4161C3.62787 11.2726 3.54712 11.078 3.54688 10.875V7.15625C3.54712 6.95327 3.62787 6.75867 3.7714 6.61515C3.91492 6.47162 4.10952 6.39087 4.3125 6.39062H15.6875C15.8905 6.39087 16.0851 6.47162 16.2286 6.61515C16.3721 6.75867 16.4529 6.95327 16.4531 7.15625V10.875Z" fill="#8090A7" stroke="#8090A7" stroke-width="0.3"/>
</svg>
