<svg width="20" height="20" viewBox="0 0 20 20" fill="none" xmlns="http://www.w3.org/2000/svg">
<path d="M2.22218 5.88699H7.20513C6.96726 7.19874 6.40014 8.40483 5.58274 9.41218C5.02458 8.72496 4.5756 7.94588 4.27378 7.09359C4.17124 6.80442 3.8525 6.65251 3.56441 6.75559C3.27524 6.85758 3.12387 7.17551 3.22614 7.46468C3.58801 8.48631 4.13689 9.41414 4.81957 10.2263C4.12678 10.867 3.31569 11.3904 2.40881 11.7534C2.12398 11.8674 1.98537 12.1907 2.09957 12.4755C2.18637 12.6931 2.39498 12.8249 2.61552 12.8249C2.68415 12.8249 2.75387 12.8124 2.82168 12.7853C3.86237 12.3687 4.79254 11.767 5.5862 11.0302C6.38258 11.7685 7.30672 12.3728 8.33736 12.7853C8.40491 12.8124 8.47489 12.8249 8.54353 12.8249C8.76407 12.8249 8.97267 12.6931 9.05948 12.4761C9.17368 12.1912 9.03506 11.8679 8.75023 11.7534C7.85227 11.394 7.0466 10.8683 6.35152 10.2264C7.37755 9.00378 8.07108 7.51175 8.32817 5.88699H8.93686C9.24367 5.88699 9.49242 5.63851 9.49242 5.33143C9.49242 5.02436 9.24367 4.77588 8.93686 4.77588H6.13494V4.04237C6.13494 3.7353 5.88619 3.48682 5.57939 3.48682C5.27258 3.48682 5.02383 3.7353 5.02383 4.04237V4.77588H2.22218C1.91538 4.77588 1.66663 5.02436 1.66663 5.33143C1.66663 5.63851 1.91538 5.88699 2.22218 5.88699Z" fill="#8090A7"/>
<path d="M15.021 8.28225C14.8051 7.79071 14.3307 7.45705 13.7821 7.49286C13.2453 7.5048 12.7736 7.83629 12.5804 8.33759L9.72155 15.7578C9.61114 16.0443 9.75383 16.3655 10.0403 16.4762C10.1059 16.5011 10.1735 16.513 10.2399 16.513C10.4629 16.513 10.6734 16.378 10.7583 16.1571L11.6791 13.7673H16.2115L17.269 16.1805C17.3922 16.4615 17.7204 16.5874 18.0009 16.4664C18.2819 16.3432 18.41 16.0155 18.2868 15.7345L15.021 8.28225ZM12.1072 12.6562L13.6172 8.73689C13.6609 8.6235 13.755 8.60452 13.8074 8.60343C13.8597 8.6056 13.9544 8.61699 14.0032 8.72821L15.7246 12.6562H12.1072Z" fill="#8090A7"/>
</svg>
