<svg width="20" height="20" viewBox="0 0 20 20" fill="none" xmlns="http://www.w3.org/2000/svg">
<path d="M10.3996 16.4679L10.6329 16.9101H10.6329L10.3996 16.4679ZM9.60055 16.4679L9.36729 16.9101H9.36729L9.60055 16.4679ZM15.3334 9.16671C15.3334 11.0422 14.3947 12.5755 13.2521 13.748C12.1094 14.9206 10.8018 15.6905 10.1664 16.0256L10.6329 16.9101C11.3138 16.551 12.7231 15.7237 13.9682 14.446C15.2134 13.1683 16.3334 11.3981 16.3334 9.16671H15.3334ZM10.0001 3.83337C12.9456 3.83337 15.3334 6.22119 15.3334 9.16671H16.3334C16.3334 5.6689 13.4979 2.83337 10.0001 2.83337V3.83337ZM4.66675 9.16671C4.66675 6.22119 7.05456 3.83337 10.0001 3.83337V2.83337C6.50228 2.83337 3.66675 5.6689 3.66675 9.16671H4.66675ZM9.83381 16.0256C9.19838 15.6905 7.89073 14.9206 6.74809 13.748C5.60542 12.5755 4.66675 11.0422 4.66675 9.16671H3.66675C3.66675 11.3981 4.78679 13.1683 6.03192 14.446C7.27708 15.7237 8.68634 16.551 9.36729 16.9101L9.83381 16.0256ZM10.1664 16.0256C10.0604 16.0815 9.93979 16.0815 9.83381 16.0256L9.36729 16.9101C9.76522 17.12 10.2349 17.12 10.6329 16.9101L10.1664 16.0256ZM12.0001 9.16671C12.0001 10.2713 11.1047 11.1667 10.0001 11.1667V12.1667C11.6569 12.1667 13.0001 10.8236 13.0001 9.16671H12.0001ZM10.0001 7.16671C11.1047 7.16671 12.0001 8.06214 12.0001 9.16671H13.0001C13.0001 7.50985 11.6569 6.16671 10.0001 6.16671V7.16671ZM8.00008 9.16671C8.00008 8.06214 8.89551 7.16671 10.0001 7.16671V6.16671C8.34323 6.16671 7.00008 7.50985 7.00008 9.16671H8.00008ZM10.0001 11.1667C8.89551 11.1667 8.00008 10.2713 8.00008 9.16671H7.00008C7.00008 10.8236 8.34323 12.1667 10.0001 12.1667V11.1667Z" fill="#8090A7"/>
</svg>
