<svg width="20" height="20" viewBox="0 0 20 20" fill="none" xmlns="http://www.w3.org/2000/svg">
<path d="M14.3873 7.44355V7.0623C14.3873 4.64355 12.4186 2.6748 10.0061 2.6748C7.59355 2.6748 5.61855 4.64355 5.61855 7.0623V7.44355C4.7498 7.5623 4.08105 8.29981 4.08105 9.19981V15.2748C4.08105 16.2561 4.8748 17.0561 5.8623 17.0561H14.1498C15.1311 17.0561 15.9311 16.2623 15.9311 15.2748V9.19981C15.9311 8.29981 15.2623 7.5623 14.3936 7.44355H14.3873ZM9.9998 13.5873C9.25605 13.5873 8.6498 12.9811 8.6498 12.2373C8.6498 11.4936 9.25605 10.8873 9.9998 10.8873C10.7436 10.8873 11.3498 11.4936 11.3498 12.2373C11.3498 12.9811 10.7436 13.5873 9.9998 13.5873ZM12.6061 7.41855H7.39355V7.0623C7.39355 5.6248 8.5623 4.45605 9.9998 4.45605C11.4373 4.45605 12.6061 5.6248 12.6061 7.0623V7.41855Z" fill="#8090A7"/>
</svg>
