<svg width="20" height="20" viewBox="0 0 20 20" fill="none" xmlns="http://www.w3.org/2000/svg">
<path d="M4.66602 11.2C4.66602 10.0799 4.66602 9.51984 4.884 9.09202C5.07575 8.71569 5.38171 8.40973 5.75803 8.21799C6.18586 8 6.74591 8 7.86602 8H12.1327C13.2528 8 13.8128 8 14.2407 8.21799C14.617 8.40973 14.9229 8.71569 15.1147 9.09202C15.3327 9.51984 15.3327 10.0799 15.3327 11.2V11.2C15.3327 12.8802 15.3327 13.7202 15.0057 14.362C14.7181 14.9265 14.2591 15.3854 13.6947 15.673C13.0529 16 12.2128 16 10.5327 16H9.46602C7.78586 16 6.94578 16 6.30404 15.673C5.73956 15.3854 5.28062 14.9265 4.993 14.362C4.66602 13.7202 4.66602 12.8802 4.66602 11.2V11.2Z" stroke="#8090A7"/>
<path d="M12.6654 7.33333V6.66667C12.6654 5.19391 11.4715 4 9.9987 4V4C8.52594 4 7.33203 5.19391 7.33203 6.66667V7.33333" stroke="#8090A7" stroke-linecap="round"/>
<circle cx="9.99935" cy="12" r="1.33333" fill="#8090A7"/>
</svg>
