<svg width="20" height="20" viewBox="0 0 20 20" fill="none" xmlns="http://www.w3.org/2000/svg">
<path d="M18.0237 5.53999C18.2636 5.53999 18.4589 5.73493 18.4589 5.97451V15.0052C18.4589 15.2448 18.2636 15.4397 18.0237 15.4397H1.97613C1.73619 15.4397 1.54089 15.2448 1.54089 15.0052V5.97451C1.54089 5.73493 1.73619 5.53999 1.97613 5.53999H18.0237ZM18.0237 5H1.97613C1.4392 5 1 5.43866 1 5.97451V15.0052C1 15.5412 1.4392 15.9799 1.97613 15.9799H18.0239C18.5606 15.9799 19 15.5412 19 15.0054V5.97451C18.9998 5.43866 18.5606 5 18.0237 5Z" fill="#8090A7"/>
<path d="M6.46761 7.61031C7.04847 7.61031 7.52096 8.0828 7.52096 8.66366C7.52096 9.24451 7.04847 9.71701 6.46761 9.71701C5.88676 9.71701 5.41426 9.24451 5.41426 8.66366C5.41426 8.0828 5.88676 7.61031 6.46761 7.61031ZM6.46761 7.07031C5.5876 7.07031 4.87427 7.78365 4.87427 8.66366C4.87427 9.54367 5.5876 10.257 6.46761 10.257C7.34762 10.257 8.06096 9.54367 8.06096 8.66366C8.06096 7.78365 7.34762 7.07031 6.46761 7.07031Z" fill="#8090A7"/>
<path d="M9.37013 13.9908H3.56519V13.7208C3.56519 12.1203 4.86711 10.8184 6.46766 10.8184C8.0682 10.8184 9.37013 12.1205 9.37013 13.7208V13.9908ZM4.12048 13.4508H8.81483C8.68038 12.2749 7.67904 11.3584 6.46766 11.3584C5.25627 11.3584 4.25494 12.2749 4.12048 13.4508Z" fill="#8090A7"/>
<path d="M16.2999 9.40926H11.4399C11.2909 9.40926 11.1699 9.28848 11.1699 9.13926C11.1699 8.99004 11.2909 8.86926 11.4399 8.86926H16.2999C16.4489 8.86926 16.5699 8.99004 16.5699 9.13926C16.5699 9.28848 16.4489 9.40926 16.2999 9.40926Z" fill="#8090A7"/>
<path d="M14.5899 11.9306H11.4399C11.2909 11.9306 11.1699 11.8097 11.1699 11.6606C11.1699 11.5116 11.2909 11.3906 11.4399 11.3906H14.5899C14.7389 11.3906 14.8599 11.5116 14.8599 11.6606C14.8599 11.8097 14.7389 11.9306 14.5899 11.9306Z" fill="#8090A7"/>
</svg>
