<svg width="20" height="20" viewBox="0 0 20 20" fill="none" xmlns="http://www.w3.org/2000/svg">
<path fill-rule="evenodd" clip-rule="evenodd" d="M9.99973 9.99996C6.35201 9.99996 3.39746 12.7102 3.39746 16.0284C3.39746 16.4431 3.71564 16.8295 4.32928 17.125C5.48269 17.6761 7.73837 17.9602 9.99973 17.9602C12.2611 17.9602 14.5168 17.6761 15.6702 17.1306C16.2781 16.8409 16.602 16.4488 16.602 16.034C16.602 12.7159 13.6531 10.0056 9.99973 10.0056V9.99996ZM9.99973 10.5681C13.3236 10.5681 16.0338 13.0056 16.0338 16.0284C16.0338 16.1704 15.9372 16.284 15.7895 16.3977C15.585 16.5568 15.2838 16.6931 14.9145 16.8125C13.7213 17.1988 11.8634 17.3863 9.99973 17.3863C7.84064 17.3863 5.67587 17.1306 4.5736 16.6079C4.36905 16.5113 4.20428 16.4034 4.09064 16.2897C4.01678 16.2102 3.96564 16.125 3.96564 16.0284C3.96564 13.0056 6.67587 10.5681 9.99973 10.5681ZM9.99973 2.04541C7.95996 2.04541 6.30655 3.69882 6.30655 5.73859C6.30655 7.77836 7.95996 9.43177 9.99973 9.43177C12.0395 9.43177 13.6929 7.77836 13.6929 5.73859C13.6929 3.69882 12.0395 2.04541 9.99973 2.04541ZM9.99973 2.61359C11.727 2.61359 13.1247 4.01132 13.1247 5.73859C13.1247 7.46586 11.727 8.86359 9.99973 8.86359C8.27246 8.86359 6.87473 7.46586 6.87473 5.73859C6.87473 4.01132 8.27246 2.61359 9.99973 2.61359Z" fill="#8090A7" stroke="#8090A7" stroke-width="0.75" stroke-miterlimit="10"/>
</svg>
