<svg width="20" height="20" viewBox="0 0 20 20" fill="none" xmlns="http://www.w3.org/2000/svg">
<path d="M14.9111 2.3999H4.28887C3.02476 2.3999 2 3.42466 2 4.68877V15.311C2 16.5751 3.02476 17.5999 4.28887 17.5999H14.9111C16.1752 17.5999 17.2 16.5751 17.2 15.311V4.68877C17.2 3.42466 16.1752 2.3999 14.9111 2.3999Z" stroke="#8090A7" stroke-miterlimit="10"/>
<path d="M10.3298 6.37485L11.1251 7.98087C11.1813 8.09317 11.2643 8.18987 11.3668 8.26241C11.4692 8.33494 11.588 8.38106 11.7126 8.39669L13.2023 8.58743C13.3483 8.60679 13.4855 8.66798 13.5975 8.76363C13.7095 8.85927 13.7914 8.98528 13.8333 9.12644C13.8753 9.26761 13.8755 9.41789 13.8339 9.55917C13.7923 9.70044 13.7108 9.82666 13.599 9.9226L12.4412 10.9049C12.3361 10.9935 12.2568 11.1089 12.2118 11.2388C12.1668 11.3687 12.1578 11.5084 12.1856 11.6431L12.5481 13.3902C12.5761 13.5342 12.562 13.6831 12.5075 13.8193C12.4531 13.9554 12.3605 14.073 12.241 14.1579C12.1215 14.2428 11.98 14.2915 11.8335 14.2981C11.687 14.3047 11.5418 14.269 11.4151 14.1952L9.98071 13.3616C9.86337 13.2925 9.72968 13.2561 9.59351 13.2561C9.45733 13.2561 9.32364 13.2925 9.2063 13.3616L7.78339 14.1952C7.65606 14.2704 7.50963 14.3069 7.36189 14.3004C7.21416 14.2939 7.0715 14.2446 6.95126 14.1586C6.83103 14.0725 6.7384 13.9533 6.68465 13.8155C6.6309 13.6778 6.61833 13.5274 6.64849 13.3826L7.0109 11.6354C7.03877 11.5008 7.02973 11.3611 6.98474 11.2312C6.93975 11.1012 6.86047 10.9859 6.75531 10.8973L5.61087 9.92641C5.49901 9.83011 5.41749 9.70342 5.37618 9.56171C5.33488 9.42 5.33557 9.26935 5.37817 9.12803C5.42077 8.9867 5.50345 8.86077 5.61619 8.76549C5.72893 8.67021 5.86688 8.60968 6.01333 8.59124L7.68039 8.4005C7.81295 8.38484 7.93908 8.33467 8.04618 8.25501C8.15329 8.17535 8.23762 8.06899 8.29076 7.94654L8.95262 6.42063C9.01023 6.28841 9.10413 6.17522 9.22344 6.09419C9.34275 6.01317 9.48259 5.96762 9.62673 5.96282C9.77088 5.95803 9.91343 5.9942 10.0379 6.06712C10.1623 6.14005 10.2635 6.24675 10.3298 6.37485Z" stroke="#8090A7" stroke-miterlimit="10"/>
</svg>
