<svg width="20" height="20" viewBox="0 0 20 20" fill="none" xmlns="http://www.w3.org/2000/svg">
<path d="M10.7174 9.32307C9.0164 8.76471 8.53878 7.78021 8.6468 7.10613C8.74426 6.49563 9.3541 5.87875 10.4952 5.87875C11.9644 5.87875 12.2748 7.27135 12.3056 7.43547C12.3751 7.82267 12.7623 8.07259 13.13 8.01121C13.5185 7.94301 13.7402 7.57319 13.6723 7.18555C13.5251 6.34603 12.8609 4.84277 11.1009 4.51651V3.28187C11.1009 2.88785 10.8349 2.56885 10.4409 2.56885C10.0467 2.56885 9.7809 2.88785 9.7809 3.28187V4.52091C8.4609 4.76797 7.44824 5.66975 7.25486 6.88129C7.05862 8.10889 7.7272 9.83963 10.281 10.6778C11.6238 11.1187 12.3512 11.8247 12.2328 12.5683C12.1312 13.2074 11.359 13.8702 10.2464 13.8702C8.34012 13.8702 8.20328 12.8327 8.1958 12.6378C8.1958 12.2438 7.87658 11.925 7.48234 11.925C7.08832 11.925 6.78516 12.2438 6.78516 12.6378C6.78516 13.4991 7.3609 15.0805 9.7809 15.276V16.2777C9.7809 16.6719 10.0467 16.9907 10.4409 16.9907C10.8349 16.9907 11.1009 16.6719 11.1009 16.2777V15.1865C12.4209 14.8785 13.4155 13.9512 13.5997 12.7922C13.6903 12.2326 13.7801 10.3269 10.7174 9.32307Z" fill="#8090A7"/>
</svg>
