<svg width="20" height="20" viewBox="0 0 20 20" fill="none" xmlns="http://www.w3.org/2000/svg">
<path fill-rule="evenodd" clip-rule="evenodd" d="M8.23298 14.341C4.61801 14.341 1.6875 11.4104 1.6875 7.79548C1.6875 4.18051 4.61801 1.25 8.23298 1.25C11.8479 1.25 14.7785 4.18051 14.7785 7.79548C14.7785 11.4104 11.8479 14.341 8.23298 14.341ZM8.23295 12.8864C11.0446 12.8864 13.3239 10.6071 13.3239 7.79545C13.3239 4.98381 11.0446 2.70452 8.23295 2.70452C5.42131 2.70452 3.14202 4.98381 3.14202 7.79545C3.14202 10.6071 5.42131 12.8864 8.23295 12.8864ZM17.4746 17.0371C17.7586 16.753 17.7586 16.2926 17.4746 16.0085L14.5655 13.0994C14.2814 12.8154 13.821 12.8154 13.5369 13.0994C13.2529 13.3835 13.2529 13.8439 13.5369 14.128L16.446 17.0371C16.7301 17.3211 17.1905 17.3211 17.4746 17.0371Z" fill="#8090A7"/>
</svg>
