<svg width="14" height="14" viewBox="0 0 14 14" fill="none" xmlns="http://www.w3.org/2000/svg">
<rect width="14" height="14" rx="4" fill="#8090A7"/>
<path fill-rule="evenodd" clip-rule="evenodd" d="M6.73044 9.65437L11.372 4.94062C11.5404 4.76967 11.5404 4.49249 11.372 4.32154L10.799 3.73955C10.6306 3.56859 10.3577 3.56859 10.1894 3.73955L5.82918 8.16748L3.80895 6.11585C3.64061 5.9449 3.36768 5.9449 3.19934 6.11585L2.62625 6.69784C2.45792 6.8688 2.45792 7.14598 2.62625 7.31693L4.9482 9.67496C4.94922 9.67601 4.95024 9.67707 4.95128 9.67812L5.52436 10.2601C5.52648 10.2623 5.52862 10.2644 5.53077 10.2665C5.6995 10.4319 5.96835 10.4301 6.13487 10.261L6.70795 9.679C6.71582 9.67101 6.72331 9.66279 6.73044 9.65437Z" fill="white"/>
</svg>
