<svg width="24" height="24" viewBox="0 0 24 24" fill="none" xmlns="http://www.w3.org/2000/svg">
<path d="M6.85714 20C7.0087 20 7.15404 19.9398 7.2612 19.8326C7.36837 19.7255 7.42857 19.5801 7.42857 19.4286C7.42857 19.277 7.36837 19.1317 7.2612 19.0245C7.15404 18.9173 7.0087 18.8571 6.85714 18.8571C6.40249 18.8571 5.96645 18.6765 5.64496 18.355C5.32347 18.0335 5.14286 17.5975 5.14286 17.1429V16.5714C5.14286 16.4199 5.08265 16.2745 4.97549 16.1674C4.86833 16.0602 4.72298 16 4.57143 16C4.41988 16 4.27453 16.0602 4.16737 16.1674C4.0602 16.2745 4 16.4199 4 16.5714V17.1429C4 17.9006 4.30102 18.6273 4.83684 19.1632C5.37266 19.699 6.09938 20 6.85714 20Z" fill="#8090A7"/>
<path d="M19.4286 16C19.277 16 19.1317 16.0602 19.0245 16.1674C18.9173 16.2745 18.8571 16.4199 18.8571 16.5714V17.1429C18.8571 17.5975 18.6765 18.0335 18.355 18.355C18.0335 18.6765 17.5975 18.8571 17.1429 18.8571H16.5714C16.4199 18.8571 16.2745 18.9173 16.1674 19.0245C16.0602 19.1317 16 19.277 16 19.4286C16 19.5801 16.0602 19.7255 16.1674 19.8326C16.2745 19.9398 16.4199 20 16.5714 20H17.1429C17.9006 20 18.6273 19.699 19.1632 19.1632C19.699 18.6273 20 17.9006 20 17.1429V16.5714C20 16.4199 19.9398 16.2745 19.8326 16.1674C19.7255 16.0602 19.5801 16 19.4286 16Z" fill="#8090A7"/>
<path d="M17.1429 4H16.5714C16.4199 4 16.2745 4.0602 16.1674 4.16737C16.0602 4.27453 16 4.41988 16 4.57143C16 4.72298 16.0602 4.86833 16.1674 4.97549C16.2745 5.08265 16.4199 5.14286 16.5714 5.14286H17.1429C17.5975 5.14286 18.0335 5.32347 18.355 5.64496C18.6765 5.96645 18.8571 6.40249 18.8571 6.85714V7.42857C18.8571 7.58012 18.9173 7.72547 19.0245 7.83263C19.1317 7.9398 19.277 8 19.4286 8C19.5801 8 19.7255 7.9398 19.8326 7.83263C19.9398 7.72547 20 7.58012 20 7.42857V6.85714C20 6.09938 19.699 5.37266 19.1632 4.83684C18.6273 4.30102 17.9006 4 17.1429 4Z" fill="#8090A7"/>
<path d="M4.57143 8C4.72298 8 4.86833 7.9398 4.97549 7.83263C5.08265 7.72547 5.14286 7.58012 5.14286 7.42857V6.85714C5.14286 6.40249 5.32347 5.96645 5.64496 5.64496C5.96645 5.32347 6.40249 5.14286 6.85714 5.14286H7.42857C7.58012 5.14286 7.72547 5.08265 7.83263 4.97549C7.9398 4.86833 8 4.72298 8 4.57143C8 4.41988 7.9398 4.27453 7.83263 4.16737C7.72547 4.0602 7.58012 4 7.42857 4H6.85714C6.09938 4 5.37266 4.30102 4.83684 4.83684C4.30102 5.37266 4 6.09938 4 6.85714V7.42857C4 7.58012 4.0602 7.72547 4.16737 7.83263C4.27453 7.9398 4.41988 8 4.57143 8Z" fill="#8090A7"/>
<path d="M14.2857 5.14286C14.4372 5.14286 14.5826 5.08265 14.6897 4.97549C14.7969 4.86833 14.8571 4.72298 14.8571 4.57143C14.8571 4.41988 14.7969 4.27453 14.6897 4.16737C14.5826 4.0602 14.4372 4 14.2857 4H9.71425C9.5627 4 9.41735 4.0602 9.31019 4.16737C9.20303 4.27453 9.14282 4.41988 9.14282 4.57143C9.14282 4.72298 9.20303 4.86833 9.31019 4.97549C9.41735 5.08265 9.5627 5.14286 9.71425 5.14286H14.2857Z" fill="#8090A7"/>
<path d="M9.71425 18.8572C9.5627 18.8572 9.41735 18.9174 9.31019 19.0245C9.20303 19.1317 9.14282 19.2771 9.14282 19.4286C9.14282 19.5802 9.20303 19.7255 9.31019 19.8327C9.41735 19.9398 9.5627 20 9.71425 20H14.2857C14.4372 20 14.5826 19.9398 14.6897 19.8327C14.7969 19.7255 14.8571 19.5802 14.8571 19.4286C14.8571 19.2771 14.7969 19.1317 14.6897 19.0245C14.5826 18.9174 14.4372 18.8572 14.2857 18.8572H9.71425Z" fill="#8090A7"/>
<path d="M4.57143 14.8571C4.72298 14.8571 4.86833 14.7969 4.97549 14.6897C5.08265 14.5826 5.14286 14.4372 5.14286 14.2857V9.71425C5.14286 9.5627 5.08265 9.41735 4.97549 9.31019C4.86833 9.20303 4.72298 9.14282 4.57143 9.14282C4.41988 9.14282 4.27453 9.20303 4.16737 9.31019C4.0602 9.41735 4 9.5627 4 9.71425V14.2857C4 14.4372 4.0602 14.5826 4.16737 14.6897C4.27453 14.7969 4.41988 14.8571 4.57143 14.8571Z" fill="#8090A7"/>
<path d="M19.4286 9.14282C19.2771 9.14282 19.1317 9.20303 19.0245 9.31019C18.9174 9.41735 18.8572 9.5627 18.8572 9.71425V14.2857C18.8572 14.4372 18.9174 14.5826 19.0245 14.6897C19.1317 14.7969 19.2771 14.8571 19.4286 14.8571C19.5802 14.8571 19.7255 14.7969 19.8327 14.6897C19.9398 14.5826 20 14.4372 20 14.2857V9.71425C20 9.5627 19.9398 9.41735 19.8327 9.31019C19.7255 9.20303 19.5802 9.14282 19.4286 9.14282Z" fill="#8090A7"/>
<path d="M17.7142 15.9999V7.99993C17.7142 7.54527 17.5336 7.10924 17.2121 6.78775C16.8906 6.46626 16.4546 6.28564 15.9999 6.28564H7.99993C7.54527 6.28564 7.10924 6.46626 6.78775 6.78775C6.46626 7.10924 6.28564 7.54527 6.28564 7.99993V15.9999C6.28564 16.4546 6.46626 16.8906 6.78775 17.2121C7.10924 17.5336 7.54527 17.7142 7.99993 17.7142H15.9999C16.4546 17.7142 16.8906 17.5336 17.2121 17.2121C17.5336 16.8906 17.7142 16.4546 17.7142 15.9999ZM7.4285 15.9999V7.99993C7.4285 7.84838 7.48871 7.70303 7.59587 7.59587C7.70303 7.48871 7.84838 7.4285 7.99993 7.4285H15.9999C16.1515 7.4285 16.2968 7.48871 16.404 7.59587C16.5112 7.70303 16.5714 7.84838 16.5714 7.99993V15.9999C16.5714 16.1515 16.5112 16.2968 16.404 16.404C16.2968 16.5112 16.1515 16.5714 15.9999 16.5714H7.99993C7.84838 16.5714 7.70303 16.5112 7.59587 16.404C7.48871 16.2968 7.4285 16.1515 7.4285 15.9999Z" fill="#8090A7"/>
</svg>
