<svg width="16" height="13" viewBox="0 0 16 13" fill="none" xmlns="http://www.w3.org/2000/svg">
<path fill-rule="evenodd" clip-rule="evenodd" d="M13.1429 1.08333H14.2857C14.7406 1.08333 15.1766 1.2545 15.4977 1.55946C15.8194 1.86387 16 2.27717 16 2.70833V11.375C16 11.8062 15.8194 12.2195 15.4977 12.5239C15.1766 12.8288 14.7406 13 14.2857 13H1.71429C1.25943 13 0.823429 12.8288 0.502286 12.5239C0.180571 12.2195 0 11.8062 0 11.375V2.70833C0 2.27717 0.180571 1.86387 0.502286 1.55946C0.823429 1.2545 1.25943 1.08333 1.71429 1.08333H2.85714V0.541667C2.85714 0.242667 3.11314 0 3.42857 0C3.744 0 4 0.242667 4 0.541667V1.08333H12V0.541667C12 0.242667 12.256 0 12.5714 0C12.8869 0 13.1429 0.242667 13.1429 0.541667V1.08333ZM2.85714 2.16667H1.71429C1.56286 2.16667 1.41714 2.22354 1.31029 2.32537C1.20286 2.42667 1.14286 2.56479 1.14286 2.70833V11.375C1.14286 11.5185 1.20286 11.6567 1.31029 11.758C1.41714 11.8598 1.56286 11.9167 1.71429 11.9167H14.2857C14.4371 11.9167 14.5829 11.8598 14.6897 11.758C14.7971 11.6567 14.8571 11.5185 14.8571 11.375V2.70833C14.8571 2.56479 14.7971 2.42667 14.6897 2.32537C14.5829 2.22354 14.4371 2.16667 14.2857 2.16667H13.1429V2.70833C13.1429 3.00733 12.8869 3.25 12.5714 3.25C12.256 3.25 12 3.00733 12 2.70833V2.16667H4V2.70833C4 3.00733 3.744 3.25 3.42857 3.25C3.11314 3.25 2.85714 3.00733 2.85714 2.70833V2.16667ZM8 3.25C10.2234 3.25 12.0286 4.96113 12.0286 7.06875C12.0286 9.17638 10.2234 10.8875 8 10.8875C5.77657 10.8875 3.97143 9.17638 3.97143 7.06875C3.97143 4.96113 5.77657 3.25 8 3.25ZM8 4.33333C6.40743 4.33333 5.11429 5.55913 5.11429 7.06875C5.11429 8.57838 6.40743 9.80417 8 9.80417C9.59257 9.80417 10.8857 8.57838 10.8857 7.06875C10.8857 5.55913 9.59257 4.33333 8 4.33333ZM7.22057 7.09584L6.41257 6.32992C6.18914 6.11867 6.18914 5.77525 6.41257 5.564C6.63543 5.35221 6.99771 5.35221 7.22057 5.564L8.02857 6.32992L8.83657 5.564C9.05943 5.35221 9.42171 5.35221 9.64457 5.564C9.868 5.77525 9.868 6.11867 9.64457 6.32992L8.83657 7.09584L9.64457 7.86175C9.868 8.073 9.868 8.41641 9.64457 8.62766C9.42171 8.83946 9.05943 8.83946 8.83657 8.62766L8.02857 7.86175L7.22057 8.62766C6.99771 8.83946 6.63543 8.83946 6.41257 8.62766C6.18914 8.41641 6.18914 8.073 6.41257 7.86175L7.22057 7.09584Z" fill="#131627"/>
</svg>
