<svg xmlns="http://www.w3.org/2000/svg" width="20" height="20" viewBox="0 0 20 20" fill="none">
  <path d="M12.2477 14.9375H7.43516C7.33943 14.9375 7.24762 14.9755 7.17993 15.0431C7.11225 15.1107 7.07422 15.2025 7.07422 15.2981C7.07422 15.3937 7.11225 15.4854 7.17993 15.5531C7.24762 15.6207 7.33943 15.6587 7.43516 15.6587H8.0731C8.15631 16.0659 8.37777 16.4318 8.69999 16.6947C9.02222 16.9575 9.42543 17.101 9.84141 17.101C10.2574 17.101 10.6606 16.9575 10.9828 16.6947C11.305 16.4318 11.5265 16.0659 11.6097 15.6587H12.2477C12.3434 15.6587 12.4352 15.6207 12.5029 15.5531C12.5706 15.4854 12.6086 15.3937 12.6086 15.2981C12.6086 15.2025 12.5706 15.1107 12.5029 15.0431C12.4352 14.9755 12.3434 14.9375 12.2477 14.9375ZM9.84141 16.3799C9.61821 16.3792 9.4007 16.3095 9.21873 16.1804C9.03676 16.0512 8.89926 15.869 8.82511 15.6587H10.8577C10.7835 15.869 10.646 16.0512 10.4641 16.1804C10.2821 16.3095 10.0646 16.3792 9.84141 16.3799Z" fill="#131627"/>
  <path d="M12.2477 13.4941H7.43516C7.33943 13.4941 7.24762 13.5321 7.17993 13.5998C7.11225 13.6674 7.07422 13.7591 7.07422 13.8547C7.07422 13.9504 7.11225 14.0421 7.17993 14.1097C7.24762 14.1773 7.33943 14.2153 7.43516 14.2153H12.2477C12.3434 14.2153 12.4352 14.1773 12.5029 14.1097C12.5706 14.0421 12.6086 13.9504 12.6086 13.8547C12.6086 13.7591 12.5706 13.6674 12.5029 13.5998C12.4352 13.5321 12.3434 13.4941 12.2477 13.4941Z" fill="#131627"/>
  <path d="M6.83673 4.64169C5.35609 6.12104 5.1829 8.50162 6.43408 10.1791L7.83132 12.0527H7.43477C7.33904 12.0527 7.24723 12.0907 7.17954 12.1583C7.11186 12.226 7.07383 12.3177 7.07383 12.4133C7.07383 12.5089 7.11186 12.6007 7.17954 12.6683C7.24723 12.7359 7.33904 12.7739 7.43477 12.7739H12.2473C12.343 12.7739 12.4348 12.7359 12.5025 12.6683C12.5702 12.6007 12.6082 12.5089 12.6082 12.4133C12.6082 12.3177 12.5702 12.226 12.5025 12.1583C12.4348 12.0907 12.343 12.0527 12.2473 12.0527H11.8508L13.2481 10.1791C14.4992 8.50162 14.3261 6.12103 12.8453 4.64168C12.0479 3.8468 10.9675 3.40039 9.84101 3.40039C8.71457 3.40039 7.63412 3.84681 6.83673 4.64169ZM12.6693 9.74831L10.9508 12.0527H10.202V8.92759H11.0441C11.1399 8.92759 11.2317 8.8896 11.2994 8.82197C11.3671 8.75435 11.4051 8.66263 11.4051 8.56699C11.4051 8.47136 11.3671 8.37964 11.2994 8.31202C11.2317 8.24439 11.1399 8.2064 11.0441 8.2064H8.63789C8.54216 8.2064 8.45036 8.24439 8.38267 8.31202C8.31498 8.37964 8.27695 8.47136 8.27695 8.56699C8.27695 8.66263 8.31498 8.75435 8.38267 8.82197C8.45036 8.8896 8.54216 8.92759 8.63789 8.92759H9.48008V12.0527H8.73134L7.01285 9.74831C5.97433 8.35571 6.11802 6.37962 7.34712 5.15158C8.00909 4.49182 8.90597 4.1213 9.84102 4.1213C10.7761 4.1213 11.673 4.49182 12.3349 5.15158C13.564 6.37962 13.7078 8.35571 12.6693 9.74831Z" fill="#131627"/>
</svg>
