<?xml version="1.0" encoding="UTF-8"?>
<svg id="Layer_1" data-name="Layer 1" xmlns="http://www.w3.org/2000/svg" viewBox="0 0 691.62 775.42">
  <defs>
    <style>
      .cls-1 {
        fill: #8090a7;
      }

      .cls-1, .cls-2 {
        stroke-width: 0px;
      }

      .cls-2 {
        fill: #6ab2df;
      }
    </style>
  </defs>
  <g>
    <circle class="cls-2" cx="347.37" cy="52.95" r="52.95"/>
    <g>
      <path class="cls-1" d="m393.2,349.39h-7.62c-13.9,0-25.17-11.27-25.17-25.17V121.79c0-2.91,2.36-5.26,5.26-5.26h0c28.33,0,51.29,22.97,51.29,51.29v157.8c0,13.13-10.64,23.77-23.77,23.77Z"/>
      <path class="cls-1" d="m290.36,116.53h57.01v121.24c0,1.83-1.48,3.31-3.31,3.31h-54.5c-1.74,0-3.16-1.42-3.16-3.16v-117.43c0-2.18,1.77-3.96,3.96-3.96Z"/>
      <polygon class="cls-1" points="362.22 170.08 346.17 170.08 346.17 116.53 364.82 116.53 362.22 170.08"/>
    </g>
  </g>
  <g>
    <circle class="cls-2" cx="638.67" cy="211.62" r="52.95"/>
    <g>
      <path class="cls-1" d="m406.67,406.81l-4-6.65c-7.29-12.13-3.37-27.88,8.76-35.17l176.64-106.2c2.54-1.53,5.83-.71,7.36,1.83h0c14.86,24.72,6.87,56.81-17.85,71.67l-137.7,82.78c-11.45,6.89-26.32,3.18-33.21-8.27Z"/>
      <path class="cls-1" d="m488.41,187.31h58.12v123.51c0,1.83-1.48,3.31-3.31,3.31h-55.61c-1.74,0-3.16-1.42-3.16-3.16v-119.7c0-2.18,1.77-3.96,3.96-3.96Z" transform="translate(464.76 -320.26) rotate(58.99)"/>
      <polygon class="cls-1" points="546.88 285.7 538.46 271.7 585.2 243.61 594.98 259.88 546.88 285.7"/>
    </g>
  </g>
  <g>
    <circle class="cls-2" cx="638.67" cy="557.08" r="52.95"/>
    <g>
      <path class="cls-1" d="m359.16,441.29l4.1-6.59c7.48-12.01,23.29-15.69,35.31-8.2l174.93,108.99c2.51,1.57,3.28,4.87,1.72,7.38h0c-15.25,24.48-47.46,31.96-71.95,16.71l-136.37-84.96c-11.34-7.07-14.81-21.99-7.74-33.34Z"/>
      <path class="cls-1" d="m520.58,403.77h58.12v123.51c0,1.83-1.48,3.31-3.31,3.31h-55.61c-1.74,0-3.16-1.42-3.16-3.16v-119.7c0-2.18,1.77-3.96,3.96-3.96Z" transform="translate(1233.79 249.38) rotate(121.92)"/>
      <polygon class="cls-1" points="530.8 511.05 539.44 497.19 585.72 526.02 575.68 542.14 530.8 511.05"/>
    </g>
  </g>
  <g>
    <circle class="cls-2" cx="347.37" cy="722.47" r="52.95"/>
    <g>
      <path class="cls-1" d="m307.15,425.49h7.76c14.15,0,25.63,11.47,25.63,25.63v206.11c0,2.96-2.4,5.36-5.36,5.36h0c-28.85,0-52.23-23.38-52.23-52.23v-160.67c0-13.37,10.83-24.2,24.2-24.2Z"/>
      <path class="cls-1" d="m357.77,535.76h58.12v123.51c0,1.83-1.48,3.31-3.31,3.31h-55.61c-1.74,0-3.16-1.42-3.16-3.16v-119.7c0-2.18,1.77-3.96,3.96-3.96Z" transform="translate(769.71 1198.35) rotate(180)"/>
      <polygon class="cls-1" points="338.7 608.06 355.04 608.06 355.04 662.58 336.05 662.58 338.7 608.06"/>
    </g>
  </g>
  <g>
    <circle class="cls-2" cx="52.95" cy="557.08" r="52.95"/>
    <g>
      <path class="cls-1" d="m298.06,369.69l3.48,6.93c6.35,12.65,1.25,28.05-11.4,34.41l-184.17,92.53c-2.65,1.33-5.87.26-7.2-2.38h0c-12.95-25.78-2.55-57.17,23.22-70.12l143.57-72.13c11.94-6,26.49-1.18,32.49,10.76Z"/>
      <path class="cls-1" d="m150.66,453.69h58.12v123.51c0,1.83-1.48,3.31-3.31,3.31h-55.61c-1.74,0-3.16-1.42-3.16-3.16v-119.7c0-2.18,1.77-3.96,3.96-3.96Z" transform="translate(-204.53 908.06) rotate(-116.67)"/>
      <polygon class="cls-1" points="149.08 479.85 156.42 494.45 107.69 518.92 99.17 501.95 149.08 479.85"/>
    </g>
  </g>
  <g>
    <circle class="cls-2" cx="52.95" cy="223.03" r="52.95"/>
    <g>
      <path class="cls-1" d="m337.14,327.36l-3.7,6.82c-6.75,12.44-22.31,17.06-34.75,10.31l-181.17-98.27c-2.6-1.41-3.57-4.67-2.16-7.27h0c13.75-25.36,45.46-34.76,70.81-21.01l141.23,76.6c11.75,6.37,16.11,21.06,9.73,32.81Z"/>
      <path class="cls-1" d="m120.34,249.45h58.12v123.51c0,1.83-1.48,3.31-3.31,3.31h-55.61c-1.74,0-3.16-1.42-3.16-3.16v-119.7c0-2.18,1.77-3.96,3.96-3.96Z" transform="translate(-197.87 293.28) rotate(-61.52)"/>
      <polygon class="cls-1" points="161.62 268.05 153.83 282.41 105.9 256.41 114.95 239.72 161.62 268.05"/>
    </g>
  </g>
</svg>