<svg xmlns="http://www.w3.org/2000/svg" width="20" height="21" viewBox="0 0 20 21" fill="none">
  <path d="M9.78397 5.01026C9.78397 4.83175 9.64265 4.69043 9.46414 4.69043H5.7005C4.5848 4.69043 3.66992 5.59787 3.66992 6.72101V14.3301C3.66992 15.4458 4.57736 16.3532 5.7005 16.3532H13.9418C15.0575 16.3532 15.965 15.4458 15.965 14.3301V11.3103C15.965 11.1318 15.8236 10.9904 15.6451 10.9904C15.4666 10.9904 15.3253 11.1318 15.3253 11.3103V14.3301C15.3253 15.0962 14.7005 15.721 13.9344 15.721H5.70794C4.94182 15.721 4.31703 15.0962 4.31703 14.3301V6.72101C4.31703 5.95489 4.94182 5.3301 5.70794 5.3301H9.47157C9.65009 5.3301 9.79141 5.18878 9.79141 5.0177L9.78397 5.01026Z" fill="#8090A7" stroke="#8090A7" stroke-width="0.5" stroke-miterlimit="10"/>
  <path d="M12.1718 12.9319C12.276 12.9319 12.3652 12.8798 12.4247 12.798L13.3396 11.5261C13.3768 11.474 13.3991 11.4071 13.3991 11.3401V4.7426C13.3991 4.34094 13.0718 4.01367 12.6702 4.01367H11.6586C11.257 4.01367 10.9297 4.34094 10.9297 4.7426V11.3476C10.9297 11.4145 10.952 11.4814 10.9892 11.5335L11.9041 12.8054C11.9636 12.8872 12.0603 12.9393 12.1644 12.9393L12.1718 12.9319ZM11.5694 4.7426C11.5694 4.69053 11.614 4.6459 11.6661 4.6459H12.6776C12.7297 4.6459 12.7743 4.69053 12.7743 4.7426V11.2434L12.1718 12.0765L11.5694 11.2434V4.7426Z" fill="#8090A7" stroke="#8090A7" stroke-width="0.5" stroke-miterlimit="10"/>
  <path d="M9.07795 7.89697H6.05812C5.8796 7.89697 5.73828 8.03829 5.73828 8.21681C5.73828 8.39532 5.8796 8.53664 6.05812 8.53664H9.07795C9.25646 8.53664 9.39779 8.39532 9.39779 8.21681C9.39779 8.03829 9.25646 7.89697 9.07795 7.89697Z" fill="#8090A7" stroke="#8090A7" stroke-width="0.5" stroke-miterlimit="10"/>
  <path d="M9.07795 10.0166H6.05812C5.8796 10.0166 5.73828 10.1579 5.73828 10.3364C5.73828 10.5149 5.8796 10.6563 6.05812 10.6563H9.07795C9.25646 10.6563 9.39779 10.5149 9.39779 10.3364C9.39779 10.1579 9.25646 10.0166 9.07795 10.0166Z" fill="#8090A7" stroke="#8090A7" stroke-width="0.5" stroke-miterlimit="10"/>
</svg>
